<svg width="1331" height="126" viewBox="0 0 1331 126" fill="none" xmlns="http://www.w3.org/2000/svg">
<path d="M7.248 87.856C5.37067 87.856 3.83467 87.2587 2.64 86.064C1.44533 84.8693 0.848 83.2053 0.848 81.072C0.848 79.8773 1.104 78.5547 1.616 77.104C2.04267 75.568 2.81067 73.9467 3.92 72.24C5.88267 69.168 8.4 65.7547 11.472 62C14.6293 58.16 17.9573 54.3627 21.456 50.608C24.9547 46.8533 28.24 43.44 31.312 40.368C34.4693 37.2107 36.9867 34.7787 38.864 33.072C39.7173 30.512 40.528 27.8667 41.296 25.136C42.1493 22.4053 43.0027 19.5893 43.856 16.688C41.4667 18.9067 38.736 20.5707 35.664 21.68C32.6773 22.7893 29.8613 23.4293 27.216 23.6H27.088C26.2347 23.6 25.808 23.3013 25.808 22.704C25.808 22.0213 26.32 21.6373 27.344 21.552C29.8187 21.296 32.3787 20.3573 35.024 18.736C37.6693 17.0293 40.1013 14.896 42.32 12.336C44.624 9.69066 46.3733 6.87466 47.568 3.88799C47.7387 3.37599 48.2933 2.992 49.232 2.736C50.256 2.48 51.3227 2.352 52.432 2.352C53.3707 2.352 54.1813 2.48 54.864 2.736C55.632 2.90666 55.9307 3.29066 55.76 3.88799C54.224 7.81333 52.7307 11.6107 51.28 15.28C49.8293 18.864 48.4213 22.3627 47.056 25.776C52.0907 21.5093 56.784 17.968 61.136 15.152C65.5733 12.2507 69.1573 10.7147 71.888 10.544C76.752 10.288 80.5493 11.0987 83.28 12.976C86.096 14.8533 88.0587 17.3707 89.168 20.528C90.3627 23.6 90.96 26.8853 90.96 30.384C90.96 31.2373 90.9173 32.048 90.832 32.816C90.832 33.584 90.7893 34.352 90.704 35.12C90.2773 39.0453 89.424 43.5253 88.144 48.56C86.864 53.5947 85.4987 58.288 84.048 62.64C83.8773 63.0667 83.6213 63.8347 83.28 64.944C82.9387 65.968 82.896 66.48 83.152 66.48C83.2373 66.48 83.664 65.9253 84.432 64.816C86.5653 61.3173 88.6133 57.904 90.576 54.576C92.624 51.1627 94.8 47.664 97.104 44.08C100.517 38.7893 104.229 33.456 108.24 28.08C112.336 22.704 116.432 17.8827 120.528 13.616C122.149 11.9093 123.813 10.6293 125.52 9.77599C127.312 8.92266 128.976 8.49599 130.512 8.49599C132.219 8.49599 133.627 9.09333 134.736 10.288C135.931 11.3973 136.528 13.1467 136.528 15.536C136.528 16.1333 136.443 16.816 136.272 17.584C136.187 18.2667 136.059 19.0347 135.888 19.888C134.864 23.984 133.669 27.7387 132.304 31.152C130.939 34.5653 129.573 37.936 128.208 41.264C126.843 44.5067 125.605 47.92 124.496 51.504C123.472 55.088 122.747 59.056 122.32 63.408C122.235 64.176 122.149 64.9013 122.064 65.584C122.064 66.2667 122.064 66.9067 122.064 67.504C122.064 70.4053 122.491 72.5387 123.344 73.904C124.197 75.184 125.307 75.824 126.672 75.824C128.293 75.824 130.171 75.1413 132.304 73.776C134.523 72.3253 136.741 70.576 138.96 68.528C141.179 66.3947 143.184 64.3467 144.976 62.384C146.768 60.336 148.091 58.7147 148.944 57.52C149.115 57.264 149.371 57.136 149.712 57.136C150.053 57.136 150.352 57.264 150.608 57.52C150.864 57.776 150.864 58.1173 150.608 58.544C149.499 60.2507 147.92 62.256 145.872 64.56C143.909 66.7787 141.819 68.9547 139.6 71.088C137.467 73.136 135.547 74.8 133.84 76.08C132.56 77.0187 131.067 77.7867 129.36 78.384C127.739 78.9813 126.117 79.28 124.496 79.28C122.619 79.28 120.912 78.8107 119.376 77.872C117.84 76.9333 116.773 75.312 116.176 73.008C115.92 72.1547 115.749 71.2587 115.664 70.32C115.579 69.3813 115.536 68.4 115.536 67.376C115.536 63.792 116.048 59.824 117.072 55.472C118.096 51.0347 119.376 46.64 120.912 42.288C122.448 37.8507 123.899 33.84 125.264 30.256C126.715 26.5867 127.824 23.6853 128.592 21.552C129.189 20.3573 129.488 19.248 129.488 18.224C129.488 16.432 128.72 15.536 127.184 15.536C125.904 15.536 124.411 16.2613 122.704 17.712C120.229 19.8453 117.499 22.6187 114.512 26.032C111.611 29.4453 108.624 33.2 105.552 37.296C102.565 41.392 99.6213 45.616 96.72 49.968C93.904 54.2347 91.3013 58.3733 88.912 62.384C86.608 66.3093 84.7307 69.808 83.28 72.88C82.6827 74.16 82 74.8 81.232 74.8C80.6347 74.8 80.0373 74.416 79.44 73.648C78.928 72.88 78.5013 72.0693 78.16 71.216C77.904 70.2773 77.8613 69.6373 78.032 69.296C79.1413 66.5653 80.1653 63.2373 81.104 59.312C82.0427 55.3013 82.8107 51.0773 83.408 46.64C84.0053 42.1173 84.304 37.808 84.304 33.712C84.304 28.2507 83.6213 23.6427 82.256 19.888C80.8907 16.048 78.5013 14.128 75.088 14.128C72.8693 14.128 70.0533 15.0667 66.64 16.944C63.2267 18.8213 59.5147 21.3387 55.504 24.496C51.5787 27.6533 47.5253 31.152 43.344 34.992C42.576 36.8693 41.424 39.6 39.888 43.184C38.4373 46.768 36.688 50.736 34.64 55.088C32.6773 59.44 30.4587 63.792 27.984 68.144C25.5947 72.4107 23.12 76.1653 20.56 79.408C18.256 82.3093 15.952 84.4427 13.648 85.808C11.344 87.1733 9.21067 87.856 7.248 87.856ZM7.888 83.376C10.1067 83.376 12.368 82.1813 14.672 79.792C17.0613 77.488 19.408 74.544 21.712 70.96C24.1013 67.2907 26.2773 63.4933 28.24 59.568C30.2027 55.6427 31.8667 52.016 33.232 48.688C34.6827 45.36 35.7067 42.8853 36.304 41.264C33.9147 43.568 31.3973 46.128 28.752 48.944C26.1067 51.6747 23.504 54.4907 20.944 57.392C18.4693 60.208 16.208 62.8533 14.16 65.328C12.112 67.8027 10.4907 69.8507 9.296 71.472C7.93067 73.3493 6.90667 75.056 6.224 76.592C5.62667 78.0427 5.328 79.3227 5.328 80.432C5.328 82.3947 6.18133 83.376 7.888 83.376ZM182.957 79.28C181.506 79.28 180.141 78.9387 178.861 78.256C177.666 77.5733 176.77 76.2933 176.173 74.416C175.917 73.648 175.789 72.5813 175.789 71.216C175.789 69.3387 176.045 67.248 176.557 64.944C177.069 62.64 177.624 60.6773 178.221 59.056C177.794 59.2267 176.984 59.9947 175.789 61.36C174.68 62.64 173.272 64.2187 171.565 66.096C169.944 67.888 168.109 69.7227 166.061 71.6C164.098 73.392 162.05 74.8853 159.917 76.08C157.784 77.2747 155.693 77.872 153.645 77.872C152.28 77.872 150.829 77.488 149.293 76.72C147.757 75.8667 146.52 74.8 145.581 73.52C144.301 71.8133 143.661 70.064 143.661 68.272C143.661 65.968 144.429 63.5787 145.965 61.104C147.586 58.6293 149.634 56.24 152.109 53.936C154.669 51.5467 157.357 49.4133 160.173 47.536C163.074 45.5733 165.805 43.952 168.365 42.672C171.01 41.3067 173.144 40.4107 174.765 39.984C176.472 39.472 178.392 39.216 180.525 39.216C181.72 39.216 182.957 39.3867 184.237 39.728C185.517 39.984 186.584 40.4533 187.437 41.136C188.12 41.4773 188.674 41.9467 189.101 42.544C189.528 43.1413 189.741 43.7813 189.741 44.464C189.741 45.1467 189.442 45.36 188.845 45.104C188.162 44.08 187.224 43.44 186.029 43.184C184.92 42.8427 183.768 42.672 182.573 42.672C179.16 42.672 175.405 43.7813 171.309 46C167.213 48.2187 163.544 50.8213 160.301 53.808C159.277 54.6613 157.869 56.1547 156.077 58.288C154.37 60.336 152.792 62.5973 151.341 65.072C149.89 67.5467 149.165 69.808 149.165 71.856C149.165 72.9653 149.464 73.9467 150.061 74.8C150.402 75.3973 150.957 75.696 151.725 75.696C152.92 75.696 154.498 75.056 156.461 73.776C158.509 72.496 160.6 70.96 162.733 69.168C164.866 67.2907 166.786 65.4987 168.493 63.792C170.285 62.0853 171.565 60.848 172.333 60.08C172.76 59.6533 173.57 58.8 174.765 57.52C176.045 56.1547 177.41 54.704 178.861 53.168C180.312 51.632 181.592 50.3093 182.701 49.2C183.896 48.0907 184.664 47.536 185.005 47.536C185.432 47.536 186.114 47.664 187.053 47.92C188.077 48.0907 188.93 48.3893 189.613 48.816C190.296 49.2427 190.424 49.7973 189.997 50.48C187.778 53.7227 185.986 57.136 184.621 60.72C183.341 64.2187 182.573 66.992 182.317 69.04C182.232 69.3813 182.189 69.7227 182.189 70.064C182.189 70.32 182.189 70.6187 182.189 70.96C182.189 74.3733 183.384 76.08 185.773 76.08C187.053 76.08 188.76 75.312 190.893 73.776C193.026 72.24 195.202 70.4053 197.421 68.272C199.64 66.1387 201.645 64.0907 203.437 62.128C205.314 60.08 206.594 58.544 207.277 57.52C207.533 57.264 207.789 57.136 208.045 57.136C208.386 57.136 208.685 57.3067 208.941 57.648C209.197 57.904 209.197 58.2453 208.941 58.672C208.002 60.208 206.637 62.0427 204.845 64.176C203.053 66.3093 201.048 68.4427 198.829 70.576C196.61 72.7093 194.434 74.544 192.301 76.08C191.192 76.9333 189.784 77.6587 188.077 78.256C186.37 78.9387 184.664 79.28 182.957 79.28ZM249.789 97.712C246.632 97.712 243.602 96.56 240.701 94.256C237.885 92.0373 235.282 89.0507 232.893 85.296C230.504 81.6267 228.456 77.616 226.749 73.264C225.128 68.8267 223.933 64.5173 223.165 60.336C220.264 64.432 217.746 68.1867 215.613 71.6C213.565 75.0133 212.072 76.976 211.133 77.488C210.706 77.744 209.725 78.1707 208.189 78.768C206.653 79.3653 205.501 79.664 204.733 79.664C204.136 79.664 203.965 79.3653 204.221 78.768C204.392 78.4267 204.818 77.36 205.501 75.568C206.184 73.6907 206.994 71.3867 207.933 68.656C208.872 65.9253 209.853 63.0667 210.877 60.08C211.986 57.0933 213.053 54.2773 214.077 51.632C213.224 52.5707 212.242 53.7653 211.133 55.216C210.024 56.5813 208.744 58.3307 207.293 60.464C207.037 60.8907 206.61 61.104 206.013 61.104C205.416 61.104 205.117 60.848 205.117 60.336C205.117 59.824 205.416 59.2267 206.013 58.544C207.208 57.0933 208.488 55.4293 209.853 53.552C211.218 51.6747 212.541 49.84 213.821 48.048C215.101 46.256 216.125 44.8053 216.893 43.696C215.613 43.0133 214.973 42.1173 214.973 41.008C214.973 40.3253 215.229 39.8133 215.741 39.472C216.338 39.0453 216.936 39.0453 217.533 39.472C217.874 39.6427 218.173 39.728 218.429 39.728C219.88 35.888 221.714 31.7493 223.933 27.312C226.152 22.7893 228.712 18.5227 231.613 14.512C234.514 10.416 237.629 7.088 240.957 4.528C244.37 1.968 247.954 0.687996 251.709 0.687996C252.136 0.687996 252.562 0.730662 252.989 0.815994C253.501 0.815994 253.97 0.85866 254.397 0.943993C254.909 1.02933 255.378 1.2 255.805 1.45599C256.317 1.712 256.786 1.92533 257.213 2.09599C259.176 3.20533 260.157 4.82666 260.157 6.96C260.157 8.496 259.73 10.2027 258.877 12.08C258.024 13.872 256.957 15.664 255.677 17.456C254.482 19.248 253.288 20.8693 252.093 22.32C250.898 23.7707 249.96 24.88 249.277 25.648C245.096 29.9147 240.573 33.7973 235.709 37.296C230.93 40.7947 226.749 43.2693 223.165 44.72C221.8 47.6213 220.52 50.608 219.325 53.68C218.13 56.6667 217.106 59.44 216.253 62C215.485 64.4747 214.888 66.3947 214.461 67.76C215.912 65.968 217.277 64.176 218.557 62.384C219.922 60.5067 221.288 58.672 222.653 56.88C222.653 56.5387 222.61 56.1973 222.525 55.856C222.525 55.5147 222.525 55.1733 222.525 54.832C222.525 54.32 222.525 53.8507 222.525 53.424C222.61 52.912 222.696 52.4427 222.781 52.016C222.866 51.504 223.08 50.992 223.421 50.48C223.762 49.968 224.104 49.712 224.445 49.712C224.957 49.712 225.256 50.224 225.341 51.248C225.426 51.504 225.512 51.8027 225.597 52.144C225.682 52.4853 225.768 52.8267 225.853 53.168C226.962 51.888 228.328 50.3093 229.949 48.432C231.656 46.5547 233.405 44.7627 235.197 43.056C236.989 41.3493 238.61 40.1547 240.061 39.472C241.256 38.8747 242.45 38.576 243.645 38.576C244.84 38.576 245.821 38.8747 246.589 39.472C247.357 39.984 247.741 40.624 247.741 41.392C247.741 42.5867 246.845 43.6107 245.053 44.464C243.688 45.0613 241.853 45.9147 239.549 47.024C237.33 48.1333 235.026 49.456 232.637 50.992C230.248 52.528 228.2 54.192 226.493 55.984C227.773 60.5067 229.01 64.3893 230.205 67.632C231.485 70.8747 232.978 73.9893 234.685 76.976C236.477 79.8773 238.824 83.1627 241.725 86.832C243.688 89.0507 245.693 90.8427 247.741 92.208C249.789 93.5733 251.624 94.256 253.245 94.256C254.696 94.256 255.677 93.9147 256.189 93.232C256.786 92.6347 257.085 91.8667 257.085 90.928C257.085 89.8187 256.786 88.5813 256.189 87.216C255.677 85.936 255.122 84.8693 254.525 84.016C254.098 83.504 253.885 83.0347 253.885 82.608C253.885 82.352 254.056 82.224 254.397 82.224C255.165 82.224 255.976 82.5653 256.829 83.248C257.256 83.76 257.81 84.7413 258.493 86.192C259.261 87.728 259.645 89.0507 259.645 90.16C259.645 91.8667 259.048 93.2747 257.853 94.384C256.658 95.5787 255.293 96.432 253.757 96.944C252.221 97.456 250.898 97.712 249.789 97.712ZM224.701 40.368C228.37 38.7467 232.082 36.528 235.837 33.712C239.592 30.896 243.09 27.568 246.333 23.728C246.76 23.216 247.485 22.2773 248.509 20.912C249.533 19.4613 250.642 17.84 251.837 16.048C253.117 14.256 254.184 12.464 255.037 10.672C255.89 8.87999 256.317 7.38666 256.317 6.19199C256.317 5.33866 256.061 4.74133 255.549 4.39999C255.293 4.144 254.909 4.016 254.397 4.016C253.032 4.016 251.453 4.74133 249.661 6.19199C243.944 10.6293 239.165 15.6213 235.325 21.168C231.57 26.6293 228.029 33.0293 224.701 40.368ZM260.893 79.92C257.053 79.92 253.725 79.024 250.909 77.232C248.093 75.44 246.685 72.7093 246.685 69.04C246.685 67.0773 247.282 64.688 248.477 61.872C249.33 59.9093 250.909 57.648 253.213 55.088C255.517 52.528 258.205 50.0533 261.277 47.664C264.349 45.1893 267.464 43.184 270.621 41.648C273.778 40.0267 276.637 39.216 279.197 39.216C280.136 39.216 280.989 39.344 281.757 39.6C283.208 40.112 284.189 40.9227 284.701 42.032C285.298 43.1413 285.597 44.2933 285.597 45.488C285.597 46.5973 285.426 47.664 285.085 48.688C284.744 49.712 284.317 50.608 283.805 51.376C282.269 53.68 280.05 55.728 277.149 57.52C274.333 59.312 271.432 60.72 268.445 61.744C265.544 62.768 263.154 63.3653 261.277 63.536H261.021C259.912 63.536 259.357 63.1947 259.357 62.512C259.357 62.0853 259.698 61.872 260.381 61.872C262.429 61.7013 264.989 60.7627 268.061 59.056C271.218 57.264 273.992 55.4293 276.381 53.552C277.405 52.6987 278.6 51.504 279.965 49.968C281.416 48.432 282.141 46.9387 282.141 45.488C282.141 43.952 281.416 43.184 279.965 43.184C279.197 43.184 278.386 43.3547 277.533 43.696C276.765 44.0373 276.125 44.2933 275.613 44.464C273.138 45.6587 270.408 47.536 267.421 50.096C264.434 52.5707 261.704 55.3867 259.229 58.544C256.84 61.616 255.176 64.7307 254.237 67.888C253.981 68.5707 253.81 69.2533 253.725 69.936C253.64 70.5333 253.597 71.1307 253.597 71.728C253.597 73.776 254.237 75.2267 255.517 76.08C256.882 76.9333 258.504 77.36 260.381 77.36C263.197 77.36 266.098 76.7627 269.085 75.568C272.072 74.288 274.973 72.6667 277.789 70.704C280.605 68.7413 283.165 66.6507 285.469 64.432C287.858 62.128 289.864 59.9093 291.485 57.776C291.741 57.4347 292.04 57.264 292.381 57.264C292.722 57.1787 292.936 57.2213 293.021 57.392C293.362 57.4773 293.533 57.7333 293.533 58.16C293.533 58.5013 293.448 58.8427 293.277 59.184C290.888 62.512 287.986 65.7547 284.573 68.912C281.245 72.0693 277.533 74.7147 273.437 76.848C269.426 78.896 265.245 79.92 260.893 79.92ZM312.744 124.976C311.72 124.72 310.824 124.464 310.056 124.208C308.435 123.355 307.283 122.373 306.6 121.264C305.917 120.24 305.576 119.131 305.576 117.936C305.576 115.973 306.259 113.84 307.624 111.536C308.904 109.317 310.611 107.013 312.744 104.624C314.877 102.064 317.565 99.4613 320.808 96.816C324.136 94.1707 327.592 91.6107 331.176 89.136C334.76 86.7467 337.917 84.656 340.648 82.864C342.099 79.8773 343.592 76.6773 345.128 73.264C346.749 69.8507 348.285 66.5653 349.736 63.408C351.187 60.1653 352.424 57.2213 353.448 54.576C354.557 51.9307 355.368 49.8827 355.88 48.432C354.515 50.0533 352.936 52.1013 351.144 54.576C349.352 56.9653 347.389 59.5253 345.256 62.256C343.123 64.9013 340.904 67.4187 338.6 69.808C336.381 72.1973 334.077 74.16 331.688 75.696C329.299 77.1467 326.952 77.872 324.648 77.872C321.235 77.872 318.845 77.0187 317.48 75.312C316.2 73.52 315.56 71.4293 315.56 69.04C315.56 67.3333 315.773 65.6267 316.2 63.92C316.712 62.2133 317.352 60.6347 318.12 59.184C318.632 58.16 319.443 56.7947 320.552 55.088C321.661 53.3813 322.941 51.632 324.392 49.84C325.843 48.048 327.293 46.5547 328.744 45.36C330.28 44.1653 331.731 43.568 333.096 43.568C334.717 43.568 335.955 44.1653 336.808 45.36C337.661 46.4693 337.747 47.2373 337.064 47.664C335.699 48.6027 333.992 50.0533 331.944 52.016C329.981 53.8933 328.019 56.0693 326.056 58.544C325.544 59.2267 324.904 60.2933 324.136 61.744C323.453 63.1947 322.813 64.7733 322.216 66.48C321.619 68.1013 321.32 69.5947 321.32 70.96C321.32 71.5573 321.405 72.1547 321.576 72.752C321.747 73.264 322.045 73.648 322.472 73.904C323.155 74.416 323.923 74.672 324.776 74.672C325.971 74.672 327.293 74.288 328.744 73.52C330.28 72.752 331.731 71.7707 333.096 70.576C337.875 65.968 342.141 61.1467 345.896 56.112C349.651 51.0773 353.619 46.0853 357.8 41.136C358.056 40.2827 358.781 39.856 359.976 39.856C361.341 39.856 362.749 40.2827 364.2 41.136C365.736 41.904 366.376 42.544 366.12 43.056C365.352 44.7627 364.328 47.024 363.048 49.84C361.853 52.656 360.531 55.6853 359.08 58.928C357.629 62.1707 356.179 65.4133 354.728 68.656C353.277 71.8133 351.955 74.672 350.76 77.232C351.784 76.72 353.619 75.44 356.264 73.392C358.909 71.344 361.811 68.8693 364.968 65.968C368.125 62.9813 370.984 59.9093 373.544 56.752C374.056 56.24 374.44 55.984 374.696 55.984C375.208 55.984 375.464 56.3253 375.464 57.008C375.464 57.6053 375.208 58.288 374.696 59.056C373.416 60.7627 371.624 62.768 369.32 65.072C367.101 67.376 364.669 69.7227 362.024 72.112C359.464 74.416 356.947 76.5067 354.472 78.384C351.997 80.3467 349.864 81.84 348.072 82.864C345.427 88.496 342.867 93.7867 340.392 98.736C337.917 103.771 335.656 107.824 333.608 110.896C332.243 113.029 330.579 115.205 328.616 117.424C326.653 119.643 324.52 121.477 322.216 122.928C319.912 124.464 317.48 125.232 314.92 125.232C314.579 125.232 314.237 125.189 313.896 125.104C313.555 125.104 313.171 125.061 312.744 124.976ZM313.128 122.16C313.811 122.16 314.621 121.947 315.56 121.52C316.584 121.093 317.651 120.411 318.76 119.472C322.003 116.827 324.733 113.712 326.952 110.128C329.171 106.629 331.133 102.917 332.84 98.992C334.632 95.0667 336.424 91.312 338.216 87.728C334.888 90.2027 331.133 93.104 326.952 96.432C322.771 99.8453 318.973 103.216 315.56 106.544C313.512 108.592 312.019 110.597 311.08 112.56C310.141 114.608 309.672 116.4 309.672 117.936C309.672 120.752 310.824 122.16 313.128 122.16ZM381.229 79.408C378.84 79.408 376.749 78.8533 374.957 77.744C371.97 75.952 370.477 72.7093 370.477 68.016C370.477 66.0533 370.818 63.792 371.501 61.232C372.098 59.0987 373.165 56.7947 374.701 54.32C376.237 51.76 378.029 49.328 380.077 47.024C382.21 44.72 384.514 42.8427 386.989 41.392C389.464 39.9413 391.938 39.216 394.413 39.216C395.437 39.216 396.333 39.344 397.101 39.6C398.125 39.9413 398.978 40.5813 399.661 41.52C400.429 42.3733 400.813 43.4827 400.813 44.848C400.813 46.2987 400.429 47.1093 399.661 47.28C398.978 47.4507 398.637 47.28 398.637 46.768C398.637 46.5973 398.637 46.4267 398.637 46.256C398.722 46.0853 398.765 45.9573 398.765 45.872C398.765 45.1893 398.552 44.592 398.125 44.08C397.784 43.4827 397.101 43.184 396.077 43.184C394.712 43.184 393.005 43.9093 390.957 45.36C388.994 46.8107 386.946 48.7733 384.813 51.248C382.765 53.6373 380.93 56.2827 379.309 59.184C377.773 62.0853 376.749 64.9867 376.237 67.888C376.152 68.3147 376.066 68.7413 375.981 69.168C375.981 69.5093 375.981 69.8933 375.981 70.32C375.981 72.2827 376.408 73.9467 377.261 75.312C378.2 76.592 379.65 77.232 381.613 77.232C384.002 77.232 386.306 76.336 388.525 74.544C390.744 72.6667 392.706 70.448 394.413 67.888C396.205 65.328 397.528 63.0667 398.381 61.104C399.064 59.568 399.533 58.2453 399.789 57.136C400.045 56.0267 400.173 55.088 400.173 54.32C400.173 53.6373 400.088 53.04 399.917 52.528C399.832 52.016 399.704 51.5893 399.533 51.248C399.362 50.736 399.277 50.352 399.277 50.096C399.277 49.4133 399.533 48.8587 400.045 48.432C400.642 48.0053 401.24 47.792 401.837 47.792C402.349 47.792 402.904 47.9627 403.501 48.304C404.184 48.4747 405.122 48.6027 406.317 48.688C407.512 48.7733 408.792 48.816 410.157 48.816C411.608 48.816 413.058 48.7733 414.509 48.688C416.045 48.6027 417.368 48.432 418.477 48.176C418.648 48.0907 418.904 48.048 419.245 48.048C419.842 48.048 420.141 48.2187 420.141 48.56C420.141 48.9013 419.842 49.2 419.245 49.456C416.258 50.8213 413.57 51.5467 411.181 51.632C408.877 51.7173 406.872 51.76 405.165 51.76C405.336 53.8933 404.866 56.1973 403.757 58.672C402.648 61.0613 401.496 63.1947 400.301 65.072C398.85 67.2053 397.186 69.3813 395.309 71.6C393.432 73.8187 391.341 75.696 389.037 77.232C386.733 78.6827 384.13 79.408 381.229 79.408ZM450.296 79.28C448.76 79.28 447.395 78.9387 446.2 78.256C445.005 77.5733 444.109 76.2933 443.512 74.416C443.427 73.9893 443.299 73.52 443.128 73.008C443.043 72.4107 443 71.8133 443 71.216C443 69.168 443.256 66.864 443.768 64.304C444.365 61.744 445.005 59.6107 445.688 57.904C445.347 58.16 444.749 59.0133 443.896 60.464C443.043 61.9147 441.976 63.6213 440.696 65.584C439.416 67.4613 437.965 69.3813 436.344 71.344C434.808 73.2213 433.101 74.8 431.224 76.08C429.432 77.2747 427.512 77.872 425.464 77.872C424.099 77.872 422.435 77.488 420.472 76.72C418.595 75.952 417.229 74.8853 416.376 73.52C415.523 72.1547 415.096 70.448 415.096 68.4C415.096 65.9253 415.651 63.2373 416.76 60.336C417.869 57.3493 419.277 54.576 420.984 52.016C421.581 51.1627 422.264 50.1387 423.032 48.944C423.8 47.7493 424.568 46.7253 425.336 45.872C426.104 44.9333 426.659 44.4213 427 44.336C428.024 43.9947 429.219 43.824 430.584 43.824C432.035 43.824 433.101 43.9947 433.784 44.336C434.381 44.592 434.68 44.8907 434.68 45.232C434.68 45.6587 434.339 46.2133 433.656 46.896C432.717 47.7493 431.437 49.0293 429.816 50.736C428.195 52.4427 426.573 54.4907 424.952 56.88C423.416 59.2693 422.136 61.9147 421.112 64.816C420.259 67.12 419.832 69.1253 419.832 70.832C419.832 73.8187 421.027 75.312 423.416 75.312C425.464 75.312 427.64 74.4587 429.944 72.752C432.248 71.0453 434.467 68.9547 436.6 66.48C438.819 64.0053 440.781 61.5733 442.488 59.184C444.28 56.7093 445.645 54.7467 446.584 53.296C447.437 52.1013 448.376 50.5653 449.4 48.688C450.509 46.8107 451.576 44.976 452.6 43.184C453.624 41.392 454.435 40.0693 455.032 39.216C455.629 39.216 456.525 39.344 457.72 39.6C459 39.7707 460.067 40.112 460.92 40.624C461.859 41.136 462.115 41.776 461.688 42.544C461.176 43.3973 460.365 44.72 459.256 46.512C458.232 48.304 457.165 50.1387 456.056 52.016C455.032 53.808 454.221 55.2587 453.624 56.368C451.576 60.2933 450.253 64.5173 449.656 69.04C449.571 69.3813 449.528 69.7227 449.528 70.064C449.528 70.32 449.528 70.6187 449.528 70.96C449.528 74.3733 450.68 76.08 452.984 76.08C454.264 76.08 455.971 75.312 458.104 73.776C460.237 72.24 462.413 70.4053 464.632 68.272C466.936 66.1387 468.984 64.0907 470.776 62.128C472.653 60.08 473.933 58.544 474.616 57.52C474.787 57.264 475.043 57.136 475.384 57.136C475.725 57.136 475.981 57.264 476.152 57.52C476.408 57.776 476.408 58.1173 476.152 58.544C475.384 59.9947 474.061 61.8293 472.184 64.048C470.392 66.1813 468.387 68.3573 466.168 70.576C463.949 72.7093 461.773 74.544 459.64 76.08C458.531 76.9333 457.123 77.6587 455.416 78.256C453.709 78.9387 452.003 79.28 450.296 79.28ZM489.891 79.536C488.44 79.536 487.16 79.1947 486.051 78.512C484.942 77.9147 484.174 76.72 483.747 74.928C483.491 73.9893 483.363 73.0507 483.363 72.112C483.363 69.552 484.003 67.0773 485.283 64.688C486.648 62.2133 488.227 59.952 490.019 57.904C491.811 55.7707 493.347 53.9787 494.627 52.528C495.31 51.8453 496.078 50.9493 496.931 49.84C497.87 48.7307 498.339 47.6213 498.339 46.512C498.339 45.8293 497.998 45.1893 497.315 44.592C496.632 43.9093 495.395 43.44 493.603 43.184C492.579 43.0133 491.598 42.8853 490.659 42.8C489.806 42.6293 488.91 42.544 487.971 42.544C485.582 45.7867 483.235 49.072 480.931 52.4C478.712 55.6427 476.323 58.8427 473.763 62C473.166 62.5973 472.654 62.896 472.227 62.896C471.715 62.896 471.459 62.64 471.459 62.128C471.459 61.616 471.715 61.104 472.227 60.592C476.835 54.96 480.803 48.944 484.131 42.544C483.704 42.544 483.064 42.544 482.211 42.544C481.358 42.4587 480.675 42.3733 480.163 42.288C479.566 42.1173 479.096 41.8613 478.755 41.52C478.414 41.1787 478.243 40.8373 478.243 40.496C478.243 39.984 478.456 39.6853 478.883 39.6C479.992 39.2587 481.187 38.7467 482.467 38.064C483.747 37.3813 484.942 36.4853 486.051 35.376C487.246 34.1813 488.355 32.944 489.379 31.664C490.403 30.2987 491.214 29.2747 491.811 28.592C492.408 28.1653 493.048 27.952 493.731 27.952C494.158 27.952 494.542 28.08 494.883 28.336C495.31 28.592 495.523 28.976 495.523 29.488C495.523 30.0853 495.267 30.8533 494.755 31.792C493.987 32.9867 493.134 34.3093 492.195 35.76C491.342 37.2107 490.531 38.5333 489.763 39.728C491.299 39.8133 492.835 39.8987 494.371 39.984C495.907 40.0693 497.486 40.112 499.107 40.112C499.96 40.112 500.771 40.112 501.539 40.112C502.392 40.0267 503.246 39.984 504.099 39.984C506.659 39.984 507.939 40.624 507.939 41.904C507.939 42.7573 507.47 43.824 506.531 45.104C505.678 46.2987 504.611 47.6213 503.331 49.072C500.43 52.4 497.955 55.8987 495.907 59.568C493.859 63.2373 492.494 66.0533 491.811 68.016C491.128 70.064 490.787 71.6 490.787 72.624C490.787 74.672 491.598 75.696 493.219 75.696C494.67 75.696 496.419 74.9707 498.467 73.52C500.6 72.0693 502.776 70.32 504.995 68.272C507.214 66.1387 509.219 64.0907 511.011 62.128C512.803 60.08 514.083 58.544 514.851 57.52C515.022 57.264 515.278 57.136 515.619 57.136C515.96 57.136 516.259 57.3067 516.515 57.648C516.771 57.904 516.771 58.2453 516.515 58.672C515.576 60.1227 514.211 61.9573 512.419 64.176C510.627 66.3093 508.622 68.4427 506.403 70.576C504.184 72.7093 502.008 74.544 499.875 76.08C498.766 76.9333 497.23 77.7013 495.267 78.384C493.39 79.152 491.598 79.536 489.891 79.536ZM566.717 86.064C565.096 86.064 563.773 85.552 562.749 84.528C561.81 83.504 561.085 82.3093 560.573 80.944C560.061 79.5787 559.72 78.256 559.549 76.976C559.378 75.696 559.293 74.8 559.293 74.288C559.293 71.472 559.378 69.04 559.549 66.992C559.805 64.8587 560.061 62.7253 560.317 60.592V60.08C560.317 59.568 560.189 59.0987 559.933 58.672C559.762 58.16 559.592 57.6053 559.421 57.008C559.421 56.8373 559.378 56.7093 559.293 56.624C559.293 56.5387 559.293 56.4533 559.293 56.368C559.293 55.7707 559.592 55.1733 560.189 54.576C560.701 54.1493 561.384 53.808 562.237 53.552C563.176 53.2107 563.986 53.04 564.669 53.04C565.01 53.04 565.352 53.1253 565.693 53.296C565.864 53.4667 565.949 53.6373 565.949 53.808C565.949 54.4053 565.736 55.1307 565.309 55.984C564.882 57.0933 564.626 57.776 564.541 58.032C564.456 58.2027 564.413 58.8853 564.413 60.08C564.413 60.7627 564.84 61.6587 565.693 62.768C566.546 63.8773 567.528 64.9867 568.637 66.096C569.746 67.12 570.728 68.016 571.581 68.784C572.52 69.552 573.074 69.936 573.245 69.936C573.757 68.5707 574.568 66.6933 575.677 64.304C576.786 61.8293 577.981 59.184 579.261 56.368C580.541 53.552 581.821 50.864 583.101 48.304C584.381 45.6587 585.448 43.44 586.301 41.648C586.728 40.7093 587.026 39.8987 587.197 39.216C587.368 38.5333 587.453 38.0213 587.453 37.68C587.453 37.3387 587.41 37.0827 587.325 36.912C587.24 36.656 587.154 36.4853 587.069 36.4C587.24 35.376 588.05 33.7973 589.501 31.664C591.037 29.4453 592.872 27.184 595.005 24.88C597.138 22.4907 599.314 20.4853 601.533 18.864C603.752 17.2427 605.714 16.432 607.421 16.432C607.933 16.432 608.744 16.6027 609.853 16.944C610.962 17.2 612.029 17.6693 613.053 18.352C614.077 19.0347 614.674 19.9733 614.845 21.168V21.68C614.845 21.8507 614.802 21.936 614.717 21.936C614.632 21.936 614.461 21.8507 614.205 21.68C613.949 21.5093 613.65 21.424 613.309 21.424C611.346 21.424 609.213 22.4053 606.909 24.368C604.605 26.2453 602.216 28.8053 599.741 32.048C597.352 35.2053 595.005 38.704 592.701 42.544C590.397 46.384 588.221 50.224 586.173 54.064C584.125 57.904 582.29 61.4453 580.669 64.688C579.133 67.8453 577.896 70.4053 576.957 72.368C579.688 74.416 582.589 75.9093 585.661 76.848C588.733 77.7013 591.848 78.128 595.005 78.128C600.125 78.128 605.202 77.1467 610.237 75.184C615.272 73.2213 619.965 70.704 624.317 67.632C628.754 64.4747 632.466 61.0613 635.453 57.392C639.037 53.1253 641.725 48.7307 643.517 44.208C645.394 39.6853 646.333 35.3333 646.333 31.152C646.333 26.3733 645.138 22.1067 642.749 18.352C640.36 14.512 636.69 11.4827 631.741 9.264C626.877 6.96 620.648 5.808 613.053 5.808C607.592 5.808 601.96 6.40533 596.157 7.6C590.354 8.70933 584.765 10.288 579.389 12.336C574.013 14.384 569.149 16.816 564.797 19.632C560.53 22.3627 557.117 25.3493 554.557 28.592C552.082 31.8347 550.845 35.2053 550.845 38.704C550.845 40.8373 551.528 42.4587 552.893 43.568C554.258 44.592 555.794 45.36 557.501 45.872C559.208 46.384 560.53 46.896 561.469 47.408C562.152 47.664 562.493 47.9627 562.493 48.304C562.493 48.816 562.024 49.072 561.085 49.072C560.061 49.072 558.696 48.816 556.989 48.304C555.282 47.792 553.576 47.024 551.869 46C550.162 44.976 548.754 43.7387 547.645 42.288C546.621 40.752 546.237 38.96 546.493 36.912C546.493 36.7413 546.45 36.4427 546.365 36.016C546.28 35.5893 546.237 35.2053 546.237 34.864C546.237 30.768 547.432 27.056 549.821 23.728C552.21 20.4 555.453 17.456 559.549 14.896C563.73 12.336 568.424 10.2027 573.629 8.49599C578.92 6.78933 584.466 5.50933 590.269 4.656C596.072 3.80267 601.789 3.376 607.421 3.376C612.456 3.376 617.576 3.80267 622.781 4.656C628.072 5.424 632.936 6.91733 637.373 9.13599C641.81 11.2693 645.352 14.2987 647.997 18.224C650.728 22.1493 652.093 27.2267 652.093 33.456C652.093 40.2827 650.557 46.5973 647.485 52.4C644.498 58.2027 640.445 63.28 635.325 67.632C630.205 71.8987 624.488 75.2267 618.173 77.616C611.944 80.0053 605.586 81.2 599.101 81.2C594.749 81.2 590.525 80.6453 586.429 79.536C582.418 78.512 578.92 76.848 575.933 74.544C575.762 74.8 575.336 75.568 574.653 76.848C574.056 78.0427 573.288 79.3227 572.349 80.688C571.496 82.1387 570.557 83.376 569.533 84.4C568.594 85.5093 567.656 86.064 566.717 86.064ZM566.205 82.224C566.888 82.224 567.613 81.4987 568.381 80.048C569.149 78.6827 569.832 77.232 570.429 75.696C571.026 74.0747 571.41 73.0933 571.581 72.752C570.642 71.984 569.362 70.7467 567.741 69.04C566.205 67.3333 564.882 65.968 563.773 64.944C563.773 65.7973 563.773 67.7173 563.773 70.704C563.858 73.6907 564.157 76.6773 564.669 79.664C565.01 81.3707 565.522 82.224 566.205 82.224ZM669.266 79.536C667.815 79.536 666.535 79.1947 665.426 78.512C664.317 77.9147 663.549 76.72 663.122 74.928C662.866 73.9893 662.738 73.0507 662.738 72.112C662.738 69.552 663.378 67.0773 664.658 64.688C666.023 62.2133 667.602 59.952 669.394 57.904C671.186 55.7707 672.722 53.9787 674.002 52.528C674.685 51.8453 675.453 50.9493 676.306 49.84C677.245 48.7307 677.714 47.6213 677.714 46.512C677.714 45.8293 677.373 45.1893 676.69 44.592C676.007 43.9093 674.77 43.44 672.978 43.184C671.954 43.0133 670.973 42.8853 670.034 42.8C669.181 42.6293 668.285 42.544 667.346 42.544C664.957 45.7867 662.61 49.072 660.306 52.4C658.087 55.6427 655.698 58.8427 653.138 62C652.541 62.5973 652.029 62.896 651.602 62.896C651.09 62.896 650.834 62.64 650.834 62.128C650.834 61.616 651.09 61.104 651.602 60.592C656.21 54.96 660.178 48.944 663.506 42.544C663.079 42.544 662.439 42.544 661.586 42.544C660.733 42.4587 660.05 42.3733 659.538 42.288C658.941 42.1173 658.471 41.8613 658.13 41.52C657.789 41.1787 657.618 40.8373 657.618 40.496C657.618 39.984 657.831 39.6853 658.258 39.6C659.367 39.2587 660.562 38.7467 661.842 38.064C663.122 37.3813 664.317 36.4853 665.426 35.376C666.621 34.1813 667.73 32.944 668.754 31.664C669.778 30.2987 670.589 29.2747 671.186 28.592C671.783 28.1653 672.423 27.952 673.106 27.952C673.533 27.952 673.917 28.08 674.258 28.336C674.685 28.592 674.898 28.976 674.898 29.488C674.898 30.0853 674.642 30.8533 674.13 31.792C673.362 32.9867 672.509 34.3093 671.57 35.76C670.717 37.2107 669.906 38.5333 669.138 39.728C670.674 39.8133 672.21 39.8987 673.746 39.984C675.282 40.0693 676.861 40.112 678.482 40.112C679.335 40.112 680.146 40.112 680.914 40.112C681.767 40.0267 682.621 39.984 683.474 39.984C686.034 39.984 687.314 40.624 687.314 41.904C687.314 42.7573 686.845 43.824 685.906 45.104C685.053 46.2987 683.986 47.6213 682.706 49.072C679.805 52.4 677.33 55.8987 675.282 59.568C673.234 63.2373 671.869 66.0533 671.186 68.016C670.503 70.064 670.162 71.6 670.162 72.624C670.162 74.672 670.973 75.696 672.594 75.696C674.045 75.696 675.794 74.9707 677.842 73.52C679.975 72.0693 682.151 70.32 684.37 68.272C686.589 66.1387 688.594 64.0907 690.386 62.128C692.178 60.08 693.458 58.544 694.226 57.52C694.397 57.264 694.653 57.136 694.994 57.136C695.335 57.136 695.634 57.3067 695.89 57.648C696.146 57.904 696.146 58.2453 695.89 58.672C694.951 60.1227 693.586 61.9573 691.794 64.176C690.002 66.3093 687.997 68.4427 685.778 70.576C683.559 72.7093 681.383 74.544 679.25 76.08C678.141 76.9333 676.605 77.7013 674.642 78.384C672.765 79.152 670.973 79.536 669.266 79.536ZM704.268 79.92C700.428 79.92 697.1 79.024 694.284 77.232C691.468 75.44 690.06 72.7093 690.06 69.04C690.06 67.0773 690.657 64.688 691.852 61.872C692.705 59.9093 694.284 57.648 696.588 55.088C698.892 52.528 701.58 50.0533 704.652 47.664C707.724 45.1893 710.839 43.184 713.996 41.648C717.153 40.0267 720.012 39.216 722.572 39.216C723.511 39.216 724.364 39.344 725.132 39.6C726.583 40.112 727.564 40.9227 728.076 42.032C728.673 43.1413 728.972 44.2933 728.972 45.488C728.972 46.5973 728.801 47.664 728.46 48.688C728.119 49.712 727.692 50.608 727.18 51.376C725.644 53.68 723.425 55.728 720.524 57.52C717.708 59.312 714.807 60.72 711.82 61.744C708.919 62.768 706.529 63.3653 704.652 63.536H704.396C703.287 63.536 702.732 63.1947 702.732 62.512C702.732 62.0853 703.073 61.872 703.756 61.872C705.804 61.7013 708.364 60.7627 711.436 59.056C714.593 57.264 717.367 55.4293 719.756 53.552C720.78 52.6987 721.975 51.504 723.34 49.968C724.791 48.432 725.516 46.9387 725.516 45.488C725.516 43.952 724.791 43.184 723.34 43.184C722.572 43.184 721.761 43.3547 720.908 43.696C720.14 44.0373 719.5 44.2933 718.988 44.464C716.513 45.6587 713.783 47.536 710.796 50.096C707.809 52.5707 705.079 55.3867 702.604 58.544C700.215 61.616 698.551 64.7307 697.612 67.888C697.356 68.5707 697.185 69.2533 697.1 69.936C697.015 70.5333 696.972 71.1307 696.972 71.728C696.972 73.776 697.612 75.2267 698.892 76.08C700.257 76.9333 701.879 77.36 703.756 77.36C706.572 77.36 709.473 76.7627 712.46 75.568C715.447 74.288 718.348 72.6667 721.164 70.704C723.98 68.7413 726.54 66.6507 728.844 64.432C731.233 62.128 733.239 59.9093 734.86 57.776C735.116 57.4347 735.415 57.264 735.756 57.264C736.097 57.1787 736.311 57.2213 736.396 57.392C736.737 57.4773 736.908 57.7333 736.908 58.16C736.908 58.5013 736.823 58.8427 736.652 59.184C734.263 62.512 731.361 65.7547 727.948 68.912C724.62 72.0693 720.908 74.7147 716.812 76.848C712.801 78.896 708.62 79.92 704.268 79.92ZM769.207 79.28C767.756 79.28 766.391 78.9387 765.111 78.256C763.916 77.5733 763.02 76.2933 762.423 74.416C762.167 73.648 762.039 72.5813 762.039 71.216C762.039 69.3387 762.295 67.248 762.807 64.944C763.319 62.64 763.874 60.6773 764.471 59.056C764.044 59.2267 763.234 59.9947 762.039 61.36C760.93 62.64 759.522 64.2187 757.815 66.096C756.194 67.888 754.359 69.7227 752.311 71.6C750.348 73.392 748.3 74.8853 746.167 76.08C744.034 77.2747 741.943 77.872 739.895 77.872C738.53 77.872 737.079 77.488 735.543 76.72C734.007 75.8667 732.77 74.8 731.831 73.52C730.551 71.8133 729.911 70.064 729.911 68.272C729.911 65.968 730.679 63.5787 732.215 61.104C733.836 58.6293 735.884 56.24 738.359 53.936C740.919 51.5467 743.607 49.4133 746.423 47.536C749.324 45.5733 752.055 43.952 754.615 42.672C757.26 41.3067 759.394 40.4107 761.015 39.984C762.722 39.472 764.642 39.216 766.775 39.216C767.97 39.216 769.207 39.3867 770.487 39.728C771.767 39.984 772.834 40.4533 773.687 41.136C774.37 41.4773 774.924 41.9467 775.351 42.544C775.778 43.1413 775.991 43.7813 775.991 44.464C775.991 45.1467 775.692 45.36 775.095 45.104C774.412 44.08 773.474 43.44 772.279 43.184C771.17 42.8427 770.018 42.672 768.823 42.672C765.41 42.672 761.655 43.7813 757.559 46C753.463 48.2187 749.794 50.8213 746.551 53.808C745.527 54.6613 744.119 56.1547 742.327 58.288C740.62 60.336 739.042 62.5973 737.591 65.072C736.14 67.5467 735.415 69.808 735.415 71.856C735.415 72.9653 735.714 73.9467 736.311 74.8C736.652 75.3973 737.207 75.696 737.975 75.696C739.17 75.696 740.748 75.056 742.711 73.776C744.759 72.496 746.85 70.96 748.983 69.168C751.116 67.2907 753.036 65.4987 754.743 63.792C756.535 62.0853 757.815 60.848 758.583 60.08C759.01 59.6533 759.82 58.8 761.015 57.52C762.295 56.1547 763.66 54.704 765.111 53.168C766.562 51.632 767.842 50.3093 768.951 49.2C770.146 48.0907 770.914 47.536 771.255 47.536C771.682 47.536 772.364 47.664 773.303 47.92C774.327 48.0907 775.18 48.3893 775.863 48.816C776.546 49.2427 776.674 49.7973 776.247 50.48C774.028 53.7227 772.236 57.136 770.871 60.72C769.591 64.2187 768.823 66.992 768.567 69.04C768.482 69.3813 768.439 69.7227 768.439 70.064C768.439 70.32 768.439 70.6187 768.439 70.96C768.439 74.3733 769.634 76.08 772.023 76.08C773.303 76.08 775.01 75.312 777.143 73.776C779.276 72.24 781.452 70.4053 783.671 68.272C785.89 66.1387 787.895 64.0907 789.687 62.128C791.564 60.08 792.844 58.544 793.527 57.52C793.783 57.264 794.039 57.136 794.295 57.136C794.636 57.136 794.935 57.3067 795.191 57.648C795.447 57.904 795.447 58.2453 795.191 58.672C794.252 60.208 792.887 62.0427 791.095 64.176C789.303 66.3093 787.298 68.4427 785.079 70.576C782.86 72.7093 780.684 74.544 778.551 76.08C777.442 76.9333 776.034 77.6587 774.327 78.256C772.62 78.9387 770.914 79.28 769.207 79.28ZM789.319 79.664C788.636 79.664 788.423 79.3653 788.679 78.768C789.02 78.1707 789.618 76.6773 790.471 74.288C791.41 71.8133 792.434 68.912 793.543 65.584C794.738 62.256 795.89 59.056 796.999 55.984C796.146 57.264 795.207 58.5013 794.183 59.696C793.244 60.8907 792.434 61.872 791.751 62.64C791.495 62.896 791.324 63.024 791.239 63.024C790.983 63.024 790.855 62.768 790.855 62.256C790.855 61.232 791.111 60.2933 791.623 59.44C793.415 57.136 794.78 55.344 795.719 54.064C796.658 52.6987 797.426 51.504 798.023 50.48C798.706 49.3707 799.388 48.1333 800.071 46.768C800.242 45.8293 800.54 44.6773 800.967 43.312C801.479 41.9467 802.631 41.264 804.423 41.264C807.068 41.264 808.391 41.8187 808.391 42.928C808.391 43.2693 808.306 43.6533 808.135 44.08C807.964 44.4213 807.794 44.8053 807.623 45.232C806.599 47.536 805.49 50.1813 804.295 53.168C803.1 56.1547 801.991 58.9707 800.967 61.616C800.028 64.2613 799.303 66.3093 798.791 67.76C799.73 66.5653 801.138 64.9013 803.015 62.768C804.892 60.5493 807.026 58.16 809.415 55.6C811.89 52.9547 814.407 50.48 816.967 48.176C819.612 45.7867 822.087 43.824 824.391 42.288C826.695 40.752 828.658 39.984 830.279 39.984C832.242 39.984 833.223 41.0933 833.223 43.312C833.223 45.0187 832.54 47.2373 831.175 49.968C830.578 51.248 829.767 52.9973 828.743 55.216C827.719 57.3493 826.908 58.9707 826.311 60.08C827.847 58.7147 829.596 57.2213 831.559 55.6C833.522 53.8933 835.57 52.3147 837.703 50.864C839.922 49.4133 841.97 48.3467 843.847 47.664C844.274 47.4933 845.127 47.2373 846.407 46.896C847.687 46.4693 848.796 46.256 849.735 46.256C851.015 46.256 851.655 46.6827 851.655 47.536C851.655 48.1333 851.356 48.7733 850.759 49.456C849.308 51.6747 847.986 54.064 846.791 56.624C845.682 59.0987 844.786 61.4453 844.103 63.664C843.42 65.8827 842.994 67.6747 842.823 69.04C842.738 69.3813 842.695 69.7227 842.695 70.064C842.695 70.32 842.695 70.6187 842.695 70.96C842.695 74.3733 843.804 76.08 846.023 76.08C847.388 76.08 849.138 75.3547 851.271 73.904C853.404 72.368 855.58 70.5333 857.799 68.4C860.018 66.1813 862.023 64.0907 863.815 62.128C865.692 60.08 866.972 58.544 867.655 57.52C867.911 57.264 868.167 57.136 868.423 57.136C868.764 57.136 869.02 57.264 869.191 57.52C869.447 57.776 869.49 58.1173 869.319 58.544C868.551 59.9947 867.228 61.8293 865.351 64.048C863.559 66.1813 861.511 68.3573 859.207 70.576C856.988 72.7093 854.812 74.544 852.679 76.08C851.57 76.9333 850.162 77.6587 848.455 78.256C846.834 78.9387 845.17 79.28 843.463 79.28C841.927 79.28 840.519 78.9387 839.239 78.256C838.044 77.5733 837.148 76.2933 836.551 74.416C836.295 73.648 836.167 72.6667 836.167 71.472C836.167 69.5947 836.423 67.4613 836.935 65.072C837.447 62.6827 838.002 60.6773 838.599 59.056C839.026 57.8613 839.58 56.5387 840.263 55.088C841.031 53.552 841.714 52.272 842.311 51.248C839.666 52.272 837.106 53.808 834.631 55.856C832.156 57.904 829.895 59.9947 827.847 62.128C825.884 64.176 824.22 65.8827 822.855 67.248C822.514 68.1867 821.831 68.9547 820.807 69.552C819.868 70.1493 818.972 70.448 818.119 70.448C816.839 70.448 816.199 69.8933 816.199 68.784C816.199 68.3573 816.327 67.8453 816.583 67.248C817.436 65.2 818.375 63.1093 819.399 60.976C820.508 58.7573 821.49 56.752 822.343 54.96C823.282 53.168 823.922 51.9307 824.263 51.248C824.946 50.0533 825.287 49.1147 825.287 48.432C825.287 47.7493 824.988 47.408 824.391 47.408C823.794 47.408 822.812 47.792 821.447 48.56C820.082 49.328 818.29 50.6933 816.071 52.656C814.279 54.2773 812.316 56.4107 810.183 59.056C808.05 61.616 806.002 64.2613 804.039 66.992C802.076 69.7227 800.327 72.0693 798.791 74.032C797.34 75.9947 796.316 77.1467 795.719 77.488C795.207 77.744 794.183 78.1707 792.647 78.768C791.196 79.3653 790.087 79.664 789.319 79.664ZM909.224 79.408C907.688 79.664 906.152 79.792 904.616 79.792C900.861 79.792 897.747 78.896 895.272 77.104C892.797 75.312 891.56 72.7093 891.56 69.296C891.56 67.248 892.157 64.7733 893.352 61.872C894.205 59.9093 895.784 57.648 898.088 55.088C900.392 52.528 903.08 50.0533 906.152 47.664C909.224 45.1893 912.339 43.184 915.496 41.648C918.653 40.0267 921.512 39.216 924.072 39.216C925.011 39.216 925.864 39.344 926.632 39.6C927.571 39.9413 928.381 40.4107 929.064 41.008C929.747 41.6053 930.088 42.5013 930.088 43.696C930.088 43.952 930.088 44.208 930.088 44.464C930.088 44.72 930.003 45.0187 929.832 45.36C929.832 45.616 929.619 46.1707 929.192 47.024C928.851 47.8773 928.424 48.6453 927.912 49.328C927.485 49.9253 927.101 50.0533 926.76 49.712C926.419 49.456 926.248 49.1147 926.248 48.688C926.248 48.2613 926.333 47.792 926.504 47.28C926.76 46.6827 926.888 46.1707 926.888 45.744C926.888 45.1467 926.717 44.592 926.376 44.08C926.12 43.4827 925.651 43.184 924.968 43.184C923.347 43.184 921.256 43.9093 918.696 45.36C916.136 46.8107 913.491 48.7733 910.76 51.248C908.115 53.6373 905.725 56.2827 903.592 59.184C901.459 62.0853 899.965 64.9867 899.112 67.888C898.856 68.5707 898.685 69.2533 898.6 69.936C898.515 70.5333 898.472 71.1307 898.472 71.728C898.472 73.6053 899.069 74.9707 900.264 75.824C901.544 76.592 903.08 76.976 904.872 76.976C906.835 76.976 908.84 76.6773 910.888 76.08C916.691 74.3733 921.384 72.0267 924.968 69.04C928.637 66.0533 932.307 62.2133 935.976 57.52C936.317 57.0933 936.616 56.9227 936.872 57.008C937.128 57.0933 937.341 57.136 937.512 57.136C937.768 57.2213 937.896 57.4773 937.896 57.904C937.896 58.0747 937.853 58.288 937.768 58.544C937.683 58.8 937.597 59.0133 937.512 59.184C933.843 64.1333 929.789 68.4853 925.352 72.24C920.915 75.9093 915.539 78.2987 909.224 79.408ZM943.979 79.408C941.59 79.408 939.499 78.8533 937.707 77.744C934.72 75.952 933.227 72.7093 933.227 68.016C933.227 66.0533 933.568 63.792 934.251 61.232C934.848 59.0987 935.915 56.7947 937.451 54.32C938.987 51.76 940.779 49.328 942.827 47.024C944.96 44.72 947.264 42.8427 949.739 41.392C952.214 39.9413 954.688 39.216 957.163 39.216C958.187 39.216 959.083 39.344 959.851 39.6C960.875 39.9413 961.728 40.5813 962.411 41.52C963.179 42.3733 963.563 43.4827 963.563 44.848C963.563 46.2987 963.179 47.1093 962.411 47.28C961.728 47.4507 961.387 47.28 961.387 46.768C961.387 46.5973 961.387 46.4267 961.387 46.256C961.472 46.0853 961.515 45.9573 961.515 45.872C961.515 45.1893 961.302 44.592 960.875 44.08C960.534 43.4827 959.851 43.184 958.827 43.184C957.462 43.184 955.755 43.9093 953.707 45.36C951.744 46.8107 949.696 48.7733 947.563 51.248C945.515 53.6373 943.68 56.2827 942.059 59.184C940.523 62.0853 939.499 64.9867 938.987 67.888C938.902 68.3147 938.816 68.7413 938.731 69.168C938.731 69.5093 938.731 69.8933 938.731 70.32C938.731 72.2827 939.158 73.9467 940.011 75.312C940.95 76.592 942.4 77.232 944.363 77.232C946.752 77.232 949.056 76.336 951.275 74.544C953.494 72.6667 955.456 70.448 957.163 67.888C958.955 65.328 960.278 63.0667 961.131 61.104C961.814 59.568 962.283 58.2453 962.539 57.136C962.795 56.0267 962.923 55.088 962.923 54.32C962.923 53.6373 962.838 53.04 962.667 52.528C962.582 52.016 962.454 51.5893 962.283 51.248C962.112 50.736 962.027 50.352 962.027 50.096C962.027 49.4133 962.283 48.8587 962.795 48.432C963.392 48.0053 963.99 47.792 964.587 47.792C965.099 47.792 965.654 47.9627 966.251 48.304C966.934 48.4747 967.872 48.6027 969.067 48.688C970.262 48.7733 971.542 48.816 972.907 48.816C974.358 48.816 975.808 48.7733 977.259 48.688C978.795 48.6027 980.118 48.432 981.227 48.176C981.398 48.0907 981.654 48.048 981.995 48.048C982.592 48.048 982.891 48.2187 982.891 48.56C982.891 48.9013 982.592 49.2 981.995 49.456C979.008 50.8213 976.32 51.5467 973.931 51.632C971.627 51.7173 969.622 51.76 967.915 51.76C968.086 53.8933 967.616 56.1973 966.507 58.672C965.398 61.0613 964.246 63.1947 963.051 65.072C961.6 67.2053 959.936 69.3813 958.059 71.6C956.182 73.8187 954.091 75.696 951.787 77.232C949.483 78.6827 946.88 79.408 943.979 79.408ZM976.694 79.664C976.011 79.664 975.798 79.3653 976.054 78.768C976.395 78.1707 976.993 76.6773 977.846 74.288C978.785 71.8133 979.809 68.912 980.918 65.584C982.113 62.256 983.265 59.056 984.374 55.984C983.521 57.264 982.582 58.5013 981.558 59.696C980.619 60.8907 979.809 61.872 979.126 62.64C978.87 62.896 978.699 63.024 978.614 63.024C978.358 63.024 978.23 62.768 978.23 62.256C978.23 61.232 978.486 60.2933 978.998 59.44C980.79 57.136 982.155 55.344 983.094 54.064C984.033 52.6987 984.801 51.504 985.398 50.48C986.081 49.3707 986.763 48.1333 987.446 46.768C987.617 45.8293 987.915 44.6773 988.342 43.312C988.854 41.9467 990.006 41.264 991.798 41.264C994.443 41.264 995.766 41.8187 995.766 42.928C995.766 43.2693 995.681 43.6533 995.51 44.08C995.339 44.4213 995.169 44.8053 994.998 45.232C993.974 47.536 992.865 50.1813 991.67 53.168C990.475 56.1547 989.366 58.9707 988.342 61.616C987.403 64.2613 986.678 66.3093 986.166 67.76C987.105 66.5653 988.513 64.9013 990.39 62.768C992.267 60.5493 994.401 58.16 996.79 55.6C999.265 52.9547 1001.78 50.48 1004.34 48.176C1006.99 45.7867 1009.46 43.824 1011.77 42.288C1014.07 40.752 1016.03 39.984 1017.65 39.984C1019.62 39.984 1020.6 41.0933 1020.6 43.312C1020.6 45.0187 1019.92 47.2373 1018.55 49.968C1017.95 51.248 1017.14 52.9973 1016.12 55.216C1015.09 57.3493 1014.28 58.9707 1013.69 60.08C1015.22 58.7147 1016.97 57.2213 1018.93 55.6C1020.9 53.8933 1022.94 52.3147 1025.08 50.864C1027.3 49.4133 1029.34 48.3467 1031.22 47.664C1031.65 47.4933 1032.5 47.2373 1033.78 46.896C1035.06 46.4693 1036.17 46.256 1037.11 46.256C1038.39 46.256 1039.03 46.6827 1039.03 47.536C1039.03 48.1333 1038.73 48.7733 1038.13 49.456C1036.68 51.6747 1035.36 54.064 1034.17 56.624C1033.06 59.0987 1032.16 61.4453 1031.48 63.664C1030.8 65.8827 1030.37 67.6747 1030.2 69.04C1030.11 69.3813 1030.07 69.7227 1030.07 70.064C1030.07 70.32 1030.07 70.6187 1030.07 70.96C1030.07 74.3733 1031.18 76.08 1033.4 76.08C1034.76 76.08 1036.51 75.3547 1038.65 73.904C1040.78 72.368 1042.96 70.5333 1045.17 68.4C1047.39 66.1813 1049.4 64.0907 1051.19 62.128C1053.07 60.08 1054.35 58.544 1055.03 57.52C1055.29 57.264 1055.54 57.136 1055.8 57.136C1056.14 57.136 1056.4 57.264 1056.57 57.52C1056.82 57.776 1056.86 58.1173 1056.69 58.544C1055.93 59.9947 1054.6 61.8293 1052.73 64.048C1050.93 66.1813 1048.89 68.3573 1046.58 70.576C1044.36 72.7093 1042.19 74.544 1040.05 76.08C1038.94 76.9333 1037.54 77.6587 1035.83 78.256C1034.21 78.9387 1032.54 79.28 1030.84 79.28C1029.3 79.28 1027.89 78.9387 1026.61 78.256C1025.42 77.5733 1024.52 76.2933 1023.93 74.416C1023.67 73.648 1023.54 72.6667 1023.54 71.472C1023.54 69.5947 1023.8 67.4613 1024.31 65.072C1024.82 62.6827 1025.38 60.6773 1025.97 59.056C1026.4 57.8613 1026.96 56.5387 1027.64 55.088C1028.41 53.552 1029.09 52.272 1029.69 51.248C1027.04 52.272 1024.48 53.808 1022.01 55.856C1019.53 57.904 1017.27 59.9947 1015.22 62.128C1013.26 64.176 1011.6 65.8827 1010.23 67.248C1009.89 68.1867 1009.21 68.9547 1008.18 69.552C1007.24 70.1493 1006.35 70.448 1005.49 70.448C1004.21 70.448 1003.57 69.8933 1003.57 68.784C1003.57 68.3573 1003.7 67.8453 1003.96 67.248C1004.81 65.2 1005.75 63.1093 1006.77 60.976C1007.88 58.7573 1008.86 56.752 1009.72 54.96C1010.66 53.168 1011.3 51.9307 1011.64 51.248C1012.32 50.0533 1012.66 49.1147 1012.66 48.432C1012.66 47.7493 1012.36 47.408 1011.77 47.408C1011.17 47.408 1010.19 47.792 1008.82 48.56C1007.46 49.328 1005.66 50.6933 1003.45 52.656C1001.65 54.2773 999.691 56.4107 997.558 59.056C995.425 61.616 993.377 64.2613 991.414 66.992C989.451 69.7227 987.702 72.0693 986.166 74.032C984.715 75.9947 983.691 77.1467 983.094 77.488C982.582 77.744 981.558 78.1707 980.022 78.768C978.571 79.3653 977.462 79.664 976.694 79.664ZM1065.14 79.92C1061.3 79.92 1057.98 79.024 1055.16 77.232C1052.34 75.44 1050.94 72.7093 1050.94 69.04C1050.94 67.0773 1051.53 64.688 1052.73 61.872C1053.58 59.9093 1055.16 57.648 1057.46 55.088C1059.77 52.528 1062.46 50.0533 1065.53 47.664C1068.6 45.1893 1071.71 43.184 1074.87 41.648C1078.03 40.0267 1080.89 39.216 1083.45 39.216C1084.39 39.216 1085.24 39.344 1086.01 39.6C1087.46 40.112 1088.44 40.9227 1088.95 42.032C1089.55 43.1413 1089.85 44.2933 1089.85 45.488C1089.85 46.5973 1089.68 47.664 1089.34 48.688C1088.99 49.712 1088.57 50.608 1088.06 51.376C1086.52 53.68 1084.3 55.728 1081.4 57.52C1078.58 59.312 1075.68 60.72 1072.7 61.744C1069.79 62.768 1067.4 63.3653 1065.53 63.536H1065.27C1064.16 63.536 1063.61 63.1947 1063.61 62.512C1063.61 62.0853 1063.95 61.872 1064.63 61.872C1066.68 61.7013 1069.24 60.7627 1072.31 59.056C1075.47 57.264 1078.24 55.4293 1080.63 53.552C1081.66 52.6987 1082.85 51.504 1084.22 49.968C1085.67 48.432 1086.39 46.9387 1086.39 45.488C1086.39 43.952 1085.67 43.184 1084.22 43.184C1083.45 43.184 1082.64 43.3547 1081.78 43.696C1081.02 44.0373 1080.38 44.2933 1079.86 44.464C1077.39 45.6587 1074.66 47.536 1071.67 50.096C1068.68 52.5707 1065.95 55.3867 1063.48 58.544C1061.09 61.616 1059.43 64.7307 1058.49 67.888C1058.23 68.5707 1058.06 69.2533 1057.98 69.936C1057.89 70.5333 1057.85 71.1307 1057.85 71.728C1057.85 73.776 1058.49 75.2267 1059.77 76.08C1061.13 76.9333 1062.75 77.36 1064.63 77.36C1067.45 77.36 1070.35 76.7627 1073.34 75.568C1076.32 74.288 1079.22 72.6667 1082.04 70.704C1084.86 68.7413 1087.42 66.6507 1089.72 64.432C1092.11 62.128 1094.11 59.9093 1095.74 57.776C1095.99 57.4347 1096.29 57.264 1096.63 57.264C1096.97 57.1787 1097.19 57.2213 1097.27 57.392C1097.61 57.4773 1097.78 57.7333 1097.78 58.16C1097.78 58.5013 1097.7 58.8427 1097.53 59.184C1095.14 62.512 1092.24 65.7547 1088.82 68.912C1085.5 72.0693 1081.78 74.7147 1077.69 76.848C1073.68 78.896 1069.5 79.92 1065.14 79.92ZM1095.78 84.4C1094.84 84.4 1093.9 84.272 1092.96 84.016C1092.02 83.76 1091.34 83.248 1090.91 82.48C1090.57 81.7973 1090.62 80.944 1091.04 79.92C1091.47 78.9813 1092.07 78.128 1092.83 77.36C1093.52 76.6773 1094.37 75.9947 1095.39 75.312C1096.5 74.6293 1097.66 74.0747 1098.85 73.648H1099.11C1099.53 73.648 1099.75 73.8187 1099.75 74.16C1099.75 74.416 1099.58 74.672 1099.23 74.928C1097.7 75.696 1096.5 76.6347 1095.65 77.744C1095.05 78.4267 1094.75 79.152 1094.75 79.92C1094.75 81.2853 1095.56 81.968 1097.19 81.968C1098.98 81.968 1100.9 81.4133 1102.95 80.304C1105.08 79.28 1107.08 77.9147 1108.96 76.208C1110.92 74.416 1112.5 72.5387 1113.7 70.576C1114.89 68.6133 1115.49 66.736 1115.49 64.944C1115.49 63.7493 1114.85 62.6827 1113.57 61.744C1112.29 60.72 1110.88 59.824 1109.35 59.056C1107.81 58.2027 1106.66 57.52 1105.89 57.008C1104.95 56.3253 1104.1 55.6427 1103.33 54.96C1102.56 54.192 1101.96 53.3813 1101.54 52.528C1100.86 53.7227 1099.96 55.1733 1098.85 56.88C1097.83 58.5013 1096.59 60.208 1095.14 62C1094.63 62.512 1094.11 62.768 1093.6 62.768C1093.09 62.768 1092.83 62.5547 1092.83 62.128C1092.83 61.872 1093.05 61.4453 1093.47 60.848C1095.78 58.1173 1097.48 55.6 1098.59 53.296C1099.7 50.992 1100.47 49.2427 1100.9 48.048C1101.24 45.5733 1102.39 43.2267 1104.35 41.008C1106.32 38.7893 1108.71 36.8693 1111.52 35.248C1114.34 33.5413 1117.2 32.2187 1120.1 31.28C1123.08 30.3413 1125.73 29.872 1128.03 29.872C1130.34 29.872 1132.39 30.2987 1134.18 31.152C1135.97 32.0053 1136.87 33.3707 1136.87 35.248C1136.87 36.272 1136.57 37.3813 1135.97 38.576C1135.2 40.1973 1133.92 41.648 1132.13 42.928C1132.04 43.0133 1131.92 43.056 1131.75 43.056C1131.06 43.056 1130.72 42.7573 1130.72 42.16C1130.72 41.7333 1130.94 41.3067 1131.36 40.88C1132.04 40.2827 1132.6 39.5573 1133.03 38.704C1133.45 37.8507 1133.67 37.04 1133.67 36.272C1133.67 34.736 1132.77 33.968 1130.98 33.968C1129.7 33.968 1128.2 34.224 1126.5 34.736C1124.79 35.1627 1123.13 35.7173 1121.51 36.4C1119.97 36.9973 1118.69 37.552 1117.67 38.064C1115.53 39.088 1113.57 40.368 1111.78 41.904C1109.99 43.3547 1108.28 45.1893 1106.66 47.408C1105.55 48.8587 1104.99 50.224 1104.99 51.504C1104.99 53.04 1106.02 54.448 1108.07 55.728C1110.2 56.9227 1112.29 58.0747 1114.34 59.184C1116.47 60.2933 1118.26 61.488 1119.71 62.768C1121.16 64.048 1121.89 65.584 1121.89 67.376C1121.89 69.3387 1120.65 71.6853 1118.18 74.416C1116.64 76.1227 1114.55 77.744 1111.91 79.28C1109.35 80.816 1106.62 82.0533 1103.71 82.992C1100.81 83.9307 1098.17 84.4 1095.78 84.4ZM1166.52 79.28C1164.98 79.28 1163.57 78.9387 1162.29 78.256C1161.1 77.5733 1160.2 76.2933 1159.61 74.416C1159.52 74.16 1159.43 73.904 1159.35 73.648C1159.35 73.392 1159.35 73.0933 1159.35 72.752C1159.35 71.0453 1159.73 68.912 1160.5 66.352C1161.27 63.792 1162.21 61.3173 1163.32 58.928C1162.81 59.6107 1162.21 60.464 1161.53 61.488C1160.84 62.4267 1159.86 63.664 1158.58 65.2C1158.24 65.5413 1157.86 65.712 1157.43 65.712C1156.83 65.712 1156.53 65.3707 1156.53 64.688C1156.53 64.176 1156.7 63.7493 1157.05 63.408C1159.26 60.592 1161.23 58.0747 1162.93 55.856C1164.73 53.6373 1166.05 51.76 1166.9 50.224C1166.9 50.0533 1167.16 49.5413 1167.67 48.688C1168.18 47.7493 1168.86 46.4693 1169.72 44.848C1169.03 44.9333 1168.44 45.0187 1167.93 45.104C1167.5 45.104 1167.11 45.104 1166.77 45.104C1166.18 45.104 1165.66 44.848 1165.24 44.336C1164.81 43.824 1164.77 43.184 1165.11 42.416C1165.54 41.2213 1166.47 40.5387 1167.93 40.368C1169.38 40.1973 1170.66 40.0693 1171.77 39.984C1171.85 39.8133 1172.02 39.728 1172.28 39.728C1173.3 37.8507 1174.28 36.016 1175.22 34.224C1176.16 32.432 1176.93 30.9387 1177.53 29.744C1178.21 28.5493 1178.55 27.9093 1178.55 27.824C1180.26 25.0933 1181.37 23.3013 1181.88 22.448C1182.39 21.5093 1183.07 20.9547 1183.93 20.784C1184.86 20.6987 1185.85 20.7413 1186.87 20.912C1187.98 21.0827 1188.7 21.4667 1189.05 22.064C1189.3 22.4053 1189.43 22.832 1189.43 23.344C1189.43 24.112 1189.26 24.88 1188.92 25.648C1188.58 26.3307 1188.23 26.8853 1187.89 27.312C1187.55 27.9093 1187.08 28.336 1186.49 28.592C1185.97 28.7627 1185.5 29.2747 1185.08 30.128C1184.22 31.7493 1183.29 33.4987 1182.26 35.376C1181.24 37.2533 1180.17 39.0453 1179.06 40.752L1180.6 40.624C1182.65 40.4533 1184.57 40.24 1186.36 39.984C1188.23 39.728 1190.37 39.6427 1192.76 39.728C1193.18 39.728 1193.61 39.8133 1194.04 39.984C1194.55 40.0693 1194.81 40.24 1194.81 40.496C1194.81 40.8373 1193.7 41.3067 1191.48 41.904C1190.62 42.2453 1188.75 42.6293 1185.85 43.056C1183.03 43.3973 1180.13 43.7387 1177.14 44.08C1176.29 45.7013 1175.52 47.0667 1174.84 48.176C1174.15 49.2 1173.69 49.968 1173.43 50.48C1171.55 54.4053 1169.85 57.9893 1168.31 61.232C1166.86 64.3893 1166.05 66.992 1165.88 69.04C1165.79 69.3813 1165.75 69.7227 1165.75 70.064C1165.75 70.32 1165.75 70.6187 1165.75 70.96C1165.75 74.3733 1166.86 76.08 1169.08 76.08C1170.44 76.08 1172.19 75.3547 1174.33 73.904C1176.46 72.368 1178.63 70.5333 1180.85 68.4C1183.07 66.1813 1185.08 64.0907 1186.87 62.128C1188.75 60.08 1190.03 58.544 1190.71 57.52C1190.97 57.264 1191.22 57.136 1191.48 57.136C1191.82 57.136 1192.07 57.264 1192.25 57.52C1192.5 57.776 1192.54 58.1173 1192.37 58.544C1191.61 59.9947 1190.28 61.8293 1188.41 64.048C1186.61 66.1813 1184.57 68.3573 1182.26 70.576C1180.04 72.7093 1177.87 74.544 1175.73 76.08C1174.62 76.9333 1173.22 77.6587 1171.51 78.256C1169.89 78.9387 1168.22 79.28 1166.52 79.28ZM1206.02 79.536C1204.57 79.536 1203.29 79.1947 1202.18 78.512C1201.07 77.9147 1200.3 76.72 1199.87 74.928C1199.62 73.9893 1199.49 73.0507 1199.49 72.112C1199.49 69.552 1200.13 67.0773 1201.41 64.688C1202.77 62.2133 1204.35 59.952 1206.14 57.904C1207.94 55.7707 1209.47 53.9787 1210.75 52.528C1211.43 51.8453 1212.2 50.9493 1213.06 49.84C1213.99 48.7307 1214.46 47.6213 1214.46 46.512C1214.46 45.8293 1214.12 45.1893 1213.44 44.592C1212.76 43.9093 1211.52 43.44 1209.73 43.184C1208.7 43.0133 1207.72 42.8853 1206.78 42.8C1205.93 42.6293 1205.03 42.544 1204.1 42.544C1201.71 45.7867 1199.36 49.072 1197.06 52.4C1194.84 55.6427 1192.45 58.8427 1189.89 62C1189.29 62.5973 1188.78 62.896 1188.35 62.896C1187.84 62.896 1187.58 62.64 1187.58 62.128C1187.58 61.616 1187.84 61.104 1188.35 60.592C1192.96 54.96 1196.93 48.944 1200.26 42.544C1199.83 42.544 1199.19 42.544 1198.34 42.544C1197.48 42.4587 1196.8 42.3733 1196.29 42.288C1195.69 42.1173 1195.22 41.8613 1194.88 41.52C1194.54 41.1787 1194.37 40.8373 1194.37 40.496C1194.37 39.984 1194.58 39.6853 1195.01 39.6C1196.12 39.2587 1197.31 38.7467 1198.59 38.064C1199.87 37.3813 1201.07 36.4853 1202.18 35.376C1203.37 34.1813 1204.48 32.944 1205.5 31.664C1206.53 30.2987 1207.34 29.2747 1207.94 28.592C1208.53 28.1653 1209.17 27.952 1209.86 27.952C1210.28 27.952 1210.67 28.08 1211.01 28.336C1211.43 28.592 1211.65 28.976 1211.65 29.488C1211.65 30.0853 1211.39 30.8533 1210.88 31.792C1210.11 32.9867 1209.26 34.3093 1208.32 35.76C1207.47 37.2107 1206.66 38.5333 1205.89 39.728C1207.42 39.8133 1208.96 39.8987 1210.5 39.984C1212.03 40.0693 1213.61 40.112 1215.23 40.112C1216.09 40.112 1216.9 40.112 1217.66 40.112C1218.52 40.0267 1219.37 39.984 1220.22 39.984C1222.78 39.984 1224.06 40.624 1224.06 41.904C1224.06 42.7573 1223.59 43.824 1222.66 45.104C1221.8 46.2987 1220.74 47.6213 1219.46 49.072C1216.55 52.4 1214.08 55.8987 1212.03 59.568C1209.98 63.2373 1208.62 66.0533 1207.94 68.016C1207.25 70.064 1206.91 71.6 1206.91 72.624C1206.91 74.672 1207.72 75.696 1209.34 75.696C1210.79 75.696 1212.54 74.9707 1214.59 73.52C1216.73 72.0693 1218.9 70.32 1221.12 68.272C1223.34 66.1387 1225.34 64.0907 1227.14 62.128C1228.93 60.08 1230.21 58.544 1230.98 57.52C1231.15 57.264 1231.4 57.136 1231.74 57.136C1232.09 57.136 1232.38 57.3067 1232.64 57.648C1232.9 57.904 1232.9 58.2453 1232.64 58.672C1231.7 60.1227 1230.34 61.9573 1228.54 64.176C1226.75 66.3093 1224.75 68.4427 1222.53 70.576C1220.31 72.7093 1218.13 74.544 1216 76.08C1214.89 76.9333 1213.35 77.7013 1211.39 78.384C1209.51 79.152 1207.72 79.536 1206.02 79.536ZM1263.55 79.28C1262.01 79.28 1260.64 78.9387 1259.45 78.256C1258.26 77.5733 1257.36 76.2933 1256.76 74.416C1256.68 73.9893 1256.55 73.52 1256.38 73.008C1256.29 72.4107 1256.25 71.8133 1256.25 71.216C1256.25 69.168 1256.51 66.864 1257.02 64.304C1257.62 61.744 1258.26 59.6107 1258.94 57.904C1258.6 58.16 1258 59.0133 1257.15 60.464C1256.29 61.9147 1255.23 63.6213 1253.95 65.584C1252.67 67.4613 1251.22 69.3813 1249.59 71.344C1248.06 73.2213 1246.35 74.8 1244.47 76.08C1242.68 77.2747 1240.76 77.872 1238.71 77.872C1237.35 77.872 1235.68 77.488 1233.72 76.72C1231.84 75.952 1230.48 74.8853 1229.63 73.52C1228.77 72.1547 1228.35 70.448 1228.35 68.4C1228.35 65.9253 1228.9 63.2373 1230.01 60.336C1231.12 57.3493 1232.53 54.576 1234.23 52.016C1234.83 51.1627 1235.51 50.1387 1236.28 48.944C1237.05 47.7493 1237.82 46.7253 1238.59 45.872C1239.35 44.9333 1239.91 44.4213 1240.25 44.336C1241.27 43.9947 1242.47 43.824 1243.83 43.824C1245.28 43.824 1246.35 43.9947 1247.03 44.336C1247.63 44.592 1247.93 44.8907 1247.93 45.232C1247.93 45.6587 1247.59 46.2133 1246.91 46.896C1245.97 47.7493 1244.69 49.0293 1243.07 50.736C1241.44 52.4427 1239.82 54.4907 1238.2 56.88C1236.67 59.2693 1235.39 61.9147 1234.36 64.816C1233.51 67.12 1233.08 69.1253 1233.08 70.832C1233.08 73.8187 1234.28 75.312 1236.67 75.312C1238.71 75.312 1240.89 74.4587 1243.19 72.752C1245.5 71.0453 1247.72 68.9547 1249.85 66.48C1252.07 64.0053 1254.03 61.5733 1255.74 59.184C1257.53 56.7093 1258.9 54.7467 1259.83 53.296C1260.69 52.1013 1261.63 50.5653 1262.65 48.688C1263.76 46.8107 1264.83 44.976 1265.85 43.184C1266.87 41.392 1267.68 40.0693 1268.28 39.216C1268.88 39.216 1269.78 39.344 1270.97 39.6C1272.25 39.7707 1273.32 40.112 1274.17 40.624C1275.11 41.136 1275.36 41.776 1274.94 42.544C1274.43 43.3973 1273.62 44.72 1272.51 46.512C1271.48 48.304 1270.42 50.1387 1269.31 52.016C1268.28 53.808 1267.47 55.2587 1266.87 56.368C1264.83 60.2933 1263.5 64.5173 1262.91 69.04C1262.82 69.3813 1262.78 69.7227 1262.78 70.064C1262.78 70.32 1262.78 70.6187 1262.78 70.96C1262.78 74.3733 1263.93 76.08 1266.23 76.08C1267.51 76.08 1269.22 75.312 1271.35 73.776C1273.49 72.24 1275.66 70.4053 1277.88 68.272C1280.19 66.1387 1282.23 64.0907 1284.03 62.128C1285.9 60.08 1287.18 58.544 1287.87 57.52C1288.04 57.264 1288.29 57.136 1288.63 57.136C1288.98 57.136 1289.23 57.264 1289.4 57.52C1289.66 57.776 1289.66 58.1173 1289.4 58.544C1288.63 59.9947 1287.31 61.8293 1285.43 64.048C1283.64 66.1813 1281.64 68.3573 1279.42 70.576C1277.2 72.7093 1275.02 74.544 1272.89 76.08C1271.78 76.9333 1270.37 77.6587 1268.67 78.256C1266.96 78.9387 1265.25 79.28 1263.55 79.28ZM1297.89 79.92C1294.05 79.92 1290.73 79.024 1287.91 77.232C1285.09 75.44 1283.69 72.7093 1283.69 69.04C1283.69 67.0773 1284.28 64.688 1285.48 61.872C1286.33 59.9093 1287.91 57.648 1290.21 55.088C1292.52 52.528 1295.21 50.0533 1298.28 47.664C1301.35 45.1893 1304.46 43.184 1307.62 41.648C1310.78 40.0267 1313.64 39.216 1316.2 39.216C1317.14 39.216 1317.99 39.344 1318.76 39.6C1320.21 40.112 1321.19 40.9227 1321.7 42.032C1322.3 43.1413 1322.6 44.2933 1322.6 45.488C1322.6 46.5973 1322.43 47.664 1322.09 48.688C1321.74 49.712 1321.32 50.608 1320.81 51.376C1319.27 53.68 1317.05 55.728 1314.15 57.52C1311.33 59.312 1308.43 60.72 1305.45 61.744C1302.54 62.768 1300.15 63.3653 1298.28 63.536H1298.02C1296.91 63.536 1296.36 63.1947 1296.36 62.512C1296.36 62.0853 1296.7 61.872 1297.38 61.872C1299.43 61.7013 1301.99 60.7627 1305.06 59.056C1308.22 57.264 1310.99 55.4293 1313.38 53.552C1314.41 52.6987 1315.6 51.504 1316.97 49.968C1318.42 48.432 1319.14 46.9387 1319.14 45.488C1319.14 43.952 1318.42 43.184 1316.97 43.184C1316.2 43.184 1315.39 43.3547 1314.53 43.696C1313.77 44.0373 1313.13 44.2933 1312.61 44.464C1310.14 45.6587 1307.41 47.536 1304.42 50.096C1301.43 52.5707 1298.7 55.3867 1296.23 58.544C1293.84 61.616 1292.18 64.7307 1291.24 67.888C1290.98 68.5707 1290.81 69.2533 1290.73 69.936C1290.64 70.5333 1290.6 71.1307 1290.6 71.728C1290.6 73.776 1291.24 75.2267 1292.52 76.08C1293.88 76.9333 1295.5 77.36 1297.38 77.36C1300.2 77.36 1303.1 76.7627 1306.09 75.568C1309.07 74.288 1311.97 72.6667 1314.79 70.704C1317.61 68.7413 1320.17 66.6507 1322.47 64.432C1324.86 62.128 1326.86 59.9093 1328.49 57.776C1328.74 57.4347 1329.04 57.264 1329.38 57.264C1329.72 57.1787 1329.94 57.2213 1330.02 57.392C1330.36 57.4773 1330.53 57.7333 1330.53 58.16C1330.53 58.5013 1330.45 58.8427 1330.28 59.184C1327.89 62.512 1324.99 65.7547 1321.57 68.912C1318.25 72.0693 1314.53 74.7147 1310.44 76.848C1306.43 78.896 1302.25 79.92 1297.89 79.92Z" fill="#CB3838" fill-opacity="0.37"/>
</svg>
