<svg width="216" height="60" viewBox="0 0 216 60" fill="none" xmlns="http://www.w3.org/2000/svg">
<circle cx="30" cy="30" r="29" fill="white" stroke="#5D5D5D" stroke-width="2"/>
<circle cx="108" cy="30" r="29" fill="#FFF0C4" stroke="#5D5D5D" stroke-width="2"/>
<circle cx="186" cy="30" r="29" fill="#FFC100" stroke="#5D5D5D" stroke-width="2"/>
<path d="M89.92 24.78V34.3H91.42V26.26H104.48V34.2H106.04V24.78H89.92ZM90.72 31.58V33.04H105.38V31.58H90.72ZM97.16 21.2V39.58H98.72V21.2H97.16ZM115.68 22.46V23.86H123.38V22.46H115.68ZM122.76 22.46V22.64C122.52 24.24 121.92 27.42 121.4 29.66L122.78 29.82C123.26 27.6 123.84 24.62 124.18 22.54L123.16 22.38L122.94 22.46H122.76ZM122.58 27.52L122.18 28.88H125.92V27.52H122.58ZM125.42 27.52V27.82C124.36 33.24 121.42 36.72 117.7 38.48C118.02 38.7 118.5 39.26 118.72 39.6C122.52 37.66 125.64 33.9 126.86 27.82L125.98 27.46L125.7 27.52H125.42ZM118.92 24.64L117.82 24.84C118.98 31.84 121.26 37.46 126.46 39.62C126.68 39.24 127.1 38.68 127.44 38.4C122.36 36.54 120.02 31.1 118.92 24.64ZM111.9 21.22C111.38 22.54 110.46 24.46 109.7 25.6L110.74 26.08C111.52 24.98 112.46 23.2 113.22 21.74L111.9 21.22ZM114.14 23.5C113.08 25.66 111.2 28.7 109.72 30.5L110.64 31.02C112.12 29.26 114.04 26.36 115.4 24.06L114.14 23.5ZM108.74 25.42C109.82 26.38 111.08 27.78 111.62 28.72L112.42 27.58C111.88 26.68 110.62 25.38 109.5 24.44L108.74 25.42ZM113.66 28.14C114.44 29.46 115.22 31.22 115.48 32.34L116.62 31.82C116.34 30.72 115.54 29 114.72 27.72L113.66 28.14ZM108.68 30.18L108.8 31.54C110.66 31.42 113.1 31.26 115.54 31.08L115.56 29.86C112.98 30 110.42 30.12 108.68 30.18ZM114 32.84C114.5 33.96 115 35.44 115.18 36.42L116.34 36.02C116.14 35.06 115.64 33.58 115.08 32.5L114 32.84ZM109.8 32.64C109.56 34.4 109.16 36.18 108.5 37.4C108.82 37.54 109.42 37.82 109.68 37.98C110.32 36.7 110.82 34.76 111.1 32.88L109.8 32.64ZM111.96 30.74V39.66H113.3V30.74H111.96ZM117.62 23.3V26.82C117.62 30.26 117.36 35.12 114.44 38.78C114.78 38.94 115.32 39.34 115.56 39.56C118.62 35.72 118.96 30.56 118.96 26.82V23.3H117.62Z" fill="#263238"/>
<path d="M175.4 27.68V29.18H183.62V27.68H175.4ZM167.02 37.16V38.66H184.98V37.16H167.02ZM174.54 21.5V37.96H176.12V21.5H174.54ZM193.68 22.46V23.86H201.38V22.46H193.68ZM200.76 22.46V22.64C200.52 24.24 199.92 27.42 199.4 29.66L200.78 29.82C201.26 27.6 201.84 24.62 202.18 22.54L201.16 22.38L200.94 22.46H200.76ZM200.58 27.52L200.18 28.88H203.92V27.52H200.58ZM203.42 27.52V27.82C202.36 33.24 199.42 36.72 195.7 38.48C196.02 38.7 196.5 39.26 196.72 39.6C200.52 37.66 203.64 33.9 204.86 27.82L203.98 27.46L203.7 27.52H203.42ZM196.92 24.64L195.82 24.84C196.98 31.84 199.26 37.46 204.46 39.62C204.68 39.24 205.1 38.68 205.44 38.4C200.36 36.54 198.02 31.1 196.92 24.64ZM189.9 21.22C189.38 22.54 188.46 24.46 187.7 25.6L188.74 26.08C189.52 24.98 190.46 23.2 191.22 21.74L189.9 21.22ZM192.14 23.5C191.08 25.66 189.2 28.7 187.72 30.5L188.64 31.02C190.12 29.26 192.04 26.36 193.4 24.06L192.14 23.5ZM186.74 25.42C187.82 26.38 189.08 27.78 189.62 28.72L190.42 27.58C189.88 26.68 188.62 25.38 187.5 24.44L186.74 25.42ZM191.66 28.14C192.44 29.46 193.22 31.22 193.48 32.34L194.62 31.82C194.34 30.72 193.54 29 192.72 27.72L191.66 28.14ZM186.68 30.18L186.8 31.54C188.66 31.42 191.1 31.26 193.54 31.08L193.56 29.86C190.98 30 188.42 30.12 186.68 30.18ZM192 32.84C192.5 33.96 193 35.44 193.18 36.42L194.34 36.02C194.14 35.06 193.64 33.58 193.08 32.5L192 32.84ZM187.8 32.64C187.56 34.4 187.16 36.18 186.5 37.4C186.82 37.54 187.42 37.82 187.68 37.98C188.32 36.7 188.82 34.76 189.1 32.88L187.8 32.64ZM189.96 30.74V39.66H191.3V30.74H189.96ZM195.62 23.3V26.82C195.62 30.26 195.36 35.12 192.44 38.78C192.78 38.94 193.32 39.34 193.56 39.56C196.62 35.72 196.96 30.56 196.96 26.82V23.3H195.62Z" fill="#263238"/>
<path d="M19.26 23.06V24.48H28.82V23.06H19.26ZM28.26 23.06V23.42C28.06 33.3 27.8 36.88 27.18 37.6C26.96 37.88 26.76 37.96 26.4 37.94C25.94 37.94 24.88 37.94 23.7 37.84C23.96 38.28 24.14 38.94 24.18 39.38C25.26 39.44 26.36 39.48 27.04 39.4C27.7 39.3 28.14 39.12 28.58 38.5C29.34 37.5 29.56 34.1 29.78 23.9C29.78 23.68 29.78 23.06 29.78 23.06H28.26ZM22.7 23.66C22.58 29.12 22.44 35.4 17.78 38.5C18.18 38.76 18.68 39.26 18.96 39.64C23.78 36.2 24.08 29.58 24.22 23.66H22.7ZM15 30.86V39.62H16.46V29.1L15 30.86ZM12.08 24.9V26.26H18.28V24.9H12.08ZM15 21.22V25.64H16.46V21.22H15ZM16.42 29.82L15.6 30.52C16.34 31.24 18.1 33.34 18.72 34.24L19.64 33.12C19.14 32.56 17.02 30.34 16.42 29.82ZM17.86 24.9V25.22C16.7 28.3 14 31.56 11.52 33.32C11.76 33.58 12.18 34.26 12.34 34.64C14.94 32.64 17.84 29.08 19.28 25.38L18.42 24.82L18.14 24.9H17.86ZM18.92 28.64C18.52 29.36 17.72 30.46 17.16 31.1L17.9 31.72C18.5 31.14 19.22 30.24 19.92 29.44L18.92 28.64ZM38.68 22.46V23.86H46.38V22.46H38.68ZM45.76 22.46V22.64C45.52 24.24 44.92 27.42 44.4 29.66L45.78 29.82C46.26 27.6 46.84 24.62 47.18 22.54L46.16 22.38L45.94 22.46H45.76ZM45.58 27.52L45.18 28.88H48.92V27.52H45.58ZM48.42 27.52V27.82C47.36 33.24 44.42 36.72 40.7 38.48C41.02 38.7 41.5 39.26 41.72 39.6C45.52 37.66 48.64 33.9 49.86 27.82L48.98 27.46L48.7 27.52H48.42ZM41.92 24.64L40.82 24.84C41.98 31.84 44.26 37.46 49.46 39.62C49.68 39.24 50.1 38.68 50.44 38.4C45.36 36.54 43.02 31.1 41.92 24.64ZM34.9 21.22C34.38 22.54 33.46 24.46 32.7 25.6L33.74 26.08C34.52 24.98 35.46 23.2 36.22 21.74L34.9 21.22ZM37.14 23.5C36.08 25.66 34.2 28.7 32.72 30.5L33.64 31.02C35.12 29.26 37.04 26.36 38.4 24.06L37.14 23.5ZM31.74 25.42C32.82 26.38 34.08 27.78 34.62 28.72L35.42 27.58C34.88 26.68 33.62 25.38 32.5 24.44L31.74 25.42ZM36.66 28.14C37.44 29.46 38.22 31.22 38.48 32.34L39.62 31.82C39.34 30.72 38.54 29 37.72 27.72L36.66 28.14ZM31.68 30.18L31.8 31.54C33.66 31.42 36.1 31.26 38.54 31.08L38.56 29.86C35.98 30 33.42 30.12 31.68 30.18ZM37 32.84C37.5 33.96 38 35.44 38.18 36.42L39.34 36.02C39.14 35.06 38.64 33.58 38.08 32.5L37 32.84ZM32.8 32.64C32.56 34.4 32.16 36.18 31.5 37.4C31.82 37.54 32.42 37.82 32.68 37.98C33.32 36.7 33.82 34.76 34.1 32.88L32.8 32.64ZM34.96 30.74V39.66H36.3V30.74H34.96ZM40.62 23.3V26.82C40.62 30.26 40.36 35.12 37.44 38.78C37.78 38.94 38.32 39.34 38.56 39.56C41.62 35.72 41.96 30.56 41.96 26.82V23.3H40.62Z" fill="#263238"/>
</svg>
