<svg width="1241" height="1168" viewBox="0 0 1241 1168" fill="none" xmlns="http://www.w3.org/2000/svg">
<rect x="38" y="25.5056" width="1203" height="1141.85" rx="30" fill="#FFF0C4"/>
<path d="M43.5938 112.558C43.5938 109.98 43.8281 107.226 44.2969 104.297C44.8242 101.308 45.6152 98.3787 46.6699 95.5076C47.7832 92.5779 49.1895 89.824 50.8887 87.2458C52.6465 84.6091 54.7559 82.3533 57.2168 80.4783L66.7969 87.158C65.1562 89.033 63.9258 90.8201 63.1055 92.5193C62.2852 94.2185 61.6406 95.9177 61.1719 97.6169C62.9297 97.9099 64.5703 98.5251 66.0938 99.4626C67.6172 100.342 68.9355 101.455 70.0488 102.802C71.1621 104.092 72.041 105.586 72.6855 107.285C73.3301 108.926 73.6523 110.683 73.6523 112.558C73.6523 114.609 73.2422 116.543 72.4219 118.359C71.6602 120.117 70.5762 121.699 69.1699 123.105C67.8223 124.453 66.2402 125.537 64.4238 126.357C62.6074 127.119 60.7031 127.5 58.7109 127.5C56.6016 127.5 54.6094 127.119 52.7344 126.357C50.918 125.537 49.3066 124.453 47.9004 123.105C46.5527 121.699 45.498 120.117 44.7363 118.359C43.9746 116.543 43.5938 114.609 43.5938 112.558ZM7.55859 112.558C7.55859 109.98 7.79297 107.226 8.26172 104.297C8.78906 101.308 9.58008 98.3787 10.6348 95.5076C11.748 92.5779 13.1836 89.824 14.9414 87.2458C16.6992 84.6091 18.8086 82.3533 21.2695 80.4783L30.7617 87.158C29.1211 89.033 27.8906 90.8201 27.0703 92.5193C26.3086 94.2185 25.6934 95.9177 25.2246 97.6169C26.9824 97.9099 28.623 98.5251 30.1465 99.4626C31.6699 100.342 32.959 101.455 34.0137 102.802C35.127 104.092 36.0059 105.586 36.6504 107.285C37.2949 108.926 37.6172 110.683 37.6172 112.558C37.6172 114.609 37.207 116.543 36.3867 118.359C35.625 120.117 34.541 121.699 33.1348 123.105C31.7871 124.453 30.2051 125.537 28.3887 126.357C26.5723 127.119 24.668 127.5 22.6758 127.5C20.5664 127.5 18.5742 127.119 16.6992 126.357C14.8828 125.537 13.3008 124.453 11.9531 123.105C10.6055 121.699 9.52148 120.117 8.70117 118.359C7.93945 116.543 7.55859 114.609 7.55859 112.558Z" fill="#CB3838"/>
<path d="M1193.74 1005.25C1193.74 1007.83 1193.47 1010.61 1192.95 1013.6C1192.48 1016.53 1191.69 1019.46 1190.57 1022.39C1189.52 1025.26 1188.11 1028.01 1186.36 1030.65C1184.6 1033.29 1182.49 1035.51 1180.03 1037.33L1170.54 1030.65C1172.12 1028.78 1173.32 1026.99 1174.14 1025.29C1174.96 1023.59 1175.6 1021.89 1176.07 1020.19C1174.31 1019.9 1172.67 1019.31 1171.15 1018.43C1169.63 1017.56 1168.31 1016.47 1167.2 1015.18C1166.14 1013.83 1165.29 1012.31 1164.65 1010.61C1164 1008.91 1163.68 1007.13 1163.68 1005.25C1163.68 1003.26 1164.06 1001.35 1164.82 999.538C1165.64 997.721 1166.73 996.139 1168.07 994.792C1169.48 993.385 1171.06 992.301 1172.82 991.54C1174.64 990.719 1176.57 990.309 1178.62 990.309C1180.73 990.309 1182.69 990.719 1184.51 991.54C1186.38 992.301 1188 993.385 1189.34 994.792C1190.69 996.139 1191.75 997.721 1192.51 999.538C1193.33 1001.35 1193.74 1003.26 1193.74 1005.25ZM1229.69 1005.25C1229.69 1007.83 1229.42 1010.61 1228.89 1013.6C1228.43 1016.53 1227.63 1019.46 1226.52 1022.39C1225.47 1025.26 1224.06 1028.01 1222.3 1030.65C1220.6 1033.29 1218.52 1035.51 1216.06 1037.33L1206.48 1030.65C1208.12 1028.78 1209.35 1026.99 1210.17 1025.29C1210.99 1023.59 1211.64 1021.89 1212.11 1020.19C1210.35 1019.9 1208.71 1019.31 1207.19 1018.43C1205.66 1017.56 1204.34 1016.47 1203.23 1015.18C1202.12 1013.83 1201.24 1012.31 1200.59 1010.61C1199.95 1008.91 1199.63 1007.13 1199.63 1005.25C1199.63 1003.26 1200.01 1001.35 1200.77 999.538C1201.59 997.721 1202.67 996.139 1204.02 994.792C1205.43 993.385 1207.01 992.301 1208.77 991.54C1210.58 990.719 1212.52 990.309 1214.57 990.309C1216.68 990.309 1218.64 990.719 1220.46 991.54C1222.33 992.301 1223.94 993.385 1225.29 994.792C1226.7 996.139 1227.78 997.721 1228.54 999.538C1229.3 1001.35 1229.69 1003.26 1229.69 1005.25Z" fill="#CB3838"/>
<path fill-rule="evenodd" clip-rule="evenodd" d="M29.5777 1126.72C28.7553 1126.62 28.2271 1125.83 28.3879 1125.01V1125.01V1125.01C28.5486 1124.2 29.3377 1123.68 30.1613 1123.77C30.7645 1123.83 31.3779 1123.87 32 1123.87H35.5226C36.351 1123.87 37.0226 1124.54 37.0226 1125.37V1125.37V1125.37C37.0226 1126.19 36.351 1126.87 35.5226 1126.87H32C31.1801 1126.87 30.3718 1126.82 29.5777 1126.72ZM1217 23.5318C1217 24.3602 1216.33 25.0318 1215.5 25.0318V25.0318V25.0318C1214.67 25.0318 1214 24.3602 1214 23.5318V20C1214 19.3779 1213.97 18.7645 1213.9 18.1613C1213.81 17.3377 1214.34 16.5486 1215.15 16.3879V16.3879V16.3879C1215.96 16.2271 1216.76 16.7553 1216.85 17.5777C1216.95 18.3718 1217 19.1801 1217 20V23.5318ZM1212.75 7.67361C1213.26 8.32565 1213.07 9.26131 1212.38 9.72217V9.72217V9.72217C1211.7 10.183 1210.77 9.99375 1210.25 9.34846C1209.48 8.39174 1208.61 7.52 1207.65 6.74976C1207.01 6.23026 1206.82 5.30354 1207.28 4.61514V4.61514V4.61514C1207.74 3.92675 1208.67 3.738 1209.33 4.24899C1210.6 5.24812 1211.75 6.39869 1212.75 7.67361ZM12 1103.33C12 1102.51 12.6716 1101.83 13.5 1101.83V1101.83V1101.83C14.3284 1101.83 15 1102.51 15 1103.33V1106.87C15 1107.49 15.0333 1108.1 15.098 1108.7C15.1864 1109.53 14.6648 1110.32 13.8522 1110.48V1110.48V1110.48C13.0395 1110.64 12.2445 1110.11 12.1452 1109.29C12.0493 1108.49 12 1107.69 12 1106.87V1103.33ZM16.249 1119.19C15.738 1118.54 15.9267 1117.6 16.6151 1117.14V1117.14V1117.14C17.3035 1116.68 18.2303 1116.87 18.7498 1117.52C19.52 1118.47 20.3918 1119.35 21.3485 1120.12C21.9938 1120.64 22.183 1121.56 21.7222 1122.25V1122.25V1122.25C21.2613 1122.94 20.3257 1123.13 19.6736 1122.62C18.3987 1121.62 17.2481 1120.47 16.249 1119.19ZM12 1090.27C12 1091.1 12.6716 1091.77 13.5 1091.77V1091.77V1091.77C14.3284 1091.77 15 1091.1 15 1090.27V1083.21C15 1082.38 14.3284 1081.71 13.5 1081.71V1081.71V1081.71C12.6716 1081.71 12 1082.38 12 1083.21V1090.27ZM12 1070.14C12 1070.97 12.6716 1071.64 13.5 1071.64V1071.64V1071.64C14.3284 1071.64 15 1070.97 15 1070.14V1063.08C15 1062.25 14.3284 1061.58 13.5 1061.58V1061.58V1061.58C12.6716 1061.58 12 1062.25 12 1063.08V1070.14ZM12 1050.02C12 1050.84 12.6716 1051.52 13.5 1051.52V1051.52V1051.52C14.3284 1051.52 15 1050.84 15 1050.02V1042.95C15 1042.12 14.3284 1041.45 13.5 1041.45V1041.45V1041.45C12.6716 1041.45 12 1042.12 12 1042.95V1050.02ZM12 1029.89C12 1030.72 12.6716 1031.39 13.5 1031.39V1031.39V1031.39C14.3284 1031.39 15 1030.72 15 1029.89V1022.83C15 1022 14.3284 1021.33 13.5 1021.33V1021.33V1021.33C12.6716 1021.33 12 1022 12 1022.83V1029.89ZM12 1009.76C12 1010.59 12.6716 1011.26 13.5 1011.26V1011.26V1011.26C14.3284 1011.26 15 1010.59 15 1009.76V1002.7C15 1001.87 14.3284 1001.2 13.5 1001.2V1001.2V1001.2C12.6716 1001.2 12 1001.87 12 1002.7V1009.76ZM12 989.634C12 990.463 12.6716 991.134 13.5 991.134V991.134V991.134C14.3284 991.134 15 990.463 15 989.634V982.571C15 981.742 14.3284 981.071 13.5 981.071V981.071V981.071C12.6716 981.071 12 981.742 12 982.571V989.634ZM12 969.507C12 970.336 12.6716 971.007 13.5 971.007V971.007V971.007C14.3284 971.007 15 970.336 15 969.507V962.444C15 961.615 14.3284 960.944 13.5 960.944V960.944V960.944C12.6716 960.944 12 961.615 12 962.444V969.507ZM12 949.38C12 950.209 12.6716 950.88 13.5 950.88V950.88V950.88C14.3284 950.88 15 950.209 15 949.38V942.317C15 941.488 14.3284 940.817 13.5 940.817V940.817V940.817C12.6716 940.817 12 941.488 12 942.317V949.38ZM12 929.253C12 930.081 12.6716 930.753 13.5 930.753V930.753V930.753C14.3284 930.753 15 930.081 15 929.253V922.189C15 921.361 14.3284 920.689 13.5 920.689V920.689V920.689C12.6716 920.689 12 921.361 12 922.189V929.253ZM12 909.126C12 909.954 12.6716 910.626 13.5 910.626V910.626V910.626C14.3284 910.626 15 909.954 15 909.126V902.062C15 901.234 14.3284 900.562 13.5 900.562V900.562V900.562C12.6716 900.562 12 901.234 12 902.062V909.126ZM12 888.999C12 889.827 12.6716 890.499 13.5 890.499V890.499V890.499C14.3284 890.499 15 889.827 15 888.999V881.935C15 881.107 14.3284 880.435 13.5 880.435V880.435V880.435C12.6716 880.435 12 881.107 12 881.935V888.999ZM12 868.872C12 869.7 12.6716 870.372 13.5 870.372V870.372V870.372C14.3284 870.372 15 869.7 15 868.872V861.808C15 860.98 14.3284 860.308 13.5 860.308V860.308V860.308C12.6716 860.308 12 860.98 12 861.808V868.872ZM12 848.744C12 849.573 12.6716 850.244 13.5 850.244V850.244V850.244C14.3284 850.244 15 849.573 15 848.744V841.681C15 840.852 14.3284 840.181 13.5 840.181V840.181V840.181C12.6716 840.181 12 840.852 12 841.681V848.744ZM12 828.617C12 829.446 12.6716 830.117 13.5 830.117V830.117V830.117C14.3284 830.117 15 829.446 15 828.617V821.554C15 820.725 14.3284 820.054 13.5 820.054V820.054V820.054C12.6716 820.054 12 820.725 12 821.554V828.617ZM12 808.49C12 809.319 12.6716 809.99 13.5 809.99V809.99V809.99C14.3284 809.99 15 809.319 15 808.49V801.427C15 800.598 14.3284 799.927 13.5 799.927V799.927V799.927C12.6716 799.927 12 800.598 12 801.427V808.49ZM12 788.363C12 789.191 12.6716 789.863 13.5 789.863V789.863V789.863C14.3284 789.863 15 789.191 15 788.363V781.299C15 780.471 14.3284 779.799 13.5 779.799V779.799V779.799C12.6716 779.799 12 780.471 12 781.299V788.363ZM12 768.236C12 769.064 12.6716 769.736 13.5 769.736V769.736V769.736C14.3284 769.736 15 769.064 15 768.236V761.172C15 760.344 14.3284 759.672 13.5 759.672V759.672V759.672C12.6716 759.672 12 760.344 12 761.172V768.236ZM12 748.109C12 748.937 12.6716 749.609 13.5 749.609V749.609V749.609C14.3284 749.609 15 748.937 15 748.109V741.045C15 740.217 14.3284 739.545 13.5 739.545V739.545V739.545C12.6716 739.545 12 740.217 12 741.045V748.109ZM12 727.982C12 728.81 12.6716 729.482 13.5 729.482V729.482V729.482C14.3284 729.482 15 728.81 15 727.982V720.918C15 720.09 14.3284 719.418 13.5 719.418V719.418V719.418C12.6716 719.418 12 720.09 12 720.918V727.982ZM12 707.854C12 708.683 12.6716 709.354 13.5 709.354V709.354V709.354C14.3284 709.354 15 708.683 15 707.854V700.791C15 699.963 14.3284 699.291 13.5 699.291V699.291V699.291C12.6716 699.291 12 699.963 12 700.791V707.854ZM12 687.727C12 688.556 12.6716 689.227 13.5 689.227V689.227V689.227C14.3284 689.227 15 688.556 15 687.727V680.664C15 679.835 14.3284 679.164 13.5 679.164V679.164V679.164C12.6716 679.164 12 679.835 12 680.664V687.727ZM12 667.6C12 668.429 12.6716 669.1 13.5 669.1V669.1V669.1C14.3284 669.1 15 668.429 15 667.6V660.537C15 659.708 14.3284 659.037 13.5 659.037V659.037V659.037C12.6716 659.037 12 659.708 12 660.537V667.6ZM12 647.473C12 648.302 12.6716 648.973 13.5 648.973V648.973V648.973C14.3284 648.973 15 648.302 15 647.473V640.41C15 639.581 14.3284 638.91 13.5 638.91V638.91V638.91C12.6716 638.91 12 639.581 12 640.41V647.473ZM12 627.346C12 628.174 12.6716 628.846 13.5 628.846V628.846V628.846C14.3284 628.846 15 628.174 15 627.346V620.282C15 619.454 14.3284 618.782 13.5 618.782V618.782V618.782C12.6716 618.782 12 619.454 12 620.282V627.346ZM12 607.219C12 608.047 12.6716 608.719 13.5 608.719V608.719V608.719C14.3284 608.719 15 608.047 15 607.219V600.155C15 599.327 14.3284 598.655 13.5 598.655V598.655V598.655C12.6716 598.655 12 599.327 12 600.155V607.219ZM12 587.092C12 587.92 12.6716 588.592 13.5 588.592V588.592V588.592C14.3284 588.592 15 587.92 15 587.092V580.028C15 579.2 14.3284 578.528 13.5 578.528V578.528V578.528C12.6716 578.528 12 579.2 12 580.028V587.092ZM12 566.964C12 567.793 12.6716 568.464 13.5 568.464V568.464V568.464C14.3284 568.464 15 567.793 15 566.964V559.901C15 559.072 14.3284 558.401 13.5 558.401V558.401V558.401C12.6716 558.401 12 559.072 12 559.901V566.964ZM12 546.837C12 547.666 12.6716 548.337 13.5 548.337V548.337V548.337C14.3284 548.337 15 547.666 15 546.837V539.774C15 538.945 14.3284 538.274 13.5 538.274V538.274V538.274C12.6716 538.274 12 538.945 12 539.774V546.837ZM12 526.71C12 527.538 12.6716 528.21 13.5 528.21V528.21V528.21C14.3284 528.21 15 527.538 15 526.71V519.646C15 518.818 14.3284 518.146 13.5 518.146V518.146V518.146C12.6716 518.146 12 518.818 12 519.646V526.71ZM12 506.583C12 507.411 12.6716 508.083 13.5 508.083V508.083V508.083C14.3284 508.083 15 507.411 15 506.583V499.519C15 498.691 14.3284 498.019 13.5 498.019V498.019V498.019C12.6716 498.019 12 498.691 12 499.519V506.583ZM12 486.456C12 487.284 12.6716 487.956 13.5 487.956V487.956V487.956C14.3284 487.956 15 487.284 15 486.456V479.392C15 478.564 14.3284 477.892 13.5 477.892V477.892V477.892C12.6716 477.892 12 478.564 12 479.392V486.456ZM12 466.328C12 467.157 12.6716 467.828 13.5 467.828V467.828V467.828C14.3284 467.828 15 467.157 15 466.328V459.265C15 458.436 14.3284 457.765 13.5 457.765V457.765V457.765C12.6716 457.765 12 458.436 12 459.265V466.328ZM12 446.201C12 447.03 12.6716 447.701 13.5 447.701V447.701V447.701C14.3284 447.701 15 447.03 15 446.201V439.138C15 438.309 14.3284 437.638 13.5 437.638V437.638V437.638C12.6716 437.638 12 438.309 12 439.138V446.201ZM12 426.074C12 426.902 12.6716 427.574 13.5 427.574V427.574V427.574C14.3284 427.574 15 426.902 15 426.074V419.01C15 418.182 14.3284 417.51 13.5 417.51V417.51V417.51C12.6716 417.51 12 418.182 12 419.01V426.074ZM12 405.947C12 406.775 12.6716 407.447 13.5 407.447V407.447V407.447C14.3284 407.447 15 406.775 15 405.947V398.883C15 398.055 14.3284 397.383 13.5 397.383V397.383V397.383C12.6716 397.383 12 398.055 12 398.883V405.947ZM12 385.82C12 386.648 12.6716 387.32 13.5 387.32V387.32V387.32C14.3284 387.32 15 386.648 15 385.82V378.756C15 377.928 14.3284 377.256 13.5 377.256V377.256V377.256C12.6716 377.256 12 377.928 12 378.756V385.82ZM12 365.692C12 366.521 12.6716 367.192 13.5 367.192V367.192V367.192C14.3284 367.192 15 366.521 15 365.692V358.629C15 357.8 14.3284 357.129 13.5 357.129V357.129V357.129C12.6716 357.129 12 357.8 12 358.629V365.692ZM12 345.565C12 346.394 12.6716 347.065 13.5 347.065V347.065V347.065C14.3284 347.065 15 346.394 15 345.565V338.502C15 337.673 14.3284 337.002 13.5 337.002V337.002V337.002C12.6716 337.002 12 337.673 12 338.502V345.565ZM12 325.438C12 326.266 12.6716 326.938 13.5 326.938V326.938V326.938C14.3284 326.938 15 326.266 15 325.438V318.374C15 317.546 14.3284 316.874 13.5 316.874V316.874V316.874C12.6716 316.874 12 317.546 12 318.374V325.438ZM12 305.311C12 306.139 12.6716 306.811 13.5 306.811V306.811V306.811C14.3284 306.811 15 306.139 15 305.311V298.247C15 297.419 14.3284 296.747 13.5 296.747V296.747V296.747C12.6716 296.747 12 297.419 12 298.247V305.311ZM12 285.184C12 286.012 12.6716 286.684 13.5 286.684V286.684V286.684C14.3284 286.684 15 286.012 15 285.184V278.12C15 277.292 14.3284 276.62 13.5 276.62V276.62V276.62C12.6716 276.62 12 277.292 12 278.12V285.184ZM12 265.056C12 265.885 12.6716 266.556 13.5 266.556V266.556V266.556C14.3284 266.556 15 265.885 15 265.056V257.993C15 257.164 14.3284 256.493 13.5 256.493V256.493V256.493C12.6716 256.493 12 257.164 12 257.993V265.056ZM108.823 0C107.995 0 107.323 0.671573 107.323 1.5V1.5V1.5C107.323 2.32843 107.995 3 108.823 3H115.866C116.695 3 117.366 2.32843 117.366 1.5V1.5V1.5C117.366 0.671573 116.695 0 115.866 0H108.823ZM128.909 0C128.081 0 127.409 0.671573 127.409 1.5V1.5V1.5C127.409 2.32843 128.081 3 128.909 3H135.953C136.781 3 137.453 2.32843 137.453 1.5V1.5V1.5C137.453 0.671573 136.781 0 135.953 0H128.909ZM148.996 0C148.167 0 147.496 0.671573 147.496 1.5V1.5V1.5C147.496 2.32843 148.167 3 148.996 3H156.039C156.867 3 157.539 2.32843 157.539 1.5V1.5V1.5C157.539 0.671573 156.867 0 156.039 0H148.996ZM169.082 0C168.253 0 167.582 0.671573 167.582 1.5V1.5V1.5C167.582 2.32843 168.253 3 169.082 3H176.125C176.953 3 177.625 2.32843 177.625 1.5V1.5V1.5C177.625 0.671573 176.953 0 176.125 0H169.082ZM189.168 0C188.34 0 187.668 0.671573 187.668 1.5V1.5V1.5C187.668 2.32843 188.34 3 189.168 3H196.211C197.04 3 197.711 2.32843 197.711 1.5V1.5V1.5C197.711 0.671573 197.04 0 196.211 0H189.168ZM209.254 0C208.426 0 207.754 0.671573 207.754 1.5V1.5V1.5C207.754 2.32843 208.426 3 209.254 3H216.297C217.126 3 217.797 2.32843 217.797 1.5V1.5V1.5C217.797 0.671573 217.126 0 216.297 0H209.254ZM229.341 0C228.512 0 227.841 0.671573 227.841 1.5V1.5V1.5C227.841 2.32843 228.512 3 229.341 3H236.384C237.212 3 237.884 2.32843 237.884 1.5V1.5V1.5C237.884 0.671573 237.212 0 236.384 0H229.341ZM249.427 0C248.598 0 247.927 0.671573 247.927 1.5V1.5V1.5C247.927 2.32843 248.598 3 249.427 3H256.47C257.298 3 257.97 2.32843 257.97 1.5V1.5V1.5C257.97 0.671573 257.298 0 256.47 0H249.427ZM269.513 0C268.685 0 268.013 0.671573 268.013 1.5V1.5V1.5C268.013 2.32843 268.685 3 269.513 3H276.556C277.384 3 278.056 2.32843 278.056 1.5V1.5V1.5C278.056 0.671573 277.384 0 276.556 0H269.513ZM289.599 0C288.771 0 288.099 0.671573 288.099 1.5V1.5V1.5C288.099 2.32843 288.771 3 289.599 3H296.642C297.471 3 298.142 2.32843 298.142 1.5V1.5V1.5C298.142 0.671573 297.471 0 296.642 0H289.599ZM309.685 0C308.857 0 308.185 0.671573 308.185 1.5V1.5V1.5C308.185 2.32843 308.857 3 309.685 3H316.728C317.557 3 318.228 2.32843 318.228 1.5V1.5V1.5C318.228 0.671573 317.557 0 316.728 0H309.685ZM329.772 0C328.943 0 328.272 0.671573 328.272 1.5V1.5V1.5C328.272 2.32843 328.943 3 329.772 3H336.815C337.643 3 338.315 2.32843 338.315 1.5V1.5V1.5C338.315 0.671573 337.643 0 336.815 0H329.772ZM349.858 0C349.029 0 348.358 0.671573 348.358 1.5V1.5V1.5C348.358 2.32843 349.029 3 349.858 3H356.901C357.729 3 358.401 2.32843 358.401 1.5V1.5V1.5C358.401 0.671573 357.729 0 356.901 0H349.858ZM369.944 0C369.115 0 368.444 0.671573 368.444 1.5V1.5V1.5C368.444 2.32843 369.115 3 369.944 3H376.987C377.815 3 378.487 2.32843 378.487 1.5V1.5V1.5C378.487 0.671573 377.815 0 376.987 0H369.944ZM390.03 0C389.202 0 388.53 0.671573 388.53 1.5V1.5V1.5C388.53 2.32843 389.202 3 390.03 3H397.073C397.902 3 398.573 2.32843 398.573 1.5V1.5V1.5C398.573 0.671573 397.902 0 397.073 0H390.03ZM410.116 0C409.288 0 408.616 0.671573 408.616 1.5V1.5V1.5C408.616 2.32843 409.288 3 410.116 3H417.159C417.988 3 418.659 2.32843 418.659 1.5V1.5V1.5C418.659 0.671573 417.988 0 417.159 0H410.116ZM430.202 0C429.374 0 428.702 0.671573 428.702 1.5V1.5V1.5C428.702 2.32843 429.374 3 430.202 3H437.246C438.074 3 438.746 2.32843 438.746 1.5V1.5V1.5C438.746 0.671573 438.074 0 437.246 0H430.202ZM450.289 0C449.46 0 448.789 0.671573 448.789 1.5V1.5V1.5C448.789 2.32843 449.46 3 450.289 3H457.332C458.16 3 458.832 2.32843 458.832 1.5V1.5V1.5C458.832 0.671573 458.16 0 457.332 0H450.289ZM470.375 0C469.546 0 468.875 0.671573 468.875 1.5V1.5V1.5C468.875 2.32843 469.546 3 470.375 3H477.418C478.246 3 478.918 2.32843 478.918 1.5V1.5V1.5C478.918 0.671573 478.246 0 477.418 0H470.375ZM490.461 0C489.633 0 488.961 0.671573 488.961 1.5V1.5V1.5C488.961 2.32843 489.633 3 490.461 3H497.504C498.333 3 499.004 2.32843 499.004 1.5V1.5V1.5C499.004 0.671573 498.333 0 497.504 0H490.461ZM510.547 0C509.719 0 509.047 0.671573 509.047 1.5V1.5V1.5C509.047 2.32843 509.719 3 510.547 3H517.59C518.419 3 519.09 2.32843 519.09 1.5V1.5V1.5C519.09 0.671573 518.419 0 517.59 0H510.547ZM530.633 0C529.805 0 529.133 0.671573 529.133 1.5V1.5V1.5C529.133 2.32843 529.805 3 530.633 3H537.676C538.505 3 539.176 2.32843 539.176 1.5V1.5V1.5C539.176 0.671573 538.505 0 537.676 0H530.633ZM550.72 0C549.891 0 549.22 0.671573 549.22 1.5V1.5V1.5C549.22 2.32843 549.891 3 550.72 3H557.763C558.591 3 559.263 2.32843 559.263 1.5V1.5V1.5C559.263 0.671573 558.591 0 557.763 0H550.72ZM570.806 0C569.977 0 569.306 0.671573 569.306 1.5V1.5V1.5C569.306 2.32843 569.977 3 570.806 3H577.849C578.677 3 579.349 2.32843 579.349 1.5V1.5V1.5C579.349 0.671573 578.677 0 577.849 0H570.806ZM590.892 0C590.063 0 589.392 0.671573 589.392 1.5V1.5V1.5C589.392 2.32843 590.063 3 590.892 3H597.935C598.763 3 599.435 2.32843 599.435 1.5V1.5V1.5C599.435 0.671573 598.763 0 597.935 0H590.892ZM610.978 0C610.15 0 609.478 0.671573 609.478 1.5V1.5V1.5C609.478 2.32843 610.15 3 610.978 3H618.021C618.85 3 619.521 2.32843 619.521 1.5V1.5V1.5C619.521 0.671573 618.85 0 618.021 0H610.978ZM631.064 0C630.236 0 629.564 0.671573 629.564 1.5V1.5V1.5C629.564 2.32843 630.236 3 631.064 3H638.107C638.936 3 639.607 2.32843 639.607 1.5V1.5V1.5C639.607 0.671573 638.936 0 638.107 0H631.064ZM651.15 0C650.322 0 649.65 0.671573 649.65 1.5V1.5V1.5C649.65 2.32843 650.322 3 651.15 3H658.194C659.022 3 659.694 2.32843 659.694 1.5V1.5V1.5C659.694 0.671573 659.022 0 658.194 0H651.15ZM671.237 0C670.408 0 669.737 0.671573 669.737 1.5V1.5V1.5C669.737 2.32843 670.408 3 671.237 3H678.28C679.108 3 679.78 2.32843 679.78 1.5V1.5V1.5C679.78 0.671573 679.108 0 678.28 0H671.237ZM691.323 0C690.494 0 689.823 0.671573 689.823 1.5V1.5V1.5C689.823 2.32843 690.494 3 691.323 3H698.366C699.194 3 699.866 2.32843 699.866 1.5V1.5V1.5C699.866 0.671573 699.194 0 698.366 0H691.323ZM711.409 0C710.581 0 709.909 0.671573 709.909 1.5V1.5V1.5C709.909 2.32843 710.581 3 711.409 3H718.452C719.281 3 719.952 2.32843 719.952 1.5V1.5V1.5C719.952 0.671573 719.281 0 718.452 0H711.409ZM731.495 0C730.667 0 729.995 0.671573 729.995 1.5V1.5V1.5C729.995 2.32843 730.667 3 731.495 3H738.538C739.367 3 740.038 2.32843 740.038 1.5V1.5V1.5C740.038 0.671573 739.367 0 738.538 0H731.495ZM751.581 0C750.753 0 750.081 0.671573 750.081 1.5V1.5V1.5C750.081 2.32843 750.753 3 751.581 3H758.624C759.453 3 760.124 2.32843 760.124 1.5V1.5V1.5C760.124 0.671573 759.453 0 758.624 0H751.581ZM771.668 0C770.839 0 770.168 0.671573 770.168 1.5V1.5V1.5C770.168 2.32843 770.839 3 771.668 3H778.711C779.539 3 780.211 2.32843 780.211 1.5V1.5V1.5C780.211 0.671573 779.539 0 778.711 0H771.668ZM791.754 0C790.925 0 790.254 0.671573 790.254 1.5V1.5V1.5C790.254 2.32843 790.925 3 791.754 3H798.797C799.625 3 800.297 2.32843 800.297 1.5V1.5V1.5C800.297 0.671573 799.625 0 798.797 0H791.754ZM811.84 0C811.011 0 810.34 0.671573 810.34 1.5V1.5V1.5C810.34 2.32843 811.011 3 811.84 3H818.883C819.711 3 820.383 2.32843 820.383 1.5V1.5V1.5C820.383 0.671573 819.711 0 818.883 0H811.84ZM831.926 0C831.098 0 830.426 0.671573 830.426 1.5V1.5V1.5C830.426 2.32843 831.098 3 831.926 3H838.969C839.798 3 840.469 2.32843 840.469 1.5V1.5V1.5C840.469 0.671573 839.798 0 838.969 0H831.926ZM852.012 0C851.184 0 850.512 0.671573 850.512 1.5V1.5V1.5C850.512 2.32843 851.184 3 852.012 3H859.055C859.884 3 860.555 2.32843 860.555 1.5V1.5V1.5C860.555 0.671573 859.884 0 859.055 0H852.012ZM872.098 0C871.27 0 870.598 0.671573 870.598 1.5V1.5V1.5C870.598 2.32843 871.27 3 872.098 3H879.142C879.97 3 880.642 2.32843 880.642 1.5V1.5V1.5C880.642 0.671573 879.97 0 879.142 0H872.098ZM892.185 0C891.356 0 890.685 0.671573 890.685 1.5V1.5V1.5C890.685 2.32843 891.356 3 892.185 3H899.228C900.056 3 900.728 2.32843 900.728 1.5V1.5V1.5C900.728 0.671573 900.056 0 899.228 0H892.185ZM912.271 0C911.442 0 910.771 0.671573 910.771 1.5V1.5V1.5C910.771 2.32843 911.442 3 912.271 3H919.314C920.142 3 920.814 2.32843 920.814 1.5V1.5V1.5C920.814 0.671573 920.142 0 919.314 0H912.271ZM932.357 0C931.529 0 930.857 0.671573 930.857 1.5V1.5V1.5C930.857 2.32843 931.529 3 932.357 3H939.4C940.229 3 940.9 2.32843 940.9 1.5V1.5V1.5C940.9 0.671573 940.229 0 939.4 0H932.357ZM952.443 0C951.615 0 950.943 0.671573 950.943 1.5V1.5V1.5C950.943 2.32843 951.615 3 952.443 3H959.486C960.315 3 960.986 2.32843 960.986 1.5V1.5V1.5C960.986 0.671573 960.315 0 959.486 0H952.443ZM972.529 0C971.701 0 971.029 0.671573 971.029 1.5V1.5V1.5C971.029 2.32843 971.701 3 972.529 3H979.572C980.401 3 981.072 2.32843 981.072 1.5V1.5V1.5C981.072 0.671573 980.401 0 979.572 0H972.529ZM992.616 0C991.787 0 991.116 0.671573 991.116 1.5V1.5V1.5C991.116 2.32843 991.787 3 992.616 3H999.659C1000.49 3 1001.16 2.32843 1001.16 1.5V1.5V1.5C1001.16 0.671573 1000.49 0 999.659 0H992.616ZM1012.7 0C1011.87 0 1011.2 0.671573 1011.2 1.5V1.5V1.5C1011.2 2.32843 1011.87 3 1012.7 3H1019.74C1020.57 3 1021.24 2.32843 1021.24 1.5V1.5V1.5C1021.24 0.671573 1020.57 0 1019.74 0H1012.7ZM1032.79 0C1031.96 0 1031.29 0.671573 1031.29 1.5V1.5V1.5C1031.29 2.32843 1031.96 3 1032.79 3H1039.83C1040.66 3 1041.33 2.32843 1041.33 1.5V1.5V1.5C1041.33 0.671573 1040.66 0 1039.83 0H1032.79ZM1052.87 0C1052.05 0 1051.37 0.671573 1051.37 1.5V1.5V1.5C1051.37 2.32843 1052.05 3 1052.87 3H1059.92C1060.75 3 1061.42 2.32843 1061.42 1.5V1.5V1.5C1061.42 0.671573 1060.75 0 1059.92 0H1052.87ZM1072.96 0C1072.13 0 1071.46 0.671573 1071.46 1.5V1.5V1.5C1071.46 2.32843 1072.13 3 1072.96 3H1080C1080.83 3 1081.5 2.32843 1081.5 1.5V1.5V1.5C1081.5 0.671573 1080.83 0 1080 0H1072.96ZM1093.05 0C1092.22 0 1091.55 0.671573 1091.55 1.5V1.5V1.5C1091.55 2.32843 1092.22 3 1093.05 3H1100.09C1100.92 3 1101.59 2.32843 1101.59 1.5V1.5V1.5C1101.59 0.671573 1100.92 0 1100.09 0H1093.05ZM1113.13 0C1112.3 0 1111.63 0.671573 1111.63 1.5V1.5V1.5C1111.63 2.32843 1112.3 3 1113.13 3H1120.18C1121 3 1121.68 2.32843 1121.68 1.5V1.5V1.5C1121.68 0.671573 1121 0 1120.18 0H1113.13ZM1133.22 0C1132.39 0 1131.72 0.671573 1131.72 1.5V1.5V1.5C1131.72 2.32843 1132.39 3 1133.22 3H1140.26C1141.09 3 1141.76 2.32843 1141.76 1.5V1.5V1.5C1141.76 0.671573 1141.09 0 1140.26 0H1133.22ZM1153.31 0C1152.48 0 1151.81 0.671573 1151.81 1.5V1.5V1.5C1151.81 2.32843 1152.48 3 1153.31 3H1160.35C1161.18 3 1161.85 2.32843 1161.85 1.5V1.5V1.5C1161.85 0.671573 1161.18 0 1160.35 0H1153.31ZM1173.39 0C1172.56 0 1171.89 0.671573 1171.89 1.5V1.5V1.5C1171.89 2.32843 1172.56 3 1173.39 3H1180.43C1181.26 3 1181.93 2.32843 1181.93 1.5V1.5V1.5C1181.93 0.671573 1181.26 0 1180.43 0H1173.39ZM1193.48 0C1192.65 0 1191.98 0.671573 1191.98 1.5V1.5V1.5C1191.98 2.32843 1192.65 3 1193.48 3H1197C1197.62 3 1198.24 3.03328 1198.84 3.09802C1199.66 3.18642 1200.45 2.66484 1200.61 1.85216V1.85216V1.85216C1200.77 1.03948 1200.24 0.24449 1199.42 0.145195C1198.63 0.0493339 1197.82 0 1197 0H1193.48ZM1217 36.5954C1217 35.7669 1216.33 35.0954 1215.5 35.0954V35.0954V35.0954C1214.67 35.0954 1214 35.7669 1214 36.5954V43.6589C1214 44.4874 1214.67 45.1589 1215.5 45.1589V45.1589V45.1589C1216.33 45.1589 1217 44.4874 1217 43.6589V36.5954ZM1217 56.7225C1217 55.8941 1216.33 55.2225 1215.5 55.2225V55.2225V55.2225C1214.67 55.2225 1214 55.8941 1214 56.7225V63.7861C1214 64.6145 1214.67 65.2861 1215.5 65.2861V65.2861V65.2861C1216.33 65.2861 1217 64.6145 1217 63.7861V56.7225ZM1217 76.8496C1217 76.0212 1216.33 75.3496 1215.5 75.3496V75.3496V75.3496C1214.67 75.3496 1214 76.0212 1214 76.8496V83.9132C1214 84.7416 1214.67 85.4132 1215.5 85.4132V85.4132V85.4132C1216.33 85.4132 1217 84.7416 1217 83.9132V76.8496ZM1217 96.9768C1217 96.1483 1216.33 95.4768 1215.5 95.4768V95.4768V95.4768C1214.67 95.4768 1214 96.1483 1214 96.9768V104.04C1214 104.869 1214.67 105.54 1215.5 105.54V105.54V105.54C1216.33 105.54 1217 104.869 1217 104.04V96.9768ZM1217 117.104C1217 116.275 1216.33 115.604 1215.5 115.604V115.604V115.604C1214.67 115.604 1214 116.275 1214 117.104V124.167C1214 124.996 1214.67 125.667 1215.5 125.667V125.667V125.667C1216.33 125.667 1217 124.996 1217 124.167V117.104ZM1217 137.231C1217 136.403 1216.33 135.731 1215.5 135.731V135.731V135.731C1214.67 135.731 1214 136.403 1214 137.231V144.295C1214 145.123 1214.67 145.795 1215.5 145.795V145.795V145.795C1216.33 145.795 1217 145.123 1217 144.295V137.231ZM1217 157.358C1217 156.53 1216.33 155.858 1215.5 155.858V155.858V155.858C1214.67 155.858 1214 156.53 1214 157.358V164.422C1214 165.25 1214.67 165.922 1215.5 165.922V165.922V165.922C1216.33 165.922 1217 165.25 1217 164.422V157.358ZM1217 177.485C1217 176.657 1216.33 175.985 1215.5 175.985V175.985V175.985C1214.67 175.985 1214 176.657 1214 177.485V184.549C1214 185.377 1214.67 186.049 1215.5 186.049V186.049V186.049C1216.33 186.049 1217 185.377 1217 184.549V177.485ZM1217 197.612C1217 196.784 1216.33 196.112 1215.5 196.112V196.112V196.112C1214.67 196.112 1214 196.784 1214 197.612V204.676C1214 205.504 1214.67 206.176 1215.5 206.176V206.176V206.176C1216.33 206.176 1217 205.504 1217 204.676V197.612ZM1217 217.74C1217 216.911 1216.33 216.24 1215.5 216.24V216.24V216.24C1214.67 216.24 1214 216.911 1214 217.74V224.803C1214 225.632 1214.67 226.303 1215.5 226.303V226.303V226.303C1216.33 226.303 1217 225.632 1217 224.803V217.74ZM1217 237.867C1217 237.038 1216.33 236.367 1215.5 236.367V236.367V236.367C1214.67 236.367 1214 237.038 1214 237.867V244.93C1214 245.759 1214.67 246.43 1215.5 246.43V246.43V246.43C1216.33 246.43 1217 245.759 1217 244.93V237.867ZM1217 257.994C1217 257.165 1216.33 256.494 1215.5 256.494V256.494V256.494C1214.67 256.494 1214 257.165 1214 257.994V265.057C1214 265.886 1214.67 266.557 1215.5 266.557V266.557V266.557C1216.33 266.557 1217 265.886 1217 265.057V257.994ZM1217 278.121C1217 277.293 1216.33 276.621 1215.5 276.621V276.621V276.621C1214.67 276.621 1214 277.293 1214 278.121V285.185C1214 286.013 1214.67 286.685 1215.5 286.685V286.685V286.685C1216.33 286.685 1217 286.013 1217 285.185V278.121ZM1217 298.248C1217 297.42 1216.33 296.748 1215.5 296.748V296.748V296.748C1214.67 296.748 1214 297.42 1214 298.248V305.312C1214 306.14 1214.67 306.812 1215.5 306.812V306.812V306.812C1216.33 306.812 1217 306.14 1217 305.312V298.248ZM1217 318.375C1217 317.547 1216.33 316.875 1215.5 316.875V316.875V316.875C1214.67 316.875 1214 317.547 1214 318.375V325.439C1214 326.267 1214.67 326.939 1215.5 326.939V326.939V326.939C1216.33 326.939 1217 326.267 1217 325.439V318.375ZM1217 338.502C1217 337.674 1216.33 337.002 1215.5 337.002V337.002V337.002C1214.67 337.002 1214 337.674 1214 338.502V345.566C1214 346.394 1214.67 347.066 1215.5 347.066V347.066V347.066C1216.33 347.066 1217 346.394 1217 345.566V338.502ZM1217 358.63C1217 357.801 1216.33 357.13 1215.5 357.13V357.13V357.13C1214.67 357.13 1214 357.801 1214 358.63V365.693C1214 366.522 1214.67 367.193 1215.5 367.193V367.193V367.193C1216.33 367.193 1217 366.522 1217 365.693V358.63ZM1217 378.757C1217 377.928 1216.33 377.257 1215.5 377.257V377.257V377.257C1214.67 377.257 1214 377.928 1214 378.757V385.82C1214 386.649 1214.67 387.32 1215.5 387.32V387.32V387.32C1216.33 387.32 1217 386.649 1217 385.82V378.757ZM1217 398.884C1217 398.055 1216.33 397.384 1215.5 397.384V397.384V397.384C1214.67 397.384 1214 398.055 1214 398.884V405.947C1214 406.776 1214.67 407.447 1215.5 407.447V407.447V407.447C1216.33 407.447 1217 406.776 1217 405.947V398.884ZM1217 419.011C1217 418.183 1216.33 417.511 1215.5 417.511V417.511V417.511C1214.67 417.511 1214 418.183 1214 419.011V426.075C1214 426.903 1214.67 427.575 1215.5 427.575V427.575V427.575C1216.33 427.575 1217 426.903 1217 426.075V419.011ZM1217 439.138C1217 438.31 1216.33 437.638 1215.5 437.638V437.638V437.638C1214.67 437.638 1214 438.31 1214 439.138V446.202C1214 447.03 1214.67 447.702 1215.5 447.702V447.702V447.702C1216.33 447.702 1217 447.03 1217 446.202V439.138ZM1217 459.265C1217 458.437 1216.33 457.765 1215.5 457.765V457.765V457.765C1214.67 457.765 1214 458.437 1214 459.265V466.329C1214 467.157 1214.67 467.829 1215.5 467.829V467.829V467.829C1216.33 467.829 1217 467.157 1217 466.329V459.265ZM1217 479.392C1217 478.564 1216.33 477.892 1215.5 477.892V477.892V477.892C1214.67 477.892 1214 478.564 1214 479.392V486.456C1214 487.284 1214.67 487.956 1215.5 487.956V487.956V487.956C1216.33 487.956 1217 487.284 1217 486.456V479.392ZM1217 499.52C1217 498.691 1216.33 498.02 1215.5 498.02V498.02V498.02C1214.67 498.02 1214 498.691 1214 499.52V506.583C1214 507.412 1214.67 508.083 1215.5 508.083V508.083V508.083C1216.33 508.083 1217 507.412 1217 506.583V499.52ZM1217 519.647C1217 518.818 1216.33 518.147 1215.5 518.147V518.147V518.147C1214.67 518.147 1214 518.818 1214 519.647V526.71C1214 527.539 1214.67 528.21 1215.5 528.21V528.21V528.21C1216.33 528.21 1217 527.539 1217 526.71V519.647ZM1217 539.774C1217 538.945 1216.33 538.274 1215.5 538.274V538.274V538.274C1214.67 538.274 1214 538.945 1214 539.774V546.837C1214 547.666 1214.67 548.337 1215.5 548.337V548.337V548.337C1216.33 548.337 1217 547.666 1217 546.837V539.774ZM1217 559.901C1217 559.073 1216.33 558.401 1215.5 558.401V558.401V558.401C1214.67 558.401 1214 559.073 1214 559.901V566.965C1214 567.793 1214.67 568.465 1215.5 568.465V568.465V568.465C1216.33 568.465 1217 567.793 1217 566.965V559.901ZM1217 580.028C1217 579.2 1216.33 578.528 1215.5 578.528V578.528V578.528C1214.67 578.528 1214 579.2 1214 580.028V587.092C1214 587.92 1214.67 588.592 1215.5 588.592V588.592V588.592C1216.33 588.592 1217 587.92 1217 587.092V580.028ZM1217 600.155C1217 599.327 1216.33 598.655 1215.5 598.655V598.655V598.655C1214.67 598.655 1214 599.327 1214 600.155V607.219C1214 608.047 1214.67 608.719 1215.5 608.719V608.719V608.719C1216.33 608.719 1217 608.047 1217 607.219V600.155ZM1217 620.283C1217 619.454 1216.33 618.783 1215.5 618.783V618.783V618.783C1214.67 618.783 1214 619.454 1214 620.283V627.346C1214 628.175 1214.67 628.846 1215.5 628.846V628.846V628.846C1216.33 628.846 1217 628.175 1217 627.346V620.283ZM1217 640.41C1217 639.581 1216.33 638.91 1215.5 638.91V638.91V638.91C1214.67 638.91 1214 639.581 1214 640.41V647.473C1214 648.302 1214.67 648.973 1215.5 648.973V648.973V648.973C1216.33 648.973 1217 648.302 1217 647.473V640.41ZM1217 660.537C1217 659.709 1216.33 659.037 1215.5 659.037V659.037V659.037C1214.67 659.037 1214 659.709 1214 660.537V667.601C1214 668.429 1214.67 669.101 1215.5 669.101V669.101V669.101C1216.33 669.101 1217 668.429 1217 667.601V660.537ZM1217 680.664C1217 679.836 1216.33 679.164 1215.5 679.164V679.164V679.164C1214.67 679.164 1214 679.836 1214 680.664V687.728C1214 688.556 1214.67 689.228 1215.5 689.228V689.228V689.228C1216.33 689.228 1217 688.556 1217 687.728V680.664ZM1217 700.791C1217 699.963 1216.33 699.291 1215.5 699.291V699.291V699.291C1214.67 699.291 1214 699.963 1214 700.791V707.855C1214 708.683 1214.67 709.355 1215.5 709.355V709.355V709.355C1216.33 709.355 1217 708.683 1217 707.855V700.791ZM1217 720.919C1217 720.09 1216.33 719.419 1215.5 719.419V719.419V719.419C1214.67 719.419 1214 720.09 1214 720.919V727.982C1214 728.811 1214.67 729.482 1215.5 729.482V729.482V729.482C1216.33 729.482 1217 728.811 1217 727.982V720.919ZM1217 741.046C1217 740.217 1216.33 739.546 1215.5 739.546V739.546V739.546C1214.67 739.546 1214 740.217 1214 741.046V748.109C1214 748.938 1214.67 749.609 1215.5 749.609V749.609V749.609C1216.33 749.609 1217 748.938 1217 748.109V741.046ZM1217 761.173C1217 760.345 1216.33 759.673 1215.5 759.673V759.673V759.673C1214.67 759.673 1214 760.345 1214 761.173V768.237C1214 769.065 1214.67 769.737 1215.5 769.737V769.737V769.737C1216.33 769.737 1217 769.065 1217 768.237V761.173ZM1217 781.3C1217 780.472 1216.33 779.8 1215.5 779.8V779.8V779.8C1214.67 779.8 1214 780.472 1214 781.3V788.364C1214 789.192 1214.67 789.864 1215.5 789.864V789.864V789.864C1216.33 789.864 1217 789.192 1217 788.364V781.3ZM1217 801.427C1217 800.599 1216.33 799.927 1215.5 799.927V799.927V799.927C1214.67 799.927 1214 800.599 1214 801.427V808.491C1214 809.319 1214.67 809.991 1215.5 809.991V809.991V809.991C1216.33 809.991 1217 809.319 1217 808.491V801.427ZM1217 821.555C1217 820.726 1216.33 820.055 1215.5 820.055V820.055V820.055C1214.67 820.055 1214 820.726 1214 821.555V828.618C1214 829.447 1214.67 830.118 1215.5 830.118V830.118V830.118C1216.33 830.118 1217 829.447 1217 828.618V821.555ZM1217 841.682C1217 840.853 1216.33 840.182 1215.5 840.182V840.182V840.182C1214.67 840.182 1214 840.853 1214 841.682V843.649C1214 844.477 1214.67 845.149 1215.5 845.149V845.149C1216.33 845.149 1217 844.477 1217 843.649V841.682ZM1117 1125.37C1117 1126.19 1116.33 1126.87 1115.5 1126.87H1113.13C1112.31 1126.87 1111.63 1126.19 1111.63 1125.37V1125.37V1125.37C1111.63 1124.54 1112.31 1123.87 1113.13 1123.87H1115.5C1116.33 1123.87 1117 1124.54 1117 1125.37V1125.37ZM1100.09 1126.87C1100.92 1126.87 1101.59 1126.19 1101.59 1125.37V1125.37V1125.37C1101.59 1124.54 1100.92 1123.87 1100.09 1123.87H1093.05C1092.22 1123.87 1091.55 1124.54 1091.55 1125.37V1125.37V1125.37C1091.55 1126.19 1092.22 1126.87 1093.05 1126.87H1100.09ZM1080 1126.87C1080.83 1126.87 1081.5 1126.19 1081.5 1125.37V1125.37V1125.37C1081.5 1124.54 1080.83 1123.87 1080 1123.87H1072.96C1072.13 1123.87 1071.46 1124.54 1071.46 1125.37V1125.37V1125.37C1071.46 1126.19 1072.13 1126.87 1072.96 1126.87H1080ZM1059.92 1126.87C1060.75 1126.87 1061.42 1126.19 1061.42 1125.37V1125.37V1125.37C1061.42 1124.54 1060.75 1123.87 1059.92 1123.87H1052.87C1052.05 1123.87 1051.38 1124.54 1051.38 1125.37V1125.37V1125.37C1051.38 1126.19 1052.05 1126.87 1052.88 1126.87H1059.92ZM1039.83 1126.87C1040.66 1126.87 1041.33 1126.19 1041.33 1125.37V1125.37V1125.37C1041.33 1124.54 1040.66 1123.87 1039.83 1123.87H1032.79C1031.96 1123.87 1031.29 1124.54 1031.29 1125.37V1125.37V1125.37C1031.29 1126.19 1031.96 1126.87 1032.79 1126.87H1039.83ZM1019.75 1126.87C1020.57 1126.87 1021.25 1126.19 1021.25 1125.37V1125.37V1125.37C1021.25 1124.54 1020.57 1123.87 1019.75 1123.87H1012.7C1011.87 1123.87 1011.2 1124.54 1011.2 1125.37V1125.37V1125.37C1011.2 1126.19 1011.87 1126.87 1012.7 1126.87H1019.75ZM999.659 1126.87C1000.49 1126.87 1001.16 1126.19 1001.16 1125.37V1125.37V1125.37C1001.16 1124.54 1000.49 1123.87 999.659 1123.87H992.616C991.788 1123.87 991.116 1124.54 991.116 1125.37V1125.37V1125.37C991.116 1126.19 991.788 1126.87 992.616 1126.87H999.659ZM979.573 1126.87C980.402 1126.87 981.073 1126.19 981.073 1125.37V1125.37V1125.37C981.073 1124.54 980.402 1123.87 979.573 1123.87H972.53C971.702 1123.87 971.03 1124.54 971.03 1125.37V1125.37V1125.37C971.03 1126.19 971.702 1126.87 972.53 1126.87H979.573ZM959.487 1126.87C960.315 1126.87 960.987 1126.19 960.987 1125.37V1125.37V1125.37C960.987 1124.54 960.315 1123.87 959.487 1123.87H952.444C951.615 1123.87 950.944 1124.54 950.944 1125.37V1125.37V1125.37C950.944 1126.19 951.615 1126.87 952.444 1126.87H959.487ZM939.401 1126.87C940.229 1126.87 940.901 1126.19 940.901 1125.37V1125.37V1125.37C940.901 1124.54 940.229 1123.87 939.401 1123.87H932.358C931.529 1123.87 930.858 1124.54 930.858 1125.37V1125.37V1125.37C930.858 1126.19 931.529 1126.87 932.358 1126.87H939.401ZM919.315 1126.87C920.143 1126.87 920.815 1126.19 920.815 1125.37V1125.37V1125.37C920.815 1124.54 920.143 1123.87 919.315 1123.87H912.272C911.443 1123.87 910.772 1124.54 910.772 1125.37V1125.37V1125.37C910.772 1126.19 911.443 1126.87 912.272 1126.87H919.315ZM899.228 1126.87C900.057 1126.87 900.728 1126.19 900.728 1125.37V1125.37V1125.37C900.728 1124.54 900.057 1123.87 899.228 1123.87H892.185C891.357 1123.87 890.685 1124.54 890.685 1125.37V1125.37V1125.37C890.685 1126.19 891.357 1126.87 892.185 1126.87H899.228ZM879.142 1126.87C879.971 1126.87 880.642 1126.19 880.642 1125.37V1125.37V1125.37C880.642 1124.54 879.971 1123.87 879.142 1123.87H872.099C871.271 1123.87 870.599 1124.54 870.599 1125.37V1125.37V1125.37C870.599 1126.19 871.271 1126.87 872.099 1126.87H879.142ZM859.056 1126.87C859.885 1126.87 860.556 1126.19 860.556 1125.37V1125.37V1125.37C860.556 1124.54 859.885 1123.87 859.056 1123.87H852.013C851.185 1123.87 850.513 1124.54 850.513 1125.37V1125.37V1125.37C850.513 1126.19 851.185 1126.87 852.013 1126.87H859.056ZM838.97 1126.87C839.798 1126.87 840.47 1126.19 840.47 1125.37V1125.37V1125.37C840.47 1124.54 839.798 1123.87 838.97 1123.87H831.927C831.098 1123.87 830.427 1124.54 830.427 1125.37V1125.37V1125.37C830.427 1126.19 831.098 1126.87 831.927 1126.87H838.97ZM818.884 1126.87C819.712 1126.87 820.384 1126.19 820.384 1125.37V1125.37V1125.37C820.384 1124.54 819.712 1123.87 818.884 1123.87H811.841C811.012 1123.87 810.341 1124.54 810.341 1125.37V1125.37V1125.37C810.341 1126.19 811.012 1126.87 811.841 1126.87H818.884ZM798.798 1126.87C799.626 1126.87 800.298 1126.19 800.298 1125.37V1125.37V1125.37C800.298 1124.54 799.626 1123.87 798.798 1123.87H791.754C790.926 1123.87 790.254 1124.54 790.254 1125.37V1125.37V1125.37C790.254 1126.19 790.926 1126.87 791.754 1126.87H798.798ZM778.711 1126.87C779.54 1126.87 780.211 1126.19 780.211 1125.37V1125.37V1125.37C780.211 1124.54 779.54 1123.87 778.711 1123.87H771.668C770.84 1123.87 770.168 1124.54 770.168 1125.37V1125.37V1125.37C770.168 1126.19 770.84 1126.87 771.668 1126.87H778.711ZM758.625 1126.87C759.454 1126.87 760.125 1126.19 760.125 1125.37V1125.37V1125.37C760.125 1124.54 759.454 1123.87 758.625 1123.87H751.582C750.754 1123.87 750.082 1124.54 750.082 1125.37V1125.37V1125.37C750.082 1126.19 750.754 1126.87 751.582 1126.87H758.625ZM738.539 1126.87C739.367 1126.87 740.039 1126.19 740.039 1125.37V1125.37V1125.37C740.039 1124.54 739.367 1123.87 738.539 1123.87H731.496C730.667 1123.87 729.996 1124.54 729.996 1125.37V1125.37V1125.37C729.996 1126.19 730.667 1126.87 731.496 1126.87H738.539ZM718.453 1126.87C719.281 1126.87 719.953 1126.19 719.953 1125.37V1125.37V1125.37C719.953 1124.54 719.281 1123.87 718.453 1123.87H711.41C710.581 1123.87 709.91 1124.54 709.91 1125.37V1125.37V1125.37C709.91 1126.19 710.581 1126.87 711.41 1126.87H718.453ZM698.367 1126.87C699.195 1126.87 699.867 1126.19 699.867 1125.37V1125.37V1125.37C699.867 1124.54 699.195 1123.87 698.367 1123.87H691.324C690.495 1123.87 689.824 1124.54 689.824 1125.37V1125.37V1125.37C689.824 1126.19 690.495 1126.87 691.324 1126.87H698.367ZM678.28 1126.87C679.109 1126.87 679.78 1126.19 679.78 1125.37V1125.37V1125.37C679.78 1124.54 679.109 1123.87 678.28 1123.87H671.237C670.409 1123.87 669.737 1124.54 669.737 1125.37V1125.37V1125.37C669.737 1126.19 670.409 1126.87 671.237 1126.87H678.28ZM658.194 1126.87C659.023 1126.87 659.694 1126.19 659.694 1125.37V1125.37V1125.37C659.694 1124.54 659.023 1123.87 658.194 1123.87H651.151C650.323 1123.87 649.651 1124.54 649.651 1125.37V1125.37V1125.37C649.651 1126.19 650.323 1126.87 651.151 1126.87H658.194ZM638.108 1126.87C638.937 1126.87 639.608 1126.19 639.608 1125.37V1125.37V1125.37C639.608 1124.54 638.937 1123.87 638.108 1123.87H631.065C630.237 1123.87 629.565 1124.54 629.565 1125.37V1125.37V1125.37C629.565 1126.19 630.237 1126.87 631.065 1126.87H638.108ZM618.022 1126.87C618.85 1126.87 619.522 1126.19 619.522 1125.37V1125.37V1125.37C619.522 1124.54 618.85 1123.87 618.022 1123.87H610.979C610.15 1123.87 609.479 1124.54 609.479 1125.37V1125.37V1125.37C609.479 1126.19 610.15 1126.87 610.979 1126.87H618.022ZM597.936 1126.87C598.764 1126.87 599.436 1126.19 599.436 1125.37V1125.37V1125.37C599.436 1124.54 598.764 1123.87 597.936 1123.87H590.893C590.064 1123.87 589.393 1124.54 589.393 1125.37V1125.37V1125.37C589.393 1126.19 590.064 1126.87 590.893 1126.87H597.936ZM577.85 1126.87C578.678 1126.87 579.35 1126.19 579.35 1125.37V1125.37V1125.37C579.35 1124.54 578.678 1123.87 577.85 1123.87H570.806C569.978 1123.87 569.306 1124.54 569.306 1125.37V1125.37V1125.37C569.306 1126.19 569.978 1126.87 570.806 1126.87H577.85ZM557.763 1126.87C558.592 1126.87 559.263 1126.19 559.263 1125.37V1125.37V1125.37C559.263 1124.54 558.592 1123.87 557.763 1123.87H550.72C549.892 1123.87 549.22 1124.54 549.22 1125.37V1125.37V1125.37C549.22 1126.19 549.892 1126.87 550.72 1126.87H557.763ZM537.677 1126.87C538.506 1126.87 539.177 1126.19 539.177 1125.37V1125.37V1125.37C539.177 1124.54 538.506 1123.87 537.677 1123.87H530.634C529.806 1123.87 529.134 1124.54 529.134 1125.37V1125.37V1125.37C529.134 1126.19 529.806 1126.87 530.634 1126.87H537.677ZM517.591 1126.87C518.419 1126.87 519.091 1126.19 519.091 1125.37V1125.37V1125.37C519.091 1124.54 518.419 1123.87 517.591 1123.87H510.548C509.719 1123.87 509.048 1124.54 509.048 1125.37V1125.37V1125.37C509.048 1126.19 509.719 1126.87 510.548 1126.87H517.591ZM497.505 1126.87C498.333 1126.87 499.005 1126.19 499.005 1125.37V1125.37V1125.37C499.005 1124.54 498.333 1123.87 497.505 1123.87H490.462C489.633 1123.87 488.962 1124.54 488.962 1125.37V1125.37V1125.37C488.962 1126.19 489.633 1126.87 490.462 1126.87H497.505ZM477.419 1126.87C478.247 1126.87 478.919 1126.19 478.919 1125.37V1125.37V1125.37C478.919 1124.54 478.247 1123.87 477.419 1123.87H470.376C469.547 1123.87 468.876 1124.54 468.876 1125.37V1125.37V1125.37C468.876 1126.19 469.547 1126.87 470.376 1126.87H477.419ZM457.332 1126.87C458.161 1126.87 458.832 1126.19 458.832 1125.37V1125.37V1125.37C458.832 1124.54 458.161 1123.87 457.332 1123.87H450.289C449.461 1123.87 448.789 1124.54 448.789 1125.37V1125.37V1125.37C448.789 1126.19 449.461 1126.87 450.289 1126.87H457.332ZM437.246 1126.87C438.075 1126.87 438.746 1126.19 438.746 1125.37V1125.37V1125.37C438.746 1124.54 438.075 1123.87 437.246 1123.87H430.203C429.375 1123.87 428.703 1124.54 428.703 1125.37V1125.37V1125.37C428.703 1126.19 429.375 1126.87 430.203 1126.87H437.246ZM417.16 1126.87C417.989 1126.87 418.66 1126.19 418.66 1125.37V1125.37V1125.37C418.66 1124.54 417.989 1123.87 417.16 1123.87H410.117C409.289 1123.87 408.617 1124.54 408.617 1125.37V1125.37V1125.37C408.617 1126.19 409.289 1126.87 410.117 1126.87H417.16ZM397.074 1126.87C397.902 1126.87 398.574 1126.19 398.574 1125.37V1125.37V1125.37C398.574 1124.54 397.902 1123.87 397.074 1123.87H390.031C389.202 1123.87 388.531 1124.54 388.531 1125.37V1125.37V1125.37C388.531 1126.19 389.202 1126.87 390.031 1126.87H397.074ZM376.988 1126.87C377.816 1126.87 378.488 1126.19 378.488 1125.37V1125.37V1125.37C378.488 1124.54 377.816 1123.87 376.988 1123.87H369.945C369.116 1123.87 368.445 1124.54 368.445 1125.37V1125.37V1125.37C368.445 1126.19 369.116 1126.87 369.945 1126.87H376.988ZM356.902 1126.87C357.73 1126.87 358.402 1126.19 358.402 1125.37V1125.37V1125.37C358.402 1124.54 357.73 1123.87 356.902 1123.87H349.858C349.03 1123.87 348.358 1124.54 348.358 1125.37V1125.37V1125.37C348.358 1126.19 349.03 1126.87 349.858 1126.87H356.902ZM336.815 1126.87C337.644 1126.87 338.315 1126.19 338.315 1125.37V1125.37V1125.37C338.315 1124.54 337.644 1123.87 336.815 1123.87H329.772C328.944 1123.87 328.272 1124.54 328.272 1125.37V1125.37V1125.37C328.272 1126.19 328.944 1126.87 329.772 1126.87H336.815ZM316.729 1126.87C317.558 1126.87 318.229 1126.19 318.229 1125.37V1125.37V1125.37C318.229 1124.54 317.558 1123.87 316.729 1123.87H309.686C308.858 1123.87 308.186 1124.54 308.186 1125.37V1125.37V1125.37C308.186 1126.19 308.858 1126.87 309.686 1126.87H316.729ZM296.643 1126.87C297.471 1126.87 298.143 1126.19 298.143 1125.37V1125.37V1125.37C298.143 1124.54 297.471 1123.87 296.643 1123.87H289.6C288.771 1123.87 288.1 1124.54 288.1 1125.37V1125.37V1125.37C288.1 1126.19 288.771 1126.87 289.6 1126.87H296.643ZM276.557 1126.87C277.385 1126.87 278.057 1126.19 278.057 1125.37V1125.37V1125.37C278.057 1124.54 277.385 1123.87 276.557 1123.87H269.514C268.685 1123.87 268.014 1124.54 268.014 1125.37V1125.37V1125.37C268.014 1126.19 268.685 1126.87 269.514 1126.87H276.557ZM256.471 1126.87C257.299 1126.87 257.971 1126.19 257.971 1125.37V1125.37V1125.37C257.971 1124.54 257.299 1123.87 256.471 1123.87H249.428C248.599 1123.87 247.928 1124.54 247.928 1125.37V1125.37V1125.37C247.928 1126.19 248.599 1126.87 249.428 1126.87H256.471ZM236.384 1126.87C237.213 1126.87 237.884 1126.19 237.884 1125.37V1125.37V1125.37C237.884 1124.54 237.213 1123.87 236.384 1123.87H229.341C228.513 1123.87 227.841 1124.54 227.841 1125.37V1125.37V1125.37C227.841 1126.19 228.513 1126.87 229.341 1126.87H236.384ZM216.298 1126.87C217.127 1126.87 217.798 1126.19 217.798 1125.37V1125.37V1125.37C217.798 1124.54 217.127 1123.87 216.298 1123.87H209.255C208.427 1123.87 207.755 1124.54 207.755 1125.37V1125.37V1125.37C207.755 1126.19 208.427 1126.87 209.255 1126.87H216.298ZM196.212 1126.87C197.041 1126.87 197.712 1126.19 197.712 1125.37V1125.37V1125.37C197.712 1124.54 197.041 1123.87 196.212 1123.87H189.169C188.341 1123.87 187.669 1124.54 187.669 1125.37V1125.37V1125.37C187.669 1126.19 188.341 1126.87 189.169 1126.87H196.212ZM176.126 1126.87C176.954 1126.87 177.626 1126.19 177.626 1125.37V1125.37V1125.37C177.626 1124.54 176.954 1123.87 176.126 1123.87H169.083C168.254 1123.87 167.583 1124.54 167.583 1125.37V1125.37V1125.37C167.583 1126.19 168.254 1126.87 169.083 1126.87H176.126ZM156.04 1126.87C156.868 1126.87 157.54 1126.19 157.54 1125.37V1125.37V1125.37C157.54 1124.54 156.868 1123.87 156.04 1123.87H148.997C148.168 1123.87 147.497 1124.54 147.497 1125.37V1125.37V1125.37C147.497 1126.19 148.168 1126.87 148.997 1126.87H156.04ZM135.953 1126.87C136.782 1126.87 137.453 1126.19 137.453 1125.37V1125.37V1125.37C137.453 1124.54 136.782 1123.87 135.953 1123.87H128.91C128.082 1123.87 127.41 1124.54 127.41 1125.37V1125.37V1125.37C127.41 1126.19 128.082 1126.87 128.91 1126.87H135.953ZM115.867 1126.87C116.696 1126.87 117.367 1126.19 117.367 1125.37V1125.37V1125.37C117.367 1124.54 116.696 1123.87 115.867 1123.87H108.824C107.996 1123.87 107.324 1124.54 107.324 1125.37V1125.37V1125.37C107.324 1126.19 107.996 1126.87 108.824 1126.87H115.867ZM95.7811 1126.87C96.6095 1126.87 97.2811 1126.19 97.2811 1125.37V1125.37V1125.37C97.2811 1124.54 96.6095 1123.87 95.7811 1123.87H88.738C87.9096 1123.87 87.238 1124.54 87.238 1125.37V1125.37V1125.37C87.238 1126.19 87.9096 1126.87 88.738 1126.87H95.7811ZM75.6949 1126.87C76.5233 1126.87 77.1949 1126.19 77.1949 1125.37V1125.37V1125.37C77.1949 1124.54 76.5233 1123.87 75.6949 1123.87H68.6518C67.8234 1123.87 67.1518 1124.54 67.1518 1125.37V1125.37V1125.37C67.1518 1126.19 67.8234 1126.87 68.6518 1126.87H75.6949ZM55.6087 1126.87C56.4372 1126.87 57.1087 1126.19 57.1087 1125.37V1125.37V1125.37C57.1087 1124.54 56.4372 1123.87 55.6087 1123.87H48.5656C47.7372 1123.87 47.0656 1124.54 47.0656 1125.37V1125.37V1125.37C47.0656 1126.19 47.7372 1126.87 48.5656 1126.87H55.6087Z" fill="#CB3838" fill-opacity="0.8"/>
</svg>
