<svg width="1242" height="704" viewBox="0 0 1242 704" fill="none" xmlns="http://www.w3.org/2000/svg">
<rect x="38.5588" y="15.876" width="1203" height="687.572" rx="30" fill="#FFF0C4"/>
<path d="M44.1526 78.9858C44.1526 76.4077 44.387 73.6538 44.8557 70.7241C45.3831 67.7358 46.1741 64.8062 47.2288 61.9351C48.342 59.0054 49.7483 56.2515 51.4475 53.6733C53.2053 51.0366 55.3147 48.7808 57.7756 46.9058L67.3557 53.5854C65.7151 55.4604 64.4846 57.2476 63.6643 58.9468C62.844 60.646 62.1995 62.3452 61.7307 64.0444C63.4885 64.3374 65.1292 64.9526 66.6526 65.8901C68.176 66.769 69.4944 67.8823 70.6077 69.23C71.7209 70.519 72.5999 72.0132 73.2444 73.7124C73.8889 75.353 74.2112 77.1108 74.2112 78.9858C74.2112 81.0366 73.801 82.9702 72.9807 84.7866C72.219 86.5444 71.135 88.1265 69.7288 89.5327C68.3811 90.8804 66.7991 91.9644 64.9827 92.7847C63.1663 93.5464 61.262 93.9272 59.2698 93.9272C57.1604 93.9272 55.1682 93.5464 53.2932 92.7847C51.4768 91.9644 49.8655 90.8804 48.4592 89.5327C47.1116 88.1265 46.0569 86.5444 45.2952 84.7866C44.5334 82.9702 44.1526 81.0366 44.1526 78.9858ZM8.11743 78.9858C8.11743 76.4077 8.35181 73.6538 8.82056 70.7241C9.3479 67.7358 10.1389 64.8062 11.1936 61.9351C12.3069 59.0054 13.7424 56.2515 15.5002 53.6733C17.2581 51.0366 19.3674 48.7808 21.8284 46.9058L31.3206 53.5854C29.6799 55.4604 28.4495 57.2476 27.6292 58.9468C26.8674 60.646 26.2522 62.3452 25.7834 64.0444C27.5413 64.3374 29.1819 64.9526 30.7053 65.8901C32.2288 66.769 33.5178 67.8823 34.5725 69.23C35.6858 70.519 36.5647 72.0132 37.2092 73.7124C37.8538 75.353 38.176 77.1108 38.176 78.9858C38.176 81.0366 37.7659 82.9702 36.9456 84.7866C36.1838 86.5444 35.0999 88.1265 33.6936 89.5327C32.3459 90.8804 30.7639 91.9644 28.9475 92.7847C27.1311 93.5464 25.2268 93.9272 23.2346 93.9272C21.1252 93.9272 19.1331 93.5464 17.2581 92.7847C15.4417 91.9644 13.8596 90.8804 12.512 89.5327C11.1643 88.1265 10.0803 86.5444 9.26001 84.7866C8.49829 82.9702 8.11743 81.0366 8.11743 78.9858Z" fill="#CB3838"/>
<path d="M1194.3 632.384C1194.3 634.962 1194.03 637.746 1193.51 640.734C1193.04 643.664 1192.25 646.593 1191.13 649.523C1190.08 652.394 1188.67 655.148 1186.91 657.785C1185.16 660.421 1183.05 662.648 1180.59 664.464L1171.09 657.785C1172.68 655.91 1173.88 654.123 1174.7 652.423C1175.52 650.724 1176.16 649.025 1176.63 647.326C1174.87 647.033 1173.23 646.447 1171.71 645.568C1170.19 644.689 1168.87 643.605 1167.75 642.316C1166.7 640.968 1165.85 639.445 1165.21 637.746C1164.56 636.046 1164.24 634.259 1164.24 632.384C1164.24 630.392 1164.62 628.488 1165.38 626.671C1166.2 624.855 1167.29 623.273 1168.63 621.925C1170.04 620.519 1171.62 619.435 1173.38 618.673C1175.2 617.853 1177.13 617.443 1179.18 617.443C1181.29 617.443 1183.25 617.853 1185.07 618.673C1186.94 619.435 1188.55 620.519 1189.9 621.925C1191.25 623.273 1192.3 624.855 1193.07 626.671C1193.89 628.488 1194.3 630.392 1194.3 632.384ZM1230.24 632.384C1230.24 634.962 1229.98 637.746 1229.45 640.734C1228.98 643.664 1228.19 646.593 1227.08 649.523C1226.03 652.394 1224.62 655.148 1222.86 657.785C1221.16 660.421 1219.08 662.648 1216.62 664.464L1207.04 657.785C1208.68 655.91 1209.91 654.123 1210.73 652.423C1211.55 650.724 1212.2 649.025 1212.67 647.326C1210.91 647.033 1209.27 646.447 1207.74 645.568C1206.22 644.689 1204.9 643.605 1203.79 642.316C1202.68 640.968 1201.8 639.445 1201.15 637.746C1200.51 636.046 1200.19 634.259 1200.19 632.384C1200.19 630.392 1200.57 628.488 1201.33 626.671C1202.15 624.855 1203.23 623.273 1204.58 621.925C1205.99 620.519 1207.57 619.435 1209.33 618.673C1211.14 617.853 1213.08 617.443 1215.13 617.443C1217.24 617.443 1219.2 617.853 1221.02 618.673C1222.89 619.435 1224.5 620.519 1225.85 621.925C1227.26 623.273 1228.34 624.855 1229.1 626.671C1229.86 628.488 1230.24 630.392 1230.24 632.384Z" fill="#CB3838"/>
<path fill-rule="evenodd" clip-rule="evenodd" d="M30.1366 678.922C29.3142 678.823 28.7859 678.028 28.9467 677.215V677.215V677.215C29.1075 676.402 29.8965 675.881 30.7202 675.969C31.3234 676.034 31.9368 676.067 32.5588 676.067H36.0814C36.9098 676.067 37.5814 676.739 37.5814 677.567V677.567V677.567C37.5814 678.396 36.9098 679.067 36.0814 679.067H32.5588C31.739 679.067 30.9306 679.018 30.1366 678.922ZM1217.56 24.0067C1217.56 24.8352 1216.89 25.5067 1216.06 25.5067V25.5067V25.5067C1215.23 25.5067 1214.56 24.8352 1214.56 24.0067V20.5181C1214.56 19.896 1214.53 19.2826 1214.46 18.6794C1214.37 17.8557 1214.89 17.0667 1215.71 16.9059V16.9059V16.9059C1216.52 16.7452 1217.31 17.2734 1217.41 18.0958C1217.51 18.8898 1217.56 19.6982 1217.56 20.5181V24.0067ZM1213.31 8.19168C1213.82 8.84372 1213.63 9.77938 1212.94 10.2402V10.2402V10.2402C1212.26 10.7011 1211.33 10.5118 1210.81 9.86653C1210.04 8.90981 1209.17 8.03807 1208.21 7.26783C1207.57 6.74832 1207.38 5.82161 1207.84 5.13321V5.13321V5.13321C1208.3 4.44482 1209.23 4.25606 1209.89 4.76706C1211.16 5.76619 1212.31 6.91676 1213.31 8.19168ZM12.5588 655.578C12.5588 654.75 13.2304 654.078 14.0588 654.078V654.078V654.078C14.8873 654.078 15.5588 654.75 15.5588 655.578V659.067C15.5588 659.689 15.5921 660.303 15.6569 660.906C15.7453 661.729 15.2237 662.518 14.411 662.679V662.679V662.679C13.5983 662.84 12.8033 662.312 12.704 661.489C12.6082 660.695 12.5588 659.887 12.5588 659.067V655.578ZM16.8078 671.393C16.2968 670.741 16.4856 669.806 17.174 669.345V669.345V669.345C17.8624 668.884 18.7891 669.073 19.3086 669.719C20.0789 670.675 20.9506 671.547 21.9073 672.317C22.5526 672.837 22.7419 673.764 22.281 674.452V674.452V674.452C21.8201 675.14 20.8844 675.329 20.2324 674.818C18.9575 673.819 17.8069 672.668 16.8078 671.393ZM12.5588 642.601C12.5588 643.43 13.2304 644.101 14.0588 644.101V644.101V644.101C14.8873 644.101 15.5588 643.43 15.5588 642.601V635.624C15.5588 634.795 14.8873 634.124 14.0588 634.124V634.124V634.124C13.2304 634.124 12.5588 634.795 12.5588 635.624V642.601ZM12.5588 622.646C12.5588 623.475 13.2304 624.146 14.0588 624.146V624.146V624.146C14.8873 624.146 15.5588 623.475 15.5588 622.646V615.669C15.5588 614.841 14.8873 614.169 14.0588 614.169V614.169V614.169C13.2304 614.169 12.5588 614.841 12.5588 615.669V622.646ZM12.5588 602.692C12.5588 603.52 13.2304 604.192 14.0588 604.192V604.192V604.192C14.8873 604.192 15.5588 603.52 15.5588 602.692V595.714C15.5588 594.886 14.8873 594.214 14.0588 594.214V594.214V594.214C13.2304 594.214 12.5588 594.886 12.5588 595.714V602.692ZM12.5588 582.737C12.5588 583.566 13.2304 584.237 14.0588 584.237V584.237V584.237C14.8873 584.237 15.5588 583.566 15.5588 582.737V575.76C15.5588 574.931 14.8873 574.26 14.0588 574.26V574.26V574.26C13.2304 574.26 12.5588 574.931 12.5588 575.76V582.737ZM12.5588 562.782C12.5588 563.611 13.2304 564.282 14.0588 564.282V564.282V564.282C14.8873 564.282 15.5588 563.611 15.5588 562.782V555.805C15.5588 554.977 14.8873 554.305 14.0588 554.305V554.305V554.305C13.2304 554.305 12.5588 554.977 12.5588 555.805V562.782ZM12.5588 542.828C12.5588 543.656 13.2304 544.328 14.0588 544.328V544.328V544.328C14.8873 544.328 15.5588 543.656 15.5588 542.828V535.85C15.5588 535.022 14.8873 534.35 14.0588 534.35V534.35V534.35C13.2304 534.35 12.5588 535.022 12.5588 535.85V542.828ZM12.5588 522.873C12.5588 523.702 13.2304 524.373 14.0588 524.373V524.373V524.373C14.8873 524.373 15.5588 523.702 15.5588 522.873V515.896C15.5588 515.067 14.8873 514.396 14.0588 514.396V514.396V514.396C13.2304 514.396 12.5588 515.067 12.5588 515.896V522.873ZM12.5588 502.918C12.5588 503.747 13.2304 504.418 14.0588 504.418V504.418V504.418C14.8873 504.418 15.5588 503.747 15.5588 502.918V495.941C15.5588 495.113 14.8873 494.441 14.0588 494.441V494.441V494.441C13.2304 494.441 12.5588 495.113 12.5588 495.941V502.918ZM12.5588 482.964C12.5588 483.792 13.2304 484.464 14.0588 484.464V484.464V484.464C14.8873 484.464 15.5588 483.792 15.5588 482.964V475.987C15.5588 475.158 14.8873 474.487 14.0588 474.487V474.487V474.487C13.2304 474.487 12.5588 475.158 12.5588 475.987V482.964ZM12.5588 463.009C12.5588 463.838 13.2304 464.509 14.0588 464.509V464.509V464.509C14.8873 464.509 15.5588 463.838 15.5588 463.009V456.032C15.5588 455.203 14.8873 454.532 14.0588 454.532V454.532V454.532C13.2304 454.532 12.5588 455.203 12.5588 456.032V463.009ZM12.5588 443.055C12.5588 443.883 13.2304 444.555 14.0588 444.555V444.555V444.555C14.8873 444.555 15.5588 443.883 15.5588 443.055V436.077C15.5588 435.249 14.8873 434.577 14.0588 434.577V434.577V434.577C13.2304 434.577 12.5588 435.249 12.5588 436.077V443.055ZM12.5588 423.1C12.5588 423.928 13.2304 424.6 14.0588 424.6V424.6V424.6C14.8873 424.6 15.5588 423.928 15.5588 423.1V416.123C15.5588 415.294 14.8873 414.623 14.0588 414.623V414.623V414.623C13.2304 414.623 12.5588 415.294 12.5588 416.123V423.1ZM12.5588 403.145C12.5588 403.974 13.2304 404.645 14.0588 404.645V404.645V404.645C14.8873 404.645 15.5588 403.974 15.5588 403.145V396.168C15.5588 395.339 14.8873 394.668 14.0588 394.668V394.668V394.668C13.2304 394.668 12.5588 395.339 12.5588 396.168V403.145ZM12.5588 383.191C12.5588 384.019 13.2304 384.691 14.0588 384.691V384.691V384.691C14.8873 384.691 15.5588 384.019 15.5588 383.191V376.213C15.5588 375.385 14.8873 374.713 14.0588 374.713V374.713V374.713C13.2304 374.713 12.5588 375.385 12.5588 376.213V383.191ZM12.5588 363.236C12.5588 364.064 13.2304 364.736 14.0588 364.736V364.736V364.736C14.8873 364.736 15.5588 364.064 15.5588 363.236V356.259C15.5588 355.43 14.8873 354.759 14.0588 354.759V354.759V354.759C13.2304 354.759 12.5588 355.43 12.5588 356.259V363.236ZM12.5588 343.281C12.5588 344.11 13.2304 344.781 14.0588 344.781V344.781V344.781C14.8873 344.781 15.5588 344.11 15.5588 343.281V336.304C15.5588 335.476 14.8873 334.804 14.0588 334.804V334.804V334.804C13.2304 334.804 12.5588 335.476 12.5588 336.304V343.281ZM12.5588 323.327C12.5588 324.155 13.2304 324.827 14.0588 324.827V324.827V324.827C14.8873 324.827 15.5588 324.155 15.5588 323.327V316.349C15.5588 315.521 14.8873 314.849 14.0588 314.849V314.849V314.849C13.2304 314.849 12.5588 315.521 12.5588 316.349V323.327ZM12.5588 303.372C12.5588 304.2 13.2304 304.872 14.0588 304.872V304.872V304.872C14.8873 304.872 15.5588 304.2 15.5588 303.372V296.395C15.5588 295.566 14.8873 294.895 14.0588 294.895V294.895V294.895C13.2304 294.895 12.5588 295.566 12.5588 296.395V303.372ZM12.5588 283.417C12.5588 284.246 13.2304 284.917 14.0588 284.917V284.917V284.917C14.8873 284.917 15.5588 284.246 15.5588 283.417V276.44C15.5588 275.612 14.8873 274.94 14.0588 274.94V274.94V274.94C13.2304 274.94 12.5588 275.612 12.5588 276.44V283.417ZM12.5588 263.463C12.5588 264.291 13.2304 264.963 14.0588 264.963V264.963V264.963C14.8873 264.963 15.5588 264.291 15.5588 263.463V256.485C15.5588 255.657 14.8873 254.985 14.0588 254.985V254.985V254.985C13.2304 254.985 12.5588 255.657 12.5588 256.485V263.463ZM12.5588 243.508C12.5588 244.336 13.2304 245.008 14.0588 245.008V245.008V245.008C14.8873 245.008 15.5588 244.336 15.5588 243.508V236.531C15.5588 235.702 14.8873 235.031 14.0588 235.031V235.031V235.031C13.2304 235.031 12.5588 235.702 12.5588 236.531V243.508ZM12.5588 223.553C12.5588 224.382 13.2304 225.053 14.0588 225.053V225.053V225.053C14.8873 225.053 15.5588 224.382 15.5588 223.553V216.576C15.5588 215.748 14.8873 215.076 14.0588 215.076V215.076V215.076C13.2304 215.076 12.5588 215.748 12.5588 216.576V223.553ZM12.5588 203.599C12.5588 204.427 13.2304 205.099 14.0588 205.099V205.099V205.099C14.8873 205.099 15.5588 204.427 15.5588 203.599V196.621C15.5588 195.793 14.8873 195.121 14.0588 195.121V195.121V195.121C13.2304 195.121 12.5588 195.793 12.5588 196.621V203.599ZM12.5588 183.644C12.5588 184.473 13.2304 185.144 14.0588 185.144V185.144V185.144C14.8873 185.144 15.5588 184.473 15.5588 183.644V176.667C15.5588 175.838 14.8873 175.167 14.0588 175.167V175.167V175.167C13.2304 175.167 12.5588 175.838 12.5588 176.667V183.644ZM12.5588 163.689C12.5588 164.518 13.2304 165.189 14.0588 165.189V165.189V165.189C14.8873 165.189 15.5588 164.518 15.5588 163.689V156.712C15.5588 155.884 14.8873 155.212 14.0588 155.212V155.212V155.212C13.2304 155.212 12.5588 155.884 12.5588 156.712V163.689ZM109.382 0.518066C108.554 0.518066 107.882 1.18964 107.882 2.01807V2.01807V2.01807C107.882 2.84649 108.554 3.51807 109.382 3.51807H116.425C117.254 3.51807 117.925 2.84649 117.925 2.01807V2.01807V2.01807C117.925 1.18964 117.254 0.518066 116.425 0.518066H109.382ZM129.468 0.518066C128.64 0.518066 127.968 1.18964 127.968 2.01807V2.01807V2.01807C127.968 2.84649 128.64 3.51807 129.468 3.51807H136.511C137.34 3.51807 138.011 2.84649 138.011 2.01807V2.01807V2.01807C138.011 1.18964 137.34 0.518066 136.511 0.518066H129.468ZM149.555 0.518066C148.726 0.518066 148.055 1.18964 148.055 2.01807V2.01807V2.01807C148.055 2.84649 148.726 3.51807 149.555 3.51807H156.598C157.426 3.51807 158.098 2.84649 158.098 2.01807V2.01807V2.01807C158.098 1.18964 157.426 0.518066 156.598 0.518066H149.555ZM169.641 0.518066C168.812 0.518066 168.141 1.18964 168.141 2.01807V2.01807V2.01807C168.141 2.84649 168.812 3.51807 169.641 3.51807H176.684C177.512 3.51807 178.184 2.84649 178.184 2.01807V2.01807V2.01807C178.184 1.18964 177.512 0.518066 176.684 0.518066H169.641ZM189.727 0.518066C188.899 0.518066 188.227 1.18964 188.227 2.01807V2.01807V2.01807C188.227 2.84649 188.899 3.51807 189.727 3.51807H196.77C197.599 3.51807 198.27 2.84649 198.27 2.01807V2.01807V2.01807C198.27 1.18964 197.599 0.518066 196.77 0.518066H189.727ZM209.813 0.518066C208.985 0.518066 208.313 1.18964 208.313 2.01807V2.01807V2.01807C208.313 2.84649 208.985 3.51807 209.813 3.51807H216.856C217.685 3.51807 218.356 2.84649 218.356 2.01807V2.01807V2.01807C218.356 1.18964 217.685 0.518066 216.856 0.518066H209.813ZM229.899 0.518066C229.071 0.518066 228.399 1.18964 228.399 2.01807V2.01807V2.01807C228.399 2.84649 229.071 3.51807 229.899 3.51807H236.942C237.771 3.51807 238.442 2.84649 238.442 2.01807V2.01807V2.01807C238.442 1.18964 237.771 0.518066 236.942 0.518066H229.899ZM249.986 0.518066C249.157 0.518066 248.486 1.18964 248.486 2.01807V2.01807V2.01807C248.486 2.84649 249.157 3.51807 249.986 3.51807H257.029C257.857 3.51807 258.529 2.84649 258.529 2.01807V2.01807V2.01807C258.529 1.18964 257.857 0.518066 257.029 0.518066H249.986ZM270.072 0.518066C269.243 0.518066 268.572 1.18964 268.572 2.01807V2.01807V2.01807C268.572 2.84649 269.243 3.51807 270.072 3.51807H277.115C277.943 3.51807 278.615 2.84649 278.615 2.01807V2.01807V2.01807C278.615 1.18964 277.943 0.518066 277.115 0.518066H270.072ZM290.158 0.518066C289.33 0.518066 288.658 1.18964 288.658 2.01807V2.01807V2.01807C288.658 2.84649 289.33 3.51807 290.158 3.51807H297.201C298.03 3.51807 298.701 2.84649 298.701 2.01807V2.01807V2.01807C298.701 1.18964 298.03 0.518066 297.201 0.518066H290.158ZM310.244 0.518066C309.416 0.518066 308.744 1.18964 308.744 2.01807V2.01807V2.01807C308.744 2.84649 309.416 3.51807 310.244 3.51807H317.287C318.116 3.51807 318.787 2.84649 318.787 2.01807V2.01807V2.01807C318.787 1.18964 318.116 0.518066 317.287 0.518066H310.244ZM330.33 0.518066C329.502 0.518066 328.83 1.18964 328.83 2.01807V2.01807V2.01807C328.83 2.84649 329.502 3.51807 330.33 3.51807H337.373C338.202 3.51807 338.873 2.84649 338.873 2.01807V2.01807V2.01807C338.873 1.18964 338.202 0.518066 337.373 0.518066H330.33ZM350.417 0.518066C349.588 0.518066 348.917 1.18964 348.917 2.01807V2.01807V2.01807C348.917 2.84649 349.588 3.51807 350.417 3.51807H357.46C358.288 3.51807 358.96 2.84649 358.96 2.01807V2.01807V2.01807C358.96 1.18964 358.288 0.518066 357.46 0.518066H350.417ZM370.503 0.518066C369.674 0.518066 369.003 1.18964 369.003 2.01807V2.01807V2.01807C369.003 2.84649 369.674 3.51807 370.503 3.51807H377.546C378.374 3.51807 379.046 2.84649 379.046 2.01807V2.01807V2.01807C379.046 1.18964 378.374 0.518066 377.546 0.518066H370.503ZM390.589 0.518066C389.761 0.518066 389.089 1.18964 389.089 2.01807V2.01807V2.01807C389.089 2.84649 389.761 3.51807 390.589 3.51807H397.632C398.46 3.51807 399.132 2.84649 399.132 2.01807V2.01807V2.01807C399.132 1.18964 398.46 0.518066 397.632 0.518066H390.589ZM410.675 0.518066C409.847 0.518066 409.175 1.18964 409.175 2.01807V2.01807V2.01807C409.175 2.84649 409.847 3.51807 410.675 3.51807H417.718C418.547 3.51807 419.218 2.84649 419.218 2.01807V2.01807V2.01807C419.218 1.18964 418.547 0.518066 417.718 0.518066H410.675ZM430.761 0.518066C429.933 0.518066 429.261 1.18964 429.261 2.01807V2.01807V2.01807C429.261 2.84649 429.933 3.51807 430.761 3.51807H437.804C438.633 3.51807 439.304 2.84649 439.304 2.01807V2.01807V2.01807C439.304 1.18964 438.633 0.518066 437.804 0.518066H430.761ZM450.847 0.518066C450.019 0.518066 449.347 1.18964 449.347 2.01807V2.01807V2.01807C449.347 2.84649 450.019 3.51807 450.847 3.51807H457.891C458.719 3.51807 459.391 2.84649 459.391 2.01807V2.01807V2.01807C459.391 1.18964 458.719 0.518066 457.891 0.518066H450.847ZM470.934 0.518066C470.105 0.518066 469.434 1.18964 469.434 2.01807V2.01807V2.01807C469.434 2.84649 470.105 3.51807 470.934 3.51807H477.977C478.805 3.51807 479.477 2.84649 479.477 2.01807V2.01807V2.01807C479.477 1.18964 478.805 0.518066 477.977 0.518066H470.934ZM491.02 0.518066C490.191 0.518066 489.52 1.18964 489.52 2.01807V2.01807V2.01807C489.52 2.84649 490.191 3.51807 491.02 3.51807H498.063C498.891 3.51807 499.563 2.84649 499.563 2.01807V2.01807V2.01807C499.563 1.18964 498.891 0.518066 498.063 0.518066H491.02ZM511.106 0.518066C510.278 0.518066 509.606 1.18964 509.606 2.01807V2.01807V2.01807C509.606 2.84649 510.278 3.51807 511.106 3.51807H518.149C518.978 3.51807 519.649 2.84649 519.649 2.01807V2.01807V2.01807C519.649 1.18964 518.978 0.518066 518.149 0.518066H511.106ZM531.192 0.518066C530.364 0.518066 529.692 1.18964 529.692 2.01807V2.01807V2.01807C529.692 2.84649 530.364 3.51807 531.192 3.51807H538.235C539.064 3.51807 539.735 2.84649 539.735 2.01807V2.01807V2.01807C539.735 1.18964 539.064 0.518066 538.235 0.518066H531.192ZM551.278 0.518066C550.45 0.518066 549.778 1.18964 549.778 2.01807V2.01807V2.01807C549.778 2.84649 550.45 3.51807 551.278 3.51807H558.321C559.15 3.51807 559.821 2.84649 559.821 2.01807V2.01807V2.01807C559.821 1.18964 559.15 0.518066 558.321 0.518066H551.278ZM571.365 0.518066C570.536 0.518066 569.865 1.18964 569.865 2.01807V2.01807V2.01807C569.865 2.84649 570.536 3.51807 571.365 3.51807H578.408C579.236 3.51807 579.908 2.84649 579.908 2.01807V2.01807V2.01807C579.908 1.18964 579.236 0.518066 578.408 0.518066H571.365ZM591.451 0.518066C590.622 0.518066 589.951 1.18964 589.951 2.01807V2.01807V2.01807C589.951 2.84649 590.622 3.51807 591.451 3.51807H598.494C599.322 3.51807 599.994 2.84649 599.994 2.01807V2.01807V2.01807C599.994 1.18964 599.322 0.518066 598.494 0.518066H591.451ZM611.537 0.518066C610.708 0.518066 610.037 1.18964 610.037 2.01807V2.01807V2.01807C610.037 2.84649 610.708 3.51807 611.537 3.51807H618.58C619.408 3.51807 620.08 2.84649 620.08 2.01807V2.01807V2.01807C620.08 1.18964 619.408 0.518066 618.58 0.518066H611.537ZM631.623 0.518066C630.795 0.518066 630.123 1.18964 630.123 2.01807V2.01807V2.01807C630.123 2.84649 630.795 3.51807 631.623 3.51807H638.666C639.495 3.51807 640.166 2.84649 640.166 2.01807V2.01807V2.01807C640.166 1.18964 639.495 0.518066 638.666 0.518066H631.623ZM651.709 0.518066C650.881 0.518066 650.209 1.18964 650.209 2.01807V2.01807V2.01807C650.209 2.84649 650.881 3.51807 651.709 3.51807H658.752C659.581 3.51807 660.252 2.84649 660.252 2.01807V2.01807V2.01807C660.252 1.18964 659.581 0.518066 658.752 0.518066H651.709ZM671.795 0.518066C670.967 0.518066 670.295 1.18964 670.295 2.01807V2.01807V2.01807C670.295 2.84649 670.967 3.51807 671.795 3.51807H678.839C679.667 3.51807 680.339 2.84649 680.339 2.01807V2.01807V2.01807C680.339 1.18964 679.667 0.518066 678.839 0.518066H671.795ZM691.882 0.518066C691.053 0.518066 690.382 1.18964 690.382 2.01807V2.01807V2.01807C690.382 2.84649 691.053 3.51807 691.882 3.51807H698.925C699.753 3.51807 700.425 2.84649 700.425 2.01807V2.01807V2.01807C700.425 1.18964 699.753 0.518066 698.925 0.518066H691.882ZM711.968 0.518066C711.139 0.518066 710.468 1.18964 710.468 2.01807V2.01807V2.01807C710.468 2.84649 711.139 3.51807 711.968 3.51807H719.011C719.839 3.51807 720.511 2.84649 720.511 2.01807V2.01807V2.01807C720.511 1.18964 719.839 0.518066 719.011 0.518066H711.968ZM732.054 0.518066C731.226 0.518066 730.554 1.18964 730.554 2.01807V2.01807V2.01807C730.554 2.84649 731.226 3.51807 732.054 3.51807H739.097C739.926 3.51807 740.597 2.84649 740.597 2.01807V2.01807V2.01807C740.597 1.18964 739.926 0.518066 739.097 0.518066H732.054ZM752.14 0.518066C751.312 0.518066 750.64 1.18964 750.64 2.01807V2.01807V2.01807C750.64 2.84649 751.312 3.51807 752.14 3.51807H759.183C760.012 3.51807 760.683 2.84649 760.683 2.01807V2.01807V2.01807C760.683 1.18964 760.012 0.518066 759.183 0.518066H752.14ZM772.226 0.518066C771.398 0.518066 770.726 1.18964 770.726 2.01807V2.01807V2.01807C770.726 2.84649 771.398 3.51807 772.226 3.51807H779.269C780.098 3.51807 780.769 2.84649 780.769 2.01807V2.01807V2.01807C780.769 1.18964 780.098 0.518066 779.269 0.518066H772.226ZM792.313 0.518066C791.484 0.518066 790.813 1.18964 790.813 2.01807V2.01807V2.01807C790.813 2.84649 791.484 3.51807 792.313 3.51807H799.356C800.184 3.51807 800.856 2.84649 800.856 2.01807V2.01807V2.01807C800.856 1.18964 800.184 0.518066 799.356 0.518066H792.313ZM812.399 0.518066C811.57 0.518066 810.899 1.18964 810.899 2.01807V2.01807V2.01807C810.899 2.84649 811.57 3.51807 812.399 3.51807H819.442C820.27 3.51807 820.942 2.84649 820.942 2.01807V2.01807V2.01807C820.942 1.18964 820.27 0.518066 819.442 0.518066H812.399ZM832.485 0.518066C831.656 0.518066 830.985 1.18964 830.985 2.01807V2.01807V2.01807C830.985 2.84649 831.656 3.51807 832.485 3.51807H839.528C840.356 3.51807 841.028 2.84649 841.028 2.01807V2.01807V2.01807C841.028 1.18964 840.356 0.518066 839.528 0.518066H832.485ZM852.571 0.518066C851.743 0.518066 851.071 1.18964 851.071 2.01807V2.01807V2.01807C851.071 2.84649 851.743 3.51807 852.571 3.51807H859.614C860.443 3.51807 861.114 2.84649 861.114 2.01807V2.01807V2.01807C861.114 1.18964 860.443 0.518066 859.614 0.518066H852.571ZM872.657 0.518066C871.829 0.518066 871.157 1.18964 871.157 2.01807V2.01807V2.01807C871.157 2.84649 871.829 3.51807 872.657 3.51807H879.7C880.529 3.51807 881.2 2.84649 881.2 2.01807V2.01807V2.01807C881.2 1.18964 880.529 0.518066 879.7 0.518066H872.657ZM892.743 0.518066C891.915 0.518066 891.243 1.18964 891.243 2.01807V2.01807V2.01807C891.243 2.84649 891.915 3.51807 892.743 3.51807H899.787C900.615 3.51807 901.287 2.84649 901.287 2.01807V2.01807V2.01807C901.287 1.18964 900.615 0.518066 899.787 0.518066H892.743ZM912.83 0.518066C912.001 0.518066 911.33 1.18964 911.33 2.01807V2.01807V2.01807C911.33 2.84649 912.001 3.51807 912.83 3.51807H919.873C920.701 3.51807 921.373 2.84649 921.373 2.01807V2.01807V2.01807C921.373 1.18964 920.701 0.518066 919.873 0.518066H912.83ZM932.916 0.518066C932.087 0.518066 931.416 1.18964 931.416 2.01807V2.01807V2.01807C931.416 2.84649 932.087 3.51807 932.916 3.51807H939.959C940.787 3.51807 941.459 2.84649 941.459 2.01807V2.01807V2.01807C941.459 1.18964 940.787 0.518066 939.959 0.518066H932.916ZM953.002 0.518066C952.174 0.518066 951.502 1.18964 951.502 2.01807V2.01807V2.01807C951.502 2.84649 952.174 3.51807 953.002 3.51807H960.045C960.874 3.51807 961.545 2.84649 961.545 2.01807V2.01807V2.01807C961.545 1.18964 960.874 0.518066 960.045 0.518066H953.002ZM973.088 0.518066C972.26 0.518066 971.588 1.18964 971.588 2.01807V2.01807V2.01807C971.588 2.84649 972.26 3.51807 973.088 3.51807H980.131C980.96 3.51807 981.631 2.84649 981.631 2.01807V2.01807V2.01807C981.631 1.18964 980.96 0.518066 980.131 0.518066H973.088ZM993.174 0.518066C992.346 0.518066 991.674 1.18964 991.674 2.01807V2.01807V2.01807C991.674 2.84649 992.346 3.51807 993.174 3.51807H1000.22C1001.05 3.51807 1001.72 2.84649 1001.72 2.01807V2.01807V2.01807C1001.72 1.18964 1001.05 0.518066 1000.22 0.518066H993.174ZM1013.26 0.518066C1012.43 0.518066 1011.76 1.18964 1011.76 2.01807V2.01807V2.01807C1011.76 2.84649 1012.43 3.51807 1013.26 3.51807H1020.3C1021.13 3.51807 1021.8 2.84649 1021.8 2.01807V2.01807V2.01807C1021.8 1.18964 1021.13 0.518066 1020.3 0.518066H1013.26ZM1033.35 0.518066C1032.52 0.518066 1031.85 1.18964 1031.85 2.01807V2.01807V2.01807C1031.85 2.84649 1032.52 3.51807 1033.35 3.51807H1040.39C1041.22 3.51807 1041.89 2.84649 1041.89 2.01807V2.01807V2.01807C1041.89 1.18964 1041.22 0.518066 1040.39 0.518066H1033.35ZM1053.43 0.518066C1052.6 0.518066 1051.93 1.18964 1051.93 2.01807V2.01807V2.01807C1051.93 2.84649 1052.6 3.51807 1053.43 3.51807H1060.48C1061.3 3.51807 1061.98 2.84649 1061.98 2.01807V2.01807V2.01807C1061.98 1.18964 1061.3 0.518066 1060.48 0.518066H1053.43ZM1073.52 0.518066C1072.69 0.518066 1072.02 1.18964 1072.02 2.01807V2.01807V2.01807C1072.02 2.84649 1072.69 3.51807 1073.52 3.51807H1080.56C1081.39 3.51807 1082.06 2.84649 1082.06 2.01807V2.01807V2.01807C1082.06 1.18964 1081.39 0.518066 1080.56 0.518066H1073.52ZM1093.61 0.518066C1092.78 0.518066 1092.11 1.18964 1092.11 2.01807V2.01807V2.01807C1092.11 2.84649 1092.78 3.51807 1093.61 3.51807H1100.65C1101.48 3.51807 1102.15 2.84649 1102.15 2.01807V2.01807V2.01807C1102.15 1.18964 1101.48 0.518066 1100.65 0.518066H1093.61ZM1113.69 0.518066C1112.86 0.518066 1112.19 1.18964 1112.19 2.01807V2.01807V2.01807C1112.19 2.84649 1112.86 3.51807 1113.69 3.51807H1120.73C1121.56 3.51807 1122.23 2.84649 1122.23 2.01807V2.01807V2.01807C1122.23 1.18964 1121.56 0.518066 1120.73 0.518066H1113.69ZM1133.78 0.518066C1132.95 0.518066 1132.28 1.18964 1132.28 2.01807V2.01807V2.01807C1132.28 2.84649 1132.95 3.51807 1133.78 3.51807H1140.82C1141.65 3.51807 1142.32 2.84649 1142.32 2.01807V2.01807V2.01807C1142.32 1.18964 1141.65 0.518066 1140.82 0.518066H1133.78ZM1153.86 0.518066C1153.04 0.518066 1152.36 1.18964 1152.36 2.01807V2.01807V2.01807C1152.36 2.84649 1153.04 3.51807 1153.86 3.51807H1160.91C1161.74 3.51807 1162.41 2.84649 1162.41 2.01807V2.01807V2.01807C1162.41 1.18964 1161.74 0.518066 1160.91 0.518066H1153.86ZM1173.95 0.518066C1173.12 0.518066 1172.45 1.18964 1172.45 2.01807V2.01807V2.01807C1172.45 2.84649 1173.12 3.51807 1173.95 3.51807H1180.99C1181.82 3.51807 1182.49 2.84649 1182.49 2.01807V2.01807V2.01807C1182.49 1.18964 1181.82 0.518066 1180.99 0.518066H1173.95ZM1194.04 0.518066C1193.21 0.518066 1192.54 1.18964 1192.54 2.01807V2.01807V2.01807C1192.54 2.84649 1193.21 3.51807 1194.04 3.51807H1197.56C1198.18 3.51807 1198.79 3.55135 1199.4 3.61608C1200.22 3.70448 1201.01 3.18291 1201.17 2.37023V2.37023V2.37023C1201.33 1.55754 1200.8 0.762557 1199.98 0.663261C1199.19 0.5674 1198.38 0.518066 1197.56 0.518066H1194.04ZM1217.56 36.9841C1217.56 36.1556 1216.89 35.4841 1216.06 35.4841V35.4841V35.4841C1215.23 35.4841 1214.56 36.1556 1214.56 36.9841V43.9614C1214.56 44.7898 1215.23 45.4614 1216.06 45.4614V45.4614V45.4614C1216.89 45.4614 1217.56 44.7898 1217.56 43.9614V36.9841ZM1217.56 56.9387C1217.56 56.1103 1216.89 55.4387 1216.06 55.4387V55.4387V55.4387C1215.23 55.4387 1214.56 56.1103 1214.56 56.9387V63.916C1214.56 64.7445 1215.23 65.416 1216.06 65.416V65.416V65.416C1216.89 65.416 1217.56 64.7445 1217.56 63.916V56.9387ZM1217.56 76.8934C1217.56 76.0649 1216.89 75.3934 1216.06 75.3934V75.3934V75.3934C1215.23 75.3934 1214.56 76.0649 1214.56 76.8934V83.8707C1214.56 84.6991 1215.23 85.3707 1216.06 85.3707V85.3707V85.3707C1216.89 85.3707 1217.56 84.6991 1217.56 83.8707V76.8934ZM1217.56 96.848C1217.56 96.0196 1216.89 95.348 1216.06 95.348V95.348V95.348C1215.23 95.348 1214.56 96.0196 1214.56 96.848V103.825C1214.56 104.654 1215.23 105.325 1216.06 105.325V105.325V105.325C1216.89 105.325 1217.56 104.654 1217.56 103.825V96.848ZM1217.56 116.803C1217.56 115.974 1216.89 115.303 1216.06 115.303V115.303V115.303C1215.23 115.303 1214.56 115.974 1214.56 116.803V123.78C1214.56 124.608 1215.23 125.28 1216.06 125.28V125.28V125.28C1216.89 125.28 1217.56 124.608 1217.56 123.78V116.803ZM1217.56 136.757C1217.56 135.929 1216.89 135.257 1216.06 135.257V135.257V135.257C1215.23 135.257 1214.56 135.929 1214.56 136.757V143.735C1214.56 144.563 1215.23 145.235 1216.06 145.235V145.235V145.235C1216.89 145.235 1217.56 144.563 1217.56 143.735V136.757ZM1217.56 156.712C1217.56 155.884 1216.89 155.212 1216.06 155.212V155.212V155.212C1215.23 155.212 1214.56 155.884 1214.56 156.712V163.689C1214.56 164.518 1215.23 165.189 1216.06 165.189V165.189V165.189C1216.89 165.189 1217.56 164.518 1217.56 163.689V156.712ZM1217.56 176.667C1217.56 175.838 1216.89 175.167 1216.06 175.167V175.167V175.167C1215.23 175.167 1214.56 175.838 1214.56 176.667V183.644C1214.56 184.472 1215.23 185.144 1216.06 185.144V185.144V185.144C1216.89 185.144 1217.56 184.472 1217.56 183.644V176.667ZM1217.56 196.621C1217.56 195.793 1216.89 195.121 1216.06 195.121V195.121V195.121C1215.23 195.121 1214.56 195.793 1214.56 196.621V203.599C1214.56 204.427 1215.23 205.099 1216.06 205.099V205.099V205.099C1216.89 205.099 1217.56 204.427 1217.56 203.599V196.621ZM1217.56 216.576C1217.56 215.748 1216.89 215.076 1216.06 215.076V215.076V215.076C1215.23 215.076 1214.56 215.748 1214.56 216.576V223.553C1214.56 224.382 1215.23 225.053 1216.06 225.053V225.053V225.053C1216.89 225.053 1217.56 224.382 1217.56 223.553V216.576ZM1217.56 236.531C1217.56 235.702 1216.89 235.031 1216.06 235.031V235.031V235.031C1215.23 235.031 1214.56 235.702 1214.56 236.531V243.508C1214.56 244.336 1215.23 245.008 1216.06 245.008V245.008V245.008C1216.89 245.008 1217.56 244.336 1217.56 243.508V236.531ZM1217.56 256.485C1217.56 255.657 1216.89 254.985 1216.06 254.985V254.985V254.985C1215.23 254.985 1214.56 255.657 1214.56 256.485V263.463C1214.56 264.291 1215.23 264.963 1216.06 264.963V264.963V264.963C1216.89 264.963 1217.56 264.291 1217.56 263.463V256.485ZM1217.56 276.44C1217.56 275.611 1216.89 274.94 1216.06 274.94V274.94V274.94C1215.23 274.94 1214.56 275.611 1214.56 276.44V283.417C1214.56 284.246 1215.23 284.917 1216.06 284.917V284.917V284.917C1216.89 284.917 1217.56 284.246 1217.56 283.417V276.44ZM1217.56 296.395C1217.56 295.566 1216.89 294.895 1216.06 294.895V294.895V294.895C1215.23 294.895 1214.56 295.566 1214.56 296.395V303.372C1214.56 304.2 1215.23 304.872 1216.06 304.872V304.872V304.872C1216.89 304.872 1217.56 304.2 1217.56 303.372V296.395ZM1217.56 316.349C1217.56 315.521 1216.89 314.849 1216.06 314.849V314.849V314.849C1215.23 314.849 1214.56 315.521 1214.56 316.349V323.327C1214.56 324.155 1215.23 324.827 1216.06 324.827V324.827V324.827C1216.89 324.827 1217.56 324.155 1217.56 323.327V316.349ZM1217.56 336.304C1217.56 335.475 1216.89 334.804 1216.06 334.804V334.804V334.804C1215.23 334.804 1214.56 335.475 1214.56 336.304V343.281C1214.56 344.11 1215.23 344.781 1216.06 344.781V344.781V344.781C1216.89 344.781 1217.56 344.11 1217.56 343.281V336.304ZM1217.56 356.259C1217.56 355.43 1216.89 354.759 1216.06 354.759V354.759V354.759C1215.23 354.759 1214.56 355.43 1214.56 356.259V363.236C1214.56 364.064 1215.23 364.736 1216.06 364.736V364.736V364.736C1216.89 364.736 1217.56 364.064 1217.56 363.236V356.259ZM1217.56 376.213C1217.56 375.385 1216.89 374.713 1216.06 374.713V374.713V374.713C1215.23 374.713 1214.56 375.385 1214.56 376.213V383.19C1214.56 384.019 1215.23 384.69 1216.06 384.69V384.69V384.69C1216.89 384.69 1217.56 384.019 1217.56 383.19V376.213ZM1217.56 396.168C1217.56 395.339 1216.89 394.668 1216.06 394.668V394.668V394.668C1215.23 394.668 1214.56 395.339 1214.56 396.168V403.145C1214.56 403.974 1215.23 404.645 1216.06 404.645V404.645V404.645C1216.89 404.645 1217.56 403.974 1217.56 403.145V396.168ZM1217.56 416.122C1217.56 415.294 1216.89 414.622 1216.06 414.622V414.622V414.622C1215.23 414.622 1214.56 415.294 1214.56 416.122V423.1C1214.56 423.928 1215.23 424.6 1216.06 424.6V424.6V424.6C1216.89 424.6 1217.56 423.928 1217.56 423.1V416.122ZM1217.56 436.077C1217.56 435.249 1216.89 434.577 1216.06 434.577V434.577V434.577C1215.23 434.577 1214.56 435.249 1214.56 436.077V443.054C1214.56 443.883 1215.23 444.554 1216.06 444.554V444.554V444.554C1216.89 444.554 1217.56 443.883 1217.56 443.054V436.077ZM1217.56 456.032C1217.56 455.203 1216.89 454.532 1216.06 454.532V454.532V454.532C1215.23 454.532 1214.56 455.203 1214.56 456.032V463.009C1214.56 463.838 1215.23 464.509 1216.06 464.509V464.509V464.509C1216.89 464.509 1217.56 463.838 1217.56 463.009V456.032ZM1217.56 475.986C1217.56 475.158 1216.89 474.486 1216.06 474.486V474.486V474.486C1215.23 474.486 1214.56 475.158 1214.56 475.986V482.964C1214.56 483.792 1215.23 484.464 1216.06 484.464V484.464V484.464C1216.89 484.464 1217.56 483.792 1217.56 482.964V475.986ZM1217.56 495.941C1217.56 495.113 1216.89 494.441 1216.06 494.441V494.441V494.441C1215.23 494.441 1214.56 495.113 1214.56 495.941V502.918C1214.56 503.747 1215.23 504.418 1216.06 504.418V504.418V504.418C1216.89 504.418 1217.56 503.747 1217.56 502.918V495.941ZM1117.56 677.567C1117.56 678.396 1116.89 679.067 1116.06 679.067H1113.69C1112.86 679.067 1112.19 678.396 1112.19 677.567V677.567V677.567C1112.19 676.739 1112.86 676.067 1113.69 676.067H1116.06C1116.89 676.067 1117.56 676.739 1117.56 677.567V677.567ZM1100.65 679.067C1101.48 679.067 1102.15 678.396 1102.15 677.567V677.567V677.567C1102.15 676.739 1101.48 676.067 1100.65 676.067H1093.61C1092.78 676.067 1092.11 676.739 1092.11 677.567V677.567V677.567C1092.11 678.396 1092.78 679.067 1093.61 679.067H1100.65ZM1080.56 679.067C1081.39 679.067 1082.06 678.396 1082.06 677.567V677.567V677.567C1082.06 676.739 1081.39 676.067 1080.56 676.067H1073.52C1072.69 676.067 1072.02 676.739 1072.02 677.567V677.567V677.567C1072.02 678.396 1072.69 679.067 1073.52 679.067H1080.56ZM1060.48 679.067C1061.31 679.067 1061.98 678.396 1061.98 677.567V677.567V677.567C1061.98 676.739 1061.31 676.067 1060.48 676.067H1053.43C1052.61 676.067 1051.93 676.739 1051.93 677.567V677.567V677.567C1051.93 678.396 1052.61 679.067 1053.43 679.067H1060.48ZM1040.39 679.067C1041.22 679.067 1041.89 678.396 1041.89 677.567V677.567V677.567C1041.89 676.739 1041.22 676.067 1040.39 676.067H1033.35C1032.52 676.067 1031.85 676.739 1031.85 677.567V677.567V677.567C1031.85 678.396 1032.52 679.067 1033.35 679.067H1040.39ZM1020.3 679.067C1021.13 679.067 1021.8 678.396 1021.8 677.567V677.567V677.567C1021.8 676.739 1021.13 676.067 1020.3 676.067H1013.26C1012.43 676.067 1011.76 676.739 1011.76 677.567V677.567V677.567C1011.76 678.396 1012.43 679.067 1013.26 679.067H1020.3ZM1000.22 679.067C1001.05 679.067 1001.72 678.396 1001.72 677.567V677.567V677.567C1001.72 676.739 1001.05 676.067 1000.22 676.067H993.175C992.347 676.067 991.675 676.739 991.675 677.567V677.567V677.567C991.675 678.396 992.347 679.067 993.175 679.067H1000.22ZM980.132 679.067C980.961 679.067 981.632 678.396 981.632 677.567V677.567V677.567C981.632 676.739 980.961 676.067 980.132 676.067H973.089C972.261 676.067 971.589 676.739 971.589 677.567V677.567V677.567C971.589 678.396 972.261 679.067 973.089 679.067H980.132ZM960.046 679.067C960.874 679.067 961.546 678.396 961.546 677.567V677.567V677.567C961.546 676.739 960.874 676.067 960.046 676.067H953.003C952.174 676.067 951.503 676.739 951.503 677.567V677.567V677.567C951.503 678.396 952.174 679.067 953.003 679.067H960.046ZM939.96 679.067C940.788 679.067 941.46 678.396 941.46 677.567V677.567V677.567C941.46 676.739 940.788 676.067 939.96 676.067H932.917C932.088 676.067 931.417 676.739 931.417 677.567V677.567V677.567C931.417 678.396 932.088 679.067 932.917 679.067H939.96ZM919.873 679.067C920.702 679.067 921.373 678.396 921.373 677.567V677.567V677.567C921.373 676.739 920.702 676.067 919.873 676.067H912.83C912.002 676.067 911.33 676.739 911.33 677.567V677.567V677.567C911.33 678.396 912.002 679.067 912.83 679.067H919.873ZM899.787 679.067C900.616 679.067 901.287 678.396 901.287 677.567V677.567V677.567C901.287 676.739 900.616 676.067 899.787 676.067H892.744C891.916 676.067 891.244 676.739 891.244 677.567V677.567V677.567C891.244 678.396 891.916 679.067 892.744 679.067H899.787ZM879.701 679.067C880.53 679.067 881.201 678.396 881.201 677.567V677.567V677.567C881.201 676.739 880.53 676.067 879.701 676.067H872.658C871.83 676.067 871.158 676.739 871.158 677.567V677.567V677.567C871.158 678.396 871.83 679.067 872.658 679.067H879.701ZM859.615 679.067C860.443 679.067 861.115 678.396 861.115 677.567V677.567V677.567C861.115 676.739 860.443 676.067 859.615 676.067H852.572C851.743 676.067 851.072 676.739 851.072 677.567V677.567V677.567C851.072 678.396 851.743 679.067 852.572 679.067H859.615ZM839.529 679.067C840.357 679.067 841.029 678.396 841.029 677.567V677.567V677.567C841.029 676.739 840.357 676.067 839.529 676.067H832.486C831.657 676.067 830.986 676.739 830.986 677.567V677.567V677.567C830.986 678.396 831.657 679.067 832.486 679.067H839.529ZM819.443 679.067C820.271 679.067 820.943 678.396 820.943 677.567V677.567V677.567C820.943 676.739 820.271 676.067 819.443 676.067H812.399C811.571 676.067 810.899 676.739 810.899 677.567V677.567V677.567C810.899 678.396 811.571 679.067 812.399 679.067H819.443ZM799.356 679.067C800.185 679.067 800.856 678.396 800.856 677.567V677.567V677.567C800.856 676.739 800.185 676.067 799.356 676.067H792.313C791.485 676.067 790.813 676.739 790.813 677.567V677.567V677.567C790.813 678.396 791.485 679.067 792.313 679.067H799.356ZM779.27 679.067C780.099 679.067 780.77 678.396 780.77 677.567V677.567V677.567C780.77 676.739 780.099 676.067 779.27 676.067H772.227C771.399 676.067 770.727 676.739 770.727 677.567V677.567V677.567C770.727 678.396 771.399 679.067 772.227 679.067H779.27ZM759.184 679.067C760.012 679.067 760.684 678.396 760.684 677.567V677.567V677.567C760.684 676.739 760.012 676.067 759.184 676.067H752.141C751.313 676.067 750.641 676.739 750.641 677.567V677.567V677.567C750.641 678.396 751.313 679.067 752.141 679.067H759.184ZM739.098 679.067C739.926 679.067 740.598 678.396 740.598 677.567V677.567V677.567C740.598 676.739 739.926 676.067 739.098 676.067H732.055C731.226 676.067 730.555 676.739 730.555 677.567V677.567V677.567C730.555 678.396 731.226 679.067 732.055 679.067H739.098ZM719.012 679.067C719.84 679.067 720.512 678.396 720.512 677.567V677.567V677.567C720.512 676.739 719.84 676.067 719.012 676.067H711.969C711.14 676.067 710.469 676.739 710.469 677.567V677.567V677.567C710.469 678.396 711.14 679.067 711.969 679.067H719.012ZM698.925 679.067C699.754 679.067 700.425 678.396 700.425 677.567V677.567V677.567C700.425 676.739 699.754 676.067 698.925 676.067H691.882C691.054 676.067 690.382 676.739 690.382 677.567V677.567V677.567C690.382 678.396 691.054 679.067 691.882 679.067H698.925ZM678.839 679.067C679.668 679.067 680.339 678.396 680.339 677.567V677.567V677.567C680.339 676.739 679.668 676.067 678.839 676.067H671.796C670.968 676.067 670.296 676.739 670.296 677.567V677.567V677.567C670.296 678.396 670.968 679.067 671.796 679.067H678.839ZM658.753 679.067C659.582 679.067 660.253 678.396 660.253 677.567V677.567V677.567C660.253 676.739 659.582 676.067 658.753 676.067H651.71C650.882 676.067 650.21 676.739 650.21 677.567V677.567V677.567C650.21 678.396 650.882 679.067 651.71 679.067H658.753ZM638.667 679.067C639.495 679.067 640.167 678.396 640.167 677.567V677.567V677.567C640.167 676.739 639.495 676.067 638.667 676.067H631.624C630.795 676.067 630.124 676.739 630.124 677.567V677.567V677.567C630.124 678.396 630.795 679.067 631.624 679.067H638.667ZM618.581 679.067C619.409 679.067 620.081 678.396 620.081 677.567V677.567V677.567C620.081 676.739 619.409 676.067 618.581 676.067H611.538C610.709 676.067 610.038 676.739 610.038 677.567V677.567V677.567C610.038 678.396 610.709 679.067 611.538 679.067H618.581ZM598.495 679.067C599.323 679.067 599.995 678.396 599.995 677.567V677.567V677.567C599.995 676.739 599.323 676.067 598.495 676.067H591.451C590.623 676.067 589.951 676.739 589.951 677.567V677.567V677.567C589.951 678.396 590.623 679.067 591.451 679.067H598.495ZM578.408 679.067C579.237 679.067 579.908 678.396 579.908 677.567V677.567V677.567C579.908 676.739 579.237 676.067 578.408 676.067H571.365C570.537 676.067 569.865 676.739 569.865 677.567V677.567V677.567C569.865 678.396 570.537 679.067 571.365 679.067H578.408ZM558.322 679.067C559.151 679.067 559.822 678.396 559.822 677.567V677.567V677.567C559.822 676.739 559.151 676.067 558.322 676.067H551.279C550.451 676.067 549.779 676.739 549.779 677.567V677.567V677.567C549.779 678.396 550.451 679.067 551.279 679.067H558.322ZM538.236 679.067C539.064 679.067 539.736 678.396 539.736 677.567V677.567V677.567C539.736 676.739 539.064 676.067 538.236 676.067H531.193C530.365 676.067 529.693 676.739 529.693 677.567V677.567V677.567C529.693 678.396 530.365 679.067 531.193 679.067H538.236ZM518.15 679.067C518.978 679.067 519.65 678.396 519.65 677.567V677.567V677.567C519.65 676.739 518.978 676.067 518.15 676.067H511.107C510.278 676.067 509.607 676.739 509.607 677.567V677.567V677.567C509.607 678.396 510.278 679.067 511.107 679.067H518.15ZM498.064 679.067C498.892 679.067 499.564 678.396 499.564 677.567V677.567V677.567C499.564 676.739 498.892 676.067 498.064 676.067H491.021C490.192 676.067 489.521 676.739 489.521 677.567V677.567V677.567C489.521 678.396 490.192 679.067 491.021 679.067H498.064ZM477.977 679.067C478.806 679.067 479.477 678.396 479.477 677.567V677.567V677.567C479.477 676.739 478.806 676.067 477.977 676.067H470.934C470.106 676.067 469.434 676.739 469.434 677.567V677.567V677.567C469.434 678.396 470.106 679.067 470.934 679.067H477.977ZM457.891 679.067C458.72 679.067 459.391 678.396 459.391 677.567V677.567V677.567C459.391 676.739 458.72 676.067 457.891 676.067H450.848C450.02 676.067 449.348 676.739 449.348 677.567V677.567V677.567C449.348 678.396 450.02 679.067 450.848 679.067H457.891ZM437.805 679.067C438.634 679.067 439.305 678.396 439.305 677.567V677.567V677.567C439.305 676.739 438.634 676.067 437.805 676.067H430.762C429.934 676.067 429.262 676.739 429.262 677.567V677.567V677.567C429.262 678.396 429.934 679.067 430.762 679.067H437.805ZM417.719 679.067C418.547 679.067 419.219 678.396 419.219 677.567V677.567V677.567C419.219 676.739 418.547 676.067 417.719 676.067H410.676C409.847 676.067 409.176 676.739 409.176 677.567V677.567V677.567C409.176 678.396 409.847 679.067 410.676 679.067H417.719ZM397.633 679.067C398.461 679.067 399.133 678.396 399.133 677.567V677.567V677.567C399.133 676.739 398.461 676.067 397.633 676.067H390.59C389.761 676.067 389.09 676.739 389.09 677.567V677.567V677.567C389.09 678.396 389.761 679.067 390.59 679.067H397.633ZM377.547 679.067C378.375 679.067 379.047 678.396 379.047 677.567V677.567V677.567C379.047 676.739 378.375 676.067 377.547 676.067H370.503C369.675 676.067 369.003 676.739 369.003 677.567V677.567V677.567C369.003 678.396 369.675 679.067 370.503 679.067H377.547ZM357.46 679.067C358.289 679.067 358.96 678.396 358.96 677.567V677.567V677.567C358.96 676.739 358.289 676.067 357.46 676.067H350.417C349.589 676.067 348.917 676.739 348.917 677.567V677.567V677.567C348.917 678.396 349.589 679.067 350.417 679.067H357.46ZM337.374 679.067C338.203 679.067 338.874 678.396 338.874 677.567V677.567V677.567C338.874 676.739 338.203 676.067 337.374 676.067H330.331C329.503 676.067 328.831 676.739 328.831 677.567V677.567V677.567C328.831 678.396 329.503 679.067 330.331 679.067H337.374ZM317.288 679.067C318.116 679.067 318.788 678.396 318.788 677.567V677.567V677.567C318.788 676.739 318.116 676.067 317.288 676.067H310.245C309.417 676.067 308.745 676.739 308.745 677.567V677.567V677.567C308.745 678.396 309.417 679.067 310.245 679.067H317.288ZM297.202 679.067C298.03 679.067 298.702 678.396 298.702 677.567V677.567V677.567C298.702 676.739 298.03 676.067 297.202 676.067H290.159C289.33 676.067 288.659 676.739 288.659 677.567V677.567V677.567C288.659 678.396 289.33 679.067 290.159 679.067H297.202ZM277.116 679.067C277.944 679.067 278.616 678.396 278.616 677.567V677.567V677.567C278.616 676.739 277.944 676.067 277.116 676.067H270.073C269.244 676.067 268.573 676.739 268.573 677.567V677.567V677.567C268.573 678.396 269.244 679.067 270.073 679.067H277.116ZM257.029 679.067C257.858 679.067 258.529 678.396 258.529 677.567V677.567V677.567C258.529 676.739 257.858 676.067 257.029 676.067H249.986C249.158 676.067 248.486 676.739 248.486 677.567V677.567V677.567C248.486 678.396 249.158 679.067 249.986 679.067H257.029ZM236.943 679.067C237.772 679.067 238.443 678.396 238.443 677.567V677.567V677.567C238.443 676.739 237.772 676.067 236.943 676.067H229.9C229.072 676.067 228.4 676.739 228.4 677.567V677.567V677.567C228.4 678.396 229.072 679.067 229.9 679.067H236.943ZM216.857 679.067C217.686 679.067 218.357 678.396 218.357 677.567V677.567V677.567C218.357 676.739 217.686 676.067 216.857 676.067H209.814C208.986 676.067 208.314 676.739 208.314 677.567V677.567V677.567C208.314 678.396 208.986 679.067 209.814 679.067H216.857ZM196.771 679.067C197.599 679.067 198.271 678.396 198.271 677.567V677.567V677.567C198.271 676.739 197.599 676.067 196.771 676.067H189.728C188.899 676.067 188.228 676.739 188.228 677.567V677.567V677.567C188.228 678.396 188.899 679.067 189.728 679.067H196.771ZM176.685 679.067C177.513 679.067 178.185 678.396 178.185 677.567V677.567V677.567C178.185 676.739 177.513 676.067 176.685 676.067H169.642C168.813 676.067 168.142 676.739 168.142 677.567V677.567V677.567C168.142 678.396 168.813 679.067 169.642 679.067H176.685ZM156.598 679.067C157.427 679.067 158.098 678.396 158.098 677.567V677.567V677.567C158.098 676.739 157.427 676.067 156.598 676.067H149.555C148.727 676.067 148.055 676.739 148.055 677.567V677.567V677.567C148.055 678.396 148.727 679.067 149.555 679.067H156.598ZM136.512 679.067C137.341 679.067 138.012 678.396 138.012 677.567V677.567V677.567C138.012 676.739 137.341 676.067 136.512 676.067H129.469C128.641 676.067 127.969 676.739 127.969 677.567V677.567V677.567C127.969 678.396 128.641 679.067 129.469 679.067H136.512ZM116.426 679.067C117.255 679.067 117.926 678.396 117.926 677.567V677.567V677.567C117.926 676.739 117.255 676.067 116.426 676.067H109.383C108.555 676.067 107.883 676.739 107.883 677.567V677.567V677.567C107.883 678.396 108.555 679.067 109.383 679.067H116.426ZM96.3399 679.067C97.1684 679.067 97.8399 678.396 97.8399 677.567V677.567V677.567C97.8399 676.739 97.1684 676.067 96.3399 676.067H89.2968C88.4684 676.067 87.7968 676.739 87.7968 677.567V677.567V677.567C87.7968 678.396 88.4684 679.067 89.2968 679.067H96.3399ZM76.2538 679.067C77.0822 679.067 77.7538 678.396 77.7538 677.567V677.567V677.567C77.7538 676.739 77.0822 676.067 76.2538 676.067H69.2107C68.3822 676.067 67.7107 676.739 67.7107 677.567V677.567V677.567C67.7107 678.396 68.3822 679.067 69.2107 679.067H76.2538ZM56.1676 679.067C56.996 679.067 57.6676 678.396 57.6676 677.567V677.567V677.567C57.6676 676.739 56.996 676.067 56.1676 676.067H49.1245C48.2961 676.067 47.6245 676.739 47.6245 677.567V677.567V677.567C47.6245 678.396 48.2961 679.067 49.1245 679.067H56.1676Z" fill="#CB3838" fill-opacity="0.8"/>
</svg>
