<svg width="1249" height="410" viewBox="0 0 1249 410" fill="none" xmlns="http://www.w3.org/2000/svg">
<rect x="44" y="29" width="1203" height="381" rx="30" fill="#FFF0C4"/>
<path d="M43.5938 32.8691C43.5938 30.291 43.8281 27.5371 44.2969 24.6074C44.8242 21.6191 45.6152 18.6895 46.6699 15.8184C47.7832 12.8887 49.1895 10.1348 50.8887 7.55664C52.6465 4.91992 54.7559 2.66406 57.2168 0.789062L66.7969 7.46875C65.1562 9.34375 63.9258 11.1309 63.1055 12.8301C62.2852 14.5293 61.6406 16.2285 61.1719 17.9277C62.9297 18.2207 64.5703 18.8359 66.0938 19.7734C67.6172 20.6523 68.9355 21.7656 70.0488 23.1133C71.1621 24.4023 72.041 25.8965 72.6855 27.5957C73.3301 29.2363 73.6523 30.9941 73.6523 32.8691C73.6523 34.9199 73.2422 36.8535 72.4219 38.6699C71.6602 40.4277 70.5762 42.0098 69.1699 43.416C67.8223 44.7637 66.2402 45.8477 64.4238 46.668C62.6074 47.4297 60.7031 47.8105 58.7109 47.8105C56.6016 47.8105 54.6094 47.4297 52.7344 46.668C50.918 45.8477 49.3066 44.7637 47.9004 43.416C46.5527 42.0098 45.498 40.4277 44.7363 38.6699C43.9746 36.8535 43.5938 34.9199 43.5938 32.8691ZM7.55859 32.8691C7.55859 30.291 7.79297 27.5371 8.26172 24.6074C8.78906 21.6191 9.58008 18.6895 10.6348 15.8184C11.748 12.8887 13.1836 10.1348 14.9414 7.55664C16.6992 4.91992 18.8086 2.66406 21.2695 0.789062L30.7617 7.46875C29.1211 9.34375 27.8906 11.1309 27.0703 12.8301C26.3086 14.5293 25.6934 16.2285 25.2246 17.9277C26.9824 18.2207 28.623 18.8359 30.1465 19.7734C31.6699 20.6523 32.959 21.7656 34.0137 23.1133C35.127 24.4023 36.0059 25.8965 36.6504 27.5957C37.2949 29.2363 37.6172 30.9941 37.6172 32.8691C37.6172 34.9199 37.207 36.8535 36.3867 38.6699C35.625 40.4277 34.541 42.0098 33.1348 43.416C31.7871 44.7637 30.2051 45.8477 28.3887 46.668C26.5723 47.4297 24.668 47.8105 22.6758 47.8105C20.5664 47.8105 18.5742 47.4297 16.6992 46.668C14.8828 45.8477 13.3008 44.7637 11.9531 43.416C10.6055 42.0098 9.52148 40.4277 8.70117 38.6699C7.93945 36.8535 7.55859 34.9199 7.55859 32.8691Z" fill="#CB3838"/>
<path d="M1201.74 351.73C1201.74 354.309 1201.47 357.092 1200.95 360.08C1200.48 363.01 1199.69 365.939 1198.57 368.869C1197.52 371.74 1196.11 374.494 1194.36 377.131C1192.6 379.768 1190.49 381.994 1188.03 383.811L1178.54 377.131C1180.12 375.256 1181.32 373.469 1182.14 371.77C1182.96 370.07 1183.6 368.371 1184.07 366.672C1182.31 366.379 1180.67 365.793 1179.15 364.914C1177.63 364.035 1176.31 362.951 1175.2 361.662C1174.14 360.314 1173.29 358.791 1172.65 357.092C1172 355.393 1171.68 353.605 1171.68 351.73C1171.68 349.738 1172.06 347.834 1172.82 346.018C1173.64 344.201 1174.73 342.619 1176.07 341.271C1177.48 339.865 1179.06 338.781 1180.82 338.02C1182.64 337.199 1184.57 336.789 1186.62 336.789C1188.73 336.789 1190.69 337.199 1192.51 338.02C1194.38 338.781 1196 339.865 1197.34 341.271C1198.69 342.619 1199.75 344.201 1200.51 346.018C1201.33 347.834 1201.74 349.738 1201.74 351.73ZM1237.69 351.73C1237.69 354.309 1237.42 357.092 1236.89 360.08C1236.43 363.01 1235.63 365.939 1234.52 368.869C1233.47 371.74 1232.06 374.494 1230.3 377.131C1228.6 379.768 1226.52 381.994 1224.06 383.811L1214.48 377.131C1216.12 375.256 1217.35 373.469 1218.17 371.77C1218.99 370.07 1219.64 368.371 1220.11 366.672C1218.35 366.379 1216.71 365.793 1215.19 364.914C1213.66 364.035 1212.34 362.951 1211.23 361.662C1210.12 360.314 1209.24 358.791 1208.59 357.092C1207.95 355.393 1207.63 353.605 1207.63 351.73C1207.63 349.738 1208.01 347.834 1208.77 346.018C1209.59 344.201 1210.67 342.619 1212.02 341.271C1213.43 339.865 1215.01 338.781 1216.77 338.02C1218.58 337.199 1220.52 336.789 1222.57 336.789C1224.68 336.789 1226.64 337.199 1228.46 338.02C1230.33 338.781 1231.94 339.865 1233.29 341.271C1234.7 342.619 1235.78 344.201 1236.54 346.018C1237.3 347.834 1237.69 349.738 1237.69 351.73Z" fill="#CB3838"/>
<path fill-rule="evenodd" clip-rule="evenodd" d="M36.5778 381.855C35.7553 381.756 35.2271 380.961 35.3879 380.148V380.148V380.148C35.5486 379.335 36.3377 378.814 37.1614 378.902C37.7646 378.967 38.378 379 39 379H42.5226C43.351 379 44.0226 379.672 44.0226 380.5V380.5V380.5C44.0226 381.328 43.351 382 42.5226 382H39C38.1801 382 37.3718 381.951 36.5778 381.855ZM1224 29.4412C1224 30.2696 1223.33 30.9412 1222.5 30.9412V30.9412V30.9412C1221.67 30.9412 1221 30.2696 1221 29.4412V26C1221 25.3779 1220.97 24.7646 1220.9 24.1613C1220.81 23.3377 1221.34 22.5486 1222.15 22.3879V22.3879V22.3879C1222.96 22.2271 1223.76 22.7553 1223.85 23.5777C1223.95 24.3718 1224 25.1801 1224 26V29.4412ZM1219.75 13.6736C1220.26 14.3257 1220.07 15.2613 1219.38 15.7222V15.7222V15.7222C1218.7 16.183 1217.77 15.9938 1217.25 15.3485C1216.48 14.3917 1215.61 13.52 1214.65 12.7498C1214.01 12.2303 1213.82 11.3035 1214.28 10.6151V10.6151V10.6151C1214.74 9.92675 1215.67 9.738 1216.33 10.249C1217.6 11.2481 1218.75 12.3987 1219.75 13.6736ZM19 358.559C19 357.73 19.6716 357.059 20.5 357.059V357.059V357.059C21.3284 357.059 22 357.73 22 358.559V362C22 362.622 22.0333 363.235 22.098 363.839C22.1864 364.662 21.6648 365.451 20.8522 365.612V365.612V365.612C20.0395 365.773 19.2445 365.245 19.1452 364.422C19.0493 363.628 19 362.82 19 362V358.559ZM23.249 374.326C22.738 373.674 22.9267 372.739 23.6151 372.278V372.278V372.278C24.3035 371.817 25.2303 372.006 25.7498 372.652C26.52 373.608 27.3917 374.48 28.3484 375.25C28.9937 375.77 29.183 376.696 28.7222 377.385V377.385V377.385C28.2613 378.073 27.3256 378.262 26.6736 377.751C25.3987 376.752 24.2481 375.601 23.249 374.326ZM19 345.676C19 346.505 19.6716 347.176 20.5 347.176V347.176V347.176C21.3284 347.176 22 346.505 22 345.676V338.794C22 337.966 21.3284 337.294 20.5 337.294V337.294V337.294C19.6716 337.294 19 337.966 19 338.794V345.676ZM19 325.912C19 326.74 19.6716 327.412 20.5 327.412V327.412V327.412C21.3284 327.412 22 326.74 22 325.912V319.029C22 318.201 21.3284 317.529 20.5 317.529V317.529V317.529C19.6716 317.529 19 318.201 19 319.029V325.912ZM19 306.147C19 306.975 19.6716 307.647 20.5 307.647V307.647V307.647C21.3284 307.647 22 306.975 22 306.147V299.265C22 298.436 21.3284 297.765 20.5 297.765V297.765V297.765C19.6716 297.765 19 298.436 19 299.265V306.147ZM19 286.382C19 287.211 19.6716 287.882 20.5 287.882V287.882V287.882C21.3284 287.882 22 287.211 22 286.382V279.5C22 278.672 21.3284 278 20.5 278V278V278C19.6716 278 19 278.672 19 279.5V286.382ZM19 266.618C19 267.446 19.6716 268.118 20.5 268.118V268.118V268.118C21.3284 268.118 22 267.446 22 266.618V259.735C22 258.907 21.3284 258.235 20.5 258.235V258.235V258.235C19.6716 258.235 19 258.907 19 259.735V266.618ZM19 246.853C19 247.681 19.6716 248.353 20.5 248.353V248.353V248.353C21.3284 248.353 22 247.681 22 246.853V239.971C22 239.142 21.3284 238.471 20.5 238.471V238.471V238.471C19.6716 238.471 19 239.142 19 239.971V246.853ZM19 227.088C19 227.917 19.6716 228.588 20.5 228.588V228.588V228.588C21.3284 228.588 22 227.917 22 227.088V220.206C22 219.377 21.3284 218.706 20.5 218.706V218.706V218.706C19.6716 218.706 19 219.377 19 220.206V227.088ZM19 207.324C19 208.152 19.6716 208.824 20.5 208.824V208.824V208.824C21.3284 208.824 22 208.152 22 207.324V200.441C22 199.613 21.3284 198.941 20.5 198.941V198.941V198.941C19.6716 198.941 19 199.613 19 200.441V207.324ZM19 187.559C19 188.387 19.6716 189.059 20.5 189.059V189.059V189.059C21.3284 189.059 22 188.387 22 187.559V180.676C22 179.848 21.3284 179.176 20.5 179.176V179.176V179.176C19.6716 179.176 19 179.848 19 180.676V187.559ZM19 167.794C19 168.623 19.6716 169.294 20.5 169.294V169.294V169.294C21.3284 169.294 22 168.623 22 167.794V160.912C22 160.083 21.3284 159.412 20.5 159.412V159.412V159.412C19.6716 159.412 19 160.083 19 160.912V167.794ZM19 148.029C19 148.858 19.6716 149.529 20.5 149.529V149.529V149.529C21.3284 149.529 22 148.858 22 148.029V141.147C22 140.319 21.3284 139.647 20.5 139.647V139.647V139.647C19.6716 139.647 19 140.319 19 141.147V148.029ZM19 128.265C19 129.093 19.6716 129.765 20.5 129.765V129.765V129.765C21.3284 129.765 22 129.093 22 128.265V121.382C22 120.554 21.3284 119.882 20.5 119.882V119.882V119.882C19.6716 119.882 19 120.554 19 121.382V128.265ZM19 108.5C19 109.328 19.6716 110 20.5 110V110V110C21.3284 110 22 109.328 22 108.5V101.618C22 100.789 21.3284 100.118 20.5 100.118V100.118V100.118C19.6716 100.118 19 100.789 19 101.618V108.5ZM115.823 6C114.995 6 114.323 6.67157 114.323 7.5V7.5V7.5C114.323 8.32843 114.995 9 115.823 9H122.866C123.695 9 124.366 8.32843 124.366 7.5V7.5V7.5C124.366 6.67157 123.695 6 122.866 6H115.823ZM135.909 6C135.081 6 134.409 6.67157 134.409 7.5V7.5V7.5C134.409 8.32843 135.081 9 135.909 9H142.953C143.781 9 144.453 8.32843 144.453 7.5V7.5V7.5C144.453 6.67157 143.781 6 142.953 6H135.909ZM155.996 6C155.167 6 154.496 6.67157 154.496 7.5V7.5V7.5C154.496 8.32843 155.167 9 155.996 9H163.039C163.867 9 164.539 8.32843 164.539 7.5V7.5V7.5C164.539 6.67157 163.867 6 163.039 6H155.996ZM176.082 6C175.253 6 174.582 6.67157 174.582 7.5V7.5V7.5C174.582 8.32843 175.253 9 176.082 9H183.125C183.953 9 184.625 8.32843 184.625 7.5V7.5V7.5C184.625 6.67157 183.953 6 183.125 6H176.082ZM196.168 6C195.34 6 194.668 6.67157 194.668 7.5V7.5V7.5C194.668 8.32843 195.34 9 196.168 9H203.211C204.04 9 204.711 8.32843 204.711 7.5V7.5V7.5C204.711 6.67157 204.04 6 203.211 6H196.168ZM216.254 6C215.426 6 214.754 6.67157 214.754 7.5V7.5V7.5C214.754 8.32843 215.426 9 216.254 9H223.297C224.126 9 224.797 8.32843 224.797 7.5V7.5V7.5C224.797 6.67157 224.126 6 223.297 6H216.254ZM236.341 6C235.512 6 234.841 6.67157 234.841 7.5V7.5V7.5C234.841 8.32843 235.512 9 236.341 9H243.384C244.212 9 244.884 8.32843 244.884 7.5V7.5V7.5C244.884 6.67157 244.212 6 243.384 6H236.341ZM256.427 6C255.598 6 254.927 6.67157 254.927 7.5V7.5V7.5C254.927 8.32843 255.598 9 256.427 9H263.47C264.298 9 264.97 8.32843 264.97 7.5V7.5V7.5C264.97 6.67157 264.298 6 263.47 6H256.427ZM276.513 6C275.685 6 275.013 6.67157 275.013 7.5V7.5V7.5C275.013 8.32843 275.685 9 276.513 9H283.556C284.384 9 285.056 8.32843 285.056 7.5V7.5V7.5C285.056 6.67157 284.384 6 283.556 6H276.513ZM296.599 6C295.771 6 295.099 6.67157 295.099 7.5V7.5V7.5C295.099 8.32843 295.771 9 296.599 9H303.642C304.471 9 305.142 8.32843 305.142 7.5V7.5V7.5C305.142 6.67157 304.471 6 303.642 6H296.599ZM316.685 6C315.857 6 315.185 6.67157 315.185 7.5V7.5V7.5C315.185 8.32843 315.857 9 316.685 9H323.728C324.557 9 325.228 8.32843 325.228 7.5V7.5V7.5C325.228 6.67157 324.557 6 323.728 6H316.685ZM336.772 6C335.943 6 335.272 6.67157 335.272 7.5V7.5V7.5C335.272 8.32843 335.943 9 336.772 9H343.815C344.643 9 345.315 8.32843 345.315 7.5V7.5V7.5C345.315 6.67157 344.643 6 343.815 6H336.772ZM356.858 6C356.029 6 355.358 6.67157 355.358 7.5V7.5V7.5C355.358 8.32843 356.029 9 356.858 9H363.901C364.729 9 365.401 8.32843 365.401 7.5V7.5V7.5C365.401 6.67157 364.729 6 363.901 6H356.858ZM376.944 6C376.115 6 375.444 6.67157 375.444 7.5V7.5V7.5C375.444 8.32843 376.115 9 376.944 9H383.987C384.815 9 385.487 8.32843 385.487 7.5V7.5V7.5C385.487 6.67157 384.815 6 383.987 6H376.944ZM397.03 6C396.202 6 395.53 6.67157 395.53 7.5V7.5V7.5C395.53 8.32843 396.202 9 397.03 9H404.073C404.902 9 405.573 8.32843 405.573 7.5V7.5V7.5C405.573 6.67157 404.902 6 404.073 6H397.03ZM417.116 6C416.288 6 415.616 6.67157 415.616 7.5V7.5V7.5C415.616 8.32843 416.288 9 417.116 9H424.159C424.988 9 425.659 8.32843 425.659 7.5V7.5V7.5C425.659 6.67157 424.988 6 424.159 6H417.116ZM437.202 6C436.374 6 435.702 6.67157 435.702 7.5V7.5V7.5C435.702 8.32843 436.374 9 437.202 9H444.246C445.074 9 445.746 8.32843 445.746 7.5V7.5V7.5C445.746 6.67157 445.074 6 444.246 6H437.202ZM457.289 6C456.46 6 455.789 6.67157 455.789 7.5V7.5V7.5C455.789 8.32843 456.46 9 457.289 9H464.332C465.16 9 465.832 8.32843 465.832 7.5V7.5V7.5C465.832 6.67157 465.16 6 464.332 6H457.289ZM477.375 6C476.546 6 475.875 6.67157 475.875 7.5V7.5V7.5C475.875 8.32843 476.546 9 477.375 9H484.418C485.246 9 485.918 8.32843 485.918 7.5V7.5V7.5C485.918 6.67157 485.246 6 484.418 6H477.375ZM497.461 6C496.633 6 495.961 6.67157 495.961 7.5V7.5V7.5C495.961 8.32843 496.633 9 497.461 9H504.504C505.333 9 506.004 8.32843 506.004 7.5V7.5V7.5C506.004 6.67157 505.333 6 504.504 6H497.461ZM517.547 6C516.719 6 516.047 6.67157 516.047 7.5V7.5V7.5C516.047 8.32843 516.719 9 517.547 9H524.59C525.419 9 526.09 8.32843 526.09 7.5V7.5V7.5C526.09 6.67157 525.419 6 524.59 6H517.547ZM537.633 6C536.805 6 536.133 6.67157 536.133 7.5V7.5V7.5C536.133 8.32843 536.805 9 537.633 9H544.676C545.505 9 546.176 8.32843 546.176 7.5V7.5V7.5C546.176 6.67157 545.505 6 544.676 6H537.633ZM557.72 6C556.891 6 556.22 6.67157 556.22 7.5V7.5V7.5C556.22 8.32843 556.891 9 557.72 9H564.763C565.591 9 566.263 8.32843 566.263 7.5V7.5V7.5C566.263 6.67157 565.591 6 564.763 6H557.72ZM577.806 6C576.977 6 576.306 6.67157 576.306 7.5V7.5V7.5C576.306 8.32843 576.977 9 577.806 9H584.849C585.677 9 586.349 8.32843 586.349 7.5V7.5V7.5C586.349 6.67157 585.677 6 584.849 6H577.806ZM597.892 6C597.063 6 596.392 6.67157 596.392 7.5V7.5V7.5C596.392 8.32843 597.063 9 597.892 9H604.935C605.763 9 606.435 8.32843 606.435 7.5V7.5V7.5C606.435 6.67157 605.763 6 604.935 6H597.892ZM617.978 6C617.15 6 616.478 6.67157 616.478 7.5V7.5V7.5C616.478 8.32843 617.15 9 617.978 9H625.021C625.85 9 626.521 8.32843 626.521 7.5V7.5V7.5C626.521 6.67157 625.85 6 625.021 6H617.978ZM638.064 6C637.236 6 636.564 6.67157 636.564 7.5V7.5V7.5C636.564 8.32843 637.236 9 638.064 9H645.107C645.936 9 646.607 8.32843 646.607 7.5V7.5V7.5C646.607 6.67157 645.936 6 645.107 6H638.064ZM658.15 6C657.322 6 656.65 6.67157 656.65 7.5V7.5V7.5C656.65 8.32843 657.322 9 658.15 9H665.194C666.022 9 666.694 8.32843 666.694 7.5V7.5V7.5C666.694 6.67157 666.022 6 665.194 6H658.15ZM678.237 6C677.408 6 676.737 6.67157 676.737 7.5V7.5V7.5C676.737 8.32843 677.408 9 678.237 9H685.28C686.108 9 686.78 8.32843 686.78 7.5V7.5V7.5C686.78 6.67157 686.108 6 685.28 6H678.237ZM698.323 6C697.494 6 696.823 6.67157 696.823 7.5V7.5V7.5C696.823 8.32843 697.494 9 698.323 9H705.366C706.194 9 706.866 8.32843 706.866 7.5V7.5V7.5C706.866 6.67157 706.194 6 705.366 6H698.323ZM718.409 6C717.581 6 716.909 6.67157 716.909 7.5V7.5V7.5C716.909 8.32843 717.581 9 718.409 9H725.452C726.281 9 726.952 8.32843 726.952 7.5V7.5V7.5C726.952 6.67157 726.281 6 725.452 6H718.409ZM738.495 6C737.667 6 736.995 6.67157 736.995 7.5V7.5V7.5C736.995 8.32843 737.667 9 738.495 9H745.538C746.367 9 747.038 8.32843 747.038 7.5V7.5V7.5C747.038 6.67157 746.367 6 745.538 6H738.495ZM758.581 6C757.753 6 757.081 6.67157 757.081 7.5V7.5V7.5C757.081 8.32843 757.753 9 758.581 9H765.624C766.453 9 767.124 8.32843 767.124 7.5V7.5V7.5C767.124 6.67157 766.453 6 765.624 6H758.581ZM778.668 6C777.839 6 777.168 6.67157 777.168 7.5V7.5V7.5C777.168 8.32843 777.839 9 778.668 9H785.711C786.539 9 787.211 8.32843 787.211 7.5V7.5V7.5C787.211 6.67157 786.539 6 785.711 6H778.668ZM798.754 6C797.925 6 797.254 6.67157 797.254 7.5V7.5V7.5C797.254 8.32843 797.925 9 798.754 9H805.797C806.625 9 807.297 8.32843 807.297 7.5V7.5V7.5C807.297 6.67157 806.625 6 805.797 6H798.754ZM818.84 6C818.011 6 817.34 6.67157 817.34 7.5V7.5V7.5C817.34 8.32843 818.011 9 818.84 9H825.883C826.711 9 827.383 8.32843 827.383 7.5V7.5V7.5C827.383 6.67157 826.711 6 825.883 6H818.84ZM838.926 6C838.098 6 837.426 6.67157 837.426 7.5V7.5V7.5C837.426 8.32843 838.098 9 838.926 9H845.969C846.798 9 847.469 8.32843 847.469 7.5V7.5V7.5C847.469 6.67157 846.798 6 845.969 6H838.926ZM859.012 6C858.184 6 857.512 6.67157 857.512 7.5V7.5V7.5C857.512 8.32843 858.184 9 859.012 9H866.055C866.884 9 867.555 8.32843 867.555 7.5V7.5V7.5C867.555 6.67157 866.884 6 866.055 6H859.012ZM879.098 6C878.27 6 877.598 6.67157 877.598 7.5V7.5V7.5C877.598 8.32843 878.27 9 879.098 9H886.142C886.97 9 887.642 8.32843 887.642 7.5V7.5V7.5C887.642 6.67157 886.97 6 886.142 6H879.098ZM899.185 6C898.356 6 897.685 6.67157 897.685 7.5V7.5V7.5C897.685 8.32843 898.356 9 899.185 9H906.228C907.056 9 907.728 8.32843 907.728 7.5V7.5V7.5C907.728 6.67157 907.056 6 906.228 6H899.185ZM919.271 6C918.442 6 917.771 6.67157 917.771 7.5V7.5V7.5C917.771 8.32843 918.442 9 919.271 9H926.314C927.142 9 927.814 8.32843 927.814 7.5V7.5V7.5C927.814 6.67157 927.142 6 926.314 6H919.271ZM939.357 6C938.529 6 937.857 6.67157 937.857 7.5V7.5V7.5C937.857 8.32843 938.529 9 939.357 9H946.4C947.229 9 947.9 8.32843 947.9 7.5V7.5V7.5C947.9 6.67157 947.229 6 946.4 6H939.357ZM959.443 6C958.615 6 957.943 6.67157 957.943 7.5V7.5V7.5C957.943 8.32843 958.615 9 959.443 9H966.486C967.315 9 967.986 8.32843 967.986 7.5V7.5V7.5C967.986 6.67157 967.315 6 966.486 6H959.443ZM979.529 6C978.701 6 978.029 6.67157 978.029 7.5V7.5V7.5C978.029 8.32843 978.701 9 979.529 9H986.572C987.401 9 988.072 8.32843 988.072 7.5V7.5V7.5C988.072 6.67157 987.401 6 986.572 6H979.529ZM999.616 6C998.787 6 998.116 6.67157 998.116 7.5V7.5V7.5C998.116 8.32843 998.787 9 999.616 9H1006.66C1007.49 9 1008.16 8.32843 1008.16 7.5V7.5V7.5C1008.16 6.67157 1007.49 6 1006.66 6H999.616ZM1019.7 6C1018.87 6 1018.2 6.67157 1018.2 7.5V7.5V7.5C1018.2 8.32843 1018.87 9 1019.7 9H1026.74C1027.57 9 1028.24 8.32843 1028.24 7.5V7.5V7.5C1028.24 6.67157 1027.57 6 1026.74 6H1019.7ZM1039.79 6C1038.96 6 1038.29 6.67157 1038.29 7.5V7.5V7.5C1038.29 8.32843 1038.96 9 1039.79 9H1046.83C1047.66 9 1048.33 8.32843 1048.33 7.5V7.5V7.5C1048.33 6.67157 1047.66 6 1046.83 6H1039.79ZM1059.87 6C1059.05 6 1058.37 6.67157 1058.37 7.5V7.5V7.5C1058.37 8.32843 1059.05 9 1059.87 9H1066.92C1067.75 9 1068.42 8.32843 1068.42 7.5V7.5V7.5C1068.42 6.67157 1067.75 6 1066.92 6H1059.87ZM1079.96 6C1079.13 6 1078.46 6.67157 1078.46 7.5V7.5V7.5C1078.46 8.32843 1079.13 9 1079.96 9H1087C1087.83 9 1088.5 8.32843 1088.5 7.5V7.5V7.5C1088.5 6.67157 1087.83 6 1087 6H1079.96ZM1100.05 6C1099.22 6 1098.55 6.67157 1098.55 7.5V7.5V7.5C1098.55 8.32843 1099.22 9 1100.05 9H1107.09C1107.92 9 1108.59 8.32843 1108.59 7.5V7.5V7.5C1108.59 6.67157 1107.92 6 1107.09 6H1100.05ZM1120.13 6C1119.3 6 1118.63 6.67157 1118.63 7.5V7.5V7.5C1118.63 8.32843 1119.3 9 1120.13 9H1127.18C1128 9 1128.68 8.32843 1128.68 7.5V7.5V7.5C1128.68 6.67157 1128 6 1127.18 6H1120.13ZM1140.22 6C1139.39 6 1138.72 6.67157 1138.72 7.5V7.5V7.5C1138.72 8.32843 1139.39 9 1140.22 9H1147.26C1148.09 9 1148.76 8.32843 1148.76 7.5V7.5V7.5C1148.76 6.67157 1148.09 6 1147.26 6H1140.22ZM1160.31 6C1159.48 6 1158.81 6.67157 1158.81 7.5V7.5V7.5C1158.81 8.32843 1159.48 9 1160.31 9H1167.35C1168.18 9 1168.85 8.32843 1168.85 7.5V7.5V7.5C1168.85 6.67157 1168.18 6 1167.35 6H1160.31ZM1180.39 6C1179.56 6 1178.89 6.67157 1178.89 7.5V7.5V7.5C1178.89 8.32843 1179.56 9 1180.39 9H1187.43C1188.26 9 1188.93 8.32843 1188.93 7.5V7.5V7.5C1188.93 6.67157 1188.26 6 1187.43 6H1180.39ZM1200.48 6C1199.65 6 1198.98 6.67157 1198.98 7.5V7.5V7.5C1198.98 8.32843 1199.65 9 1200.48 9H1204C1204.62 9 1205.24 9.03328 1205.84 9.09802C1206.66 9.18642 1207.45 8.66484 1207.61 7.85216V7.85216V7.85216C1207.77 7.03948 1207.24 6.24449 1206.42 6.1452C1205.63 6.04933 1204.82 6 1204 6H1200.48ZM1224 42.3235C1224 41.4951 1223.33 40.8235 1222.5 40.8235V40.8235V40.8235C1221.67 40.8235 1221 41.4951 1221 42.3235V49.2059C1221 50.0343 1221.67 50.7059 1222.5 50.7059V50.7059V50.7059C1223.33 50.7059 1224 50.0343 1224 49.2059V42.3235ZM1224 62.0882C1224 61.2598 1223.33 60.5882 1222.5 60.5882V60.5882V60.5882C1221.67 60.5882 1221 61.2598 1221 62.0882V68.9706C1221 69.799 1221.67 70.4706 1222.5 70.4706V70.4706V70.4706C1223.33 70.4706 1224 69.799 1224 68.9706V62.0882ZM1224 81.8529C1224 81.0245 1223.33 80.3529 1222.5 80.3529V80.3529V80.3529C1221.67 80.3529 1221 81.0245 1221 81.8529V88.7353C1221 89.5637 1221.67 90.2353 1222.5 90.2353V90.2353V90.2353C1223.33 90.2353 1224 89.5637 1224 88.7353V81.8529ZM1224 101.618C1224 100.789 1223.33 100.118 1222.5 100.118V100.118V100.118C1221.67 100.118 1221 100.789 1221 101.618V108.5C1221 109.328 1221.67 110 1222.5 110V110V110C1223.33 110 1224 109.328 1224 108.5V101.618ZM1224 121.382C1224 120.554 1223.33 119.882 1222.5 119.882V119.882V119.882C1221.67 119.882 1221 120.554 1221 121.382V128.265C1221 129.093 1221.67 129.765 1222.5 129.765V129.765V129.765C1223.33 129.765 1224 129.093 1224 128.265V121.382ZM1224 141.147C1224 140.319 1223.33 139.647 1222.5 139.647V139.647V139.647C1221.67 139.647 1221 140.319 1221 141.147V148.029C1221 148.858 1221.67 149.529 1222.5 149.529V149.529V149.529C1223.33 149.529 1224 148.858 1224 148.029V141.147ZM1224 160.912C1224 160.083 1223.33 159.412 1222.5 159.412V159.412V159.412C1221.67 159.412 1221 160.083 1221 160.912V167.794C1221 168.623 1221.67 169.294 1222.5 169.294V169.294V169.294C1223.33 169.294 1224 168.623 1224 167.794V160.912ZM1224 180.676C1224 179.848 1223.33 179.176 1222.5 179.176V179.176V179.176C1221.67 179.176 1221 179.848 1221 180.676V187.559C1221 188.387 1221.67 189.059 1222.5 189.059V189.059V189.059C1223.33 189.059 1224 188.387 1224 187.559V180.676ZM1224 200.441C1224 199.613 1223.33 198.941 1222.5 198.941V198.941V198.941C1221.67 198.941 1221 199.613 1221 200.441V207.324C1221 208.152 1221.67 208.824 1222.5 208.824V208.824V208.824C1223.33 208.824 1224 208.152 1224 207.324V200.441ZM1224 220.206C1224 219.377 1223.33 218.706 1222.5 218.706V218.706V218.706C1221.67 218.706 1221 219.377 1221 220.206V227.088C1221 227.917 1221.67 228.588 1222.5 228.588V228.588V228.588C1223.33 228.588 1224 227.917 1224 227.088V220.206ZM1224 239.971C1224 239.142 1223.33 238.471 1222.5 238.471V238.471V238.471C1221.67 238.471 1221 239.142 1221 239.971V246.853C1221 247.681 1221.67 248.353 1222.5 248.353V248.353V248.353C1223.33 248.353 1224 247.681 1224 246.853V239.971ZM1224 259.735C1224 258.907 1223.33 258.235 1222.5 258.235V258.235V258.235C1221.67 258.235 1221 258.907 1221 259.735V266.618C1221 267.446 1221.67 268.118 1222.5 268.118V268.118V268.118C1223.33 268.118 1224 267.446 1224 266.618V259.735ZM1224 279.5C1224 278.672 1223.33 278 1222.5 278V278V278C1221.67 278 1221 278.672 1221 279.5V286.382C1221 287.211 1221.67 287.882 1222.5 287.882V287.882V287.882C1223.33 287.882 1224 287.211 1224 286.382V279.5ZM1124 380.5C1124 381.328 1123.33 382 1122.5 382H1120.13C1119.31 382 1118.63 381.328 1118.63 380.5V380.5V380.5C1118.63 379.672 1119.31 379 1120.13 379H1122.5C1123.33 379 1124 379.672 1124 380.5V380.5ZM1107.09 382C1107.92 382 1108.59 381.328 1108.59 380.5V380.5V380.5C1108.59 379.672 1107.92 379 1107.09 379H1100.05C1099.22 379 1098.55 379.672 1098.55 380.5V380.5V380.5C1098.55 381.328 1099.22 382 1100.05 382H1107.09ZM1087 382C1087.83 382 1088.5 381.328 1088.5 380.5V380.5V380.5C1088.5 379.672 1087.83 379 1087 379H1079.96C1079.13 379 1078.46 379.672 1078.46 380.5V380.5V380.5C1078.46 381.328 1079.13 382 1079.96 382H1087ZM1066.92 382C1067.75 382 1068.42 381.328 1068.42 380.5V380.5V380.5C1068.42 379.672 1067.75 379 1066.92 379H1059.87C1059.05 379 1058.38 379.672 1058.38 380.5V380.5V380.5C1058.38 381.328 1059.05 382 1059.88 382H1066.92ZM1046.83 382C1047.66 382 1048.33 381.328 1048.33 380.5V380.5V380.5C1048.33 379.672 1047.66 379 1046.83 379H1039.79C1038.96 379 1038.29 379.672 1038.29 380.5V380.5V380.5C1038.29 381.328 1038.96 382 1039.79 382H1046.83ZM1026.75 382C1027.57 382 1028.25 381.328 1028.25 380.5V380.5V380.5C1028.25 379.672 1027.57 379 1026.75 379H1019.7C1018.87 379 1018.2 379.672 1018.2 380.5V380.5V380.5C1018.2 381.328 1018.87 382 1019.7 382H1026.75ZM1006.66 382C1007.49 382 1008.16 381.328 1008.16 380.5V380.5V380.5C1008.16 379.672 1007.49 379 1006.66 379H999.616C998.788 379 998.116 379.672 998.116 380.5V380.5V380.5C998.116 381.328 998.788 382 999.616 382H1006.66ZM986.573 382C987.402 382 988.073 381.328 988.073 380.5V380.5V380.5C988.073 379.672 987.402 379 986.573 379H979.53C978.702 379 978.03 379.672 978.03 380.5V380.5V380.5C978.03 381.328 978.702 382 979.53 382H986.573ZM966.487 382C967.315 382 967.987 381.328 967.987 380.5V380.5V380.5C967.987 379.672 967.315 379 966.487 379H959.444C958.615 379 957.944 379.672 957.944 380.5V380.5V380.5C957.944 381.328 958.615 382 959.444 382H966.487ZM946.401 382C947.229 382 947.901 381.328 947.901 380.5V380.5V380.5C947.901 379.672 947.229 379 946.401 379H939.358C938.529 379 937.858 379.672 937.858 380.5V380.5V380.5C937.858 381.328 938.529 382 939.358 382H946.401ZM926.315 382C927.143 382 927.815 381.328 927.815 380.5V380.5V380.5C927.815 379.672 927.143 379 926.315 379H919.272C918.443 379 917.772 379.672 917.772 380.5V380.5V380.5C917.772 381.328 918.443 382 919.272 382H926.315ZM906.228 382C907.057 382 907.728 381.328 907.728 380.5V380.5V380.5C907.728 379.672 907.057 379 906.228 379H899.185C898.357 379 897.685 379.672 897.685 380.5V380.5V380.5C897.685 381.328 898.357 382 899.185 382H906.228ZM886.142 382C886.971 382 887.642 381.328 887.642 380.5V380.5V380.5C887.642 379.672 886.971 379 886.142 379H879.099C878.271 379 877.599 379.672 877.599 380.5V380.5V380.5C877.599 381.328 878.271 382 879.099 382H886.142ZM866.056 382C866.885 382 867.556 381.328 867.556 380.5V380.5V380.5C867.556 379.672 866.885 379 866.056 379H859.013C858.185 379 857.513 379.672 857.513 380.5V380.5V380.5C857.513 381.328 858.185 382 859.013 382H866.056ZM845.97 382C846.798 382 847.47 381.328 847.47 380.5V380.5V380.5C847.47 379.672 846.798 379 845.97 379H838.927C838.098 379 837.427 379.672 837.427 380.5V380.5V380.5C837.427 381.328 838.098 382 838.927 382H845.97ZM825.884 382C826.712 382 827.384 381.328 827.384 380.5V380.5V380.5C827.384 379.672 826.712 379 825.884 379H818.841C818.012 379 817.341 379.672 817.341 380.5V380.5V380.5C817.341 381.328 818.012 382 818.841 382H825.884ZM805.798 382C806.626 382 807.298 381.328 807.298 380.5V380.5V380.5C807.298 379.672 806.626 379 805.798 379H798.754C797.926 379 797.254 379.672 797.254 380.5V380.5V380.5C797.254 381.328 797.926 382 798.754 382H805.798ZM785.711 382C786.54 382 787.211 381.328 787.211 380.5V380.5V380.5C787.211 379.672 786.54 379 785.711 379H778.668C777.84 379 777.168 379.672 777.168 380.5V380.5V380.5C777.168 381.328 777.84 382 778.668 382H785.711ZM765.625 382C766.454 382 767.125 381.328 767.125 380.5V380.5V380.5C767.125 379.672 766.454 379 765.625 379H758.582C757.754 379 757.082 379.672 757.082 380.5V380.5V380.5C757.082 381.328 757.754 382 758.582 382H765.625ZM745.539 382C746.367 382 747.039 381.328 747.039 380.5V380.5V380.5C747.039 379.672 746.367 379 745.539 379H738.496C737.667 379 736.996 379.672 736.996 380.5V380.5V380.5C736.996 381.328 737.667 382 738.496 382H745.539ZM725.453 382C726.281 382 726.953 381.328 726.953 380.5V380.5V380.5C726.953 379.672 726.281 379 725.453 379H718.41C717.581 379 716.91 379.672 716.91 380.5V380.5V380.5C716.91 381.328 717.581 382 718.41 382H725.453ZM705.367 382C706.195 382 706.867 381.328 706.867 380.5V380.5V380.5C706.867 379.672 706.195 379 705.367 379H698.324C697.495 379 696.824 379.672 696.824 380.5V380.5V380.5C696.824 381.328 697.495 382 698.324 382H705.367ZM685.28 382C686.109 382 686.78 381.328 686.78 380.5V380.5V380.5C686.78 379.672 686.109 379 685.28 379H678.237C677.409 379 676.737 379.672 676.737 380.5V380.5V380.5C676.737 381.328 677.409 382 678.237 382H685.28ZM665.194 382C666.023 382 666.694 381.328 666.694 380.5V380.5V380.5C666.694 379.672 666.023 379 665.194 379H658.151C657.323 379 656.651 379.672 656.651 380.5V380.5V380.5C656.651 381.328 657.323 382 658.151 382H665.194ZM645.108 382C645.937 382 646.608 381.328 646.608 380.5V380.5V380.5C646.608 379.672 645.937 379 645.108 379H638.065C637.237 379 636.565 379.672 636.565 380.5V380.5V380.5C636.565 381.328 637.237 382 638.065 382H645.108ZM625.022 382C625.85 382 626.522 381.328 626.522 380.5V380.5V380.5C626.522 379.672 625.85 379 625.022 379H617.979C617.15 379 616.479 379.672 616.479 380.5V380.5V380.5C616.479 381.328 617.15 382 617.979 382H625.022ZM604.936 382C605.764 382 606.436 381.328 606.436 380.5V380.5V380.5C606.436 379.672 605.764 379 604.936 379H597.893C597.064 379 596.393 379.672 596.393 380.5V380.5V380.5C596.393 381.328 597.064 382 597.893 382H604.936ZM584.85 382C585.678 382 586.35 381.328 586.35 380.5V380.5V380.5C586.35 379.672 585.678 379 584.85 379H577.806C576.978 379 576.306 379.672 576.306 380.5V380.5V380.5C576.306 381.328 576.978 382 577.806 382H584.85ZM564.763 382C565.592 382 566.263 381.328 566.263 380.5V380.5V380.5C566.263 379.672 565.592 379 564.763 379H557.72C556.892 379 556.22 379.672 556.22 380.5V380.5V380.5C556.22 381.328 556.892 382 557.72 382H564.763ZM544.677 382C545.506 382 546.177 381.328 546.177 380.5V380.5V380.5C546.177 379.672 545.506 379 544.677 379H537.634C536.806 379 536.134 379.672 536.134 380.5V380.5V380.5C536.134 381.328 536.806 382 537.634 382H544.677ZM524.591 382C525.419 382 526.091 381.328 526.091 380.5V380.5V380.5C526.091 379.672 525.419 379 524.591 379H517.548C516.719 379 516.048 379.672 516.048 380.5V380.5V380.5C516.048 381.328 516.719 382 517.548 382H524.591ZM504.505 382C505.333 382 506.005 381.328 506.005 380.5V380.5V380.5C506.005 379.672 505.333 379 504.505 379H497.462C496.633 379 495.962 379.672 495.962 380.5V380.5V380.5C495.962 381.328 496.633 382 497.462 382H504.505ZM484.419 382C485.247 382 485.919 381.328 485.919 380.5V380.5V380.5C485.919 379.672 485.247 379 484.419 379H477.376C476.547 379 475.876 379.672 475.876 380.5V380.5V380.5C475.876 381.328 476.547 382 477.376 382H484.419ZM464.332 382C465.161 382 465.832 381.328 465.832 380.5V380.5V380.5C465.832 379.672 465.161 379 464.332 379H457.289C456.461 379 455.789 379.672 455.789 380.5V380.5V380.5C455.789 381.328 456.461 382 457.289 382H464.332ZM444.246 382C445.075 382 445.746 381.328 445.746 380.5V380.5V380.5C445.746 379.672 445.075 379 444.246 379H437.203C436.375 379 435.703 379.672 435.703 380.5V380.5V380.5C435.703 381.328 436.375 382 437.203 382H444.246ZM424.16 382C424.989 382 425.66 381.328 425.66 380.5V380.5V380.5C425.66 379.672 424.989 379 424.16 379H417.117C416.289 379 415.617 379.672 415.617 380.5V380.5V380.5C415.617 381.328 416.289 382 417.117 382H424.16ZM404.074 382C404.902 382 405.574 381.328 405.574 380.5V380.5V380.5C405.574 379.672 404.902 379 404.074 379H397.031C396.202 379 395.531 379.672 395.531 380.5V380.5V380.5C395.531 381.328 396.202 382 397.031 382H404.074ZM383.988 382C384.816 382 385.488 381.328 385.488 380.5V380.5V380.5C385.488 379.672 384.816 379 383.988 379H376.945C376.116 379 375.445 379.672 375.445 380.5V380.5V380.5C375.445 381.328 376.116 382 376.945 382H383.988ZM363.902 382C364.73 382 365.402 381.328 365.402 380.5V380.5V380.5C365.402 379.672 364.73 379 363.902 379H356.858C356.03 379 355.358 379.672 355.358 380.5V380.5V380.5C355.358 381.328 356.03 382 356.858 382H363.902ZM343.815 382C344.644 382 345.315 381.328 345.315 380.5V380.5V380.5C345.315 379.672 344.644 379 343.815 379H336.772C335.944 379 335.272 379.672 335.272 380.5V380.5V380.5C335.272 381.328 335.944 382 336.772 382H343.815ZM323.729 382C324.558 382 325.229 381.328 325.229 380.5V380.5V380.5C325.229 379.672 324.558 379 323.729 379H316.686C315.858 379 315.186 379.672 315.186 380.5V380.5V380.5C315.186 381.328 315.858 382 316.686 382H323.729ZM303.643 382C304.471 382 305.143 381.328 305.143 380.5V380.5V380.5C305.143 379.672 304.471 379 303.643 379H296.6C295.771 379 295.1 379.672 295.1 380.5V380.5V380.5C295.1 381.328 295.771 382 296.6 382H303.643ZM283.557 382C284.385 382 285.057 381.328 285.057 380.5V380.5V380.5C285.057 379.672 284.385 379 283.557 379H276.514C275.685 379 275.014 379.672 275.014 380.5V380.5V380.5C275.014 381.328 275.685 382 276.514 382H283.557ZM263.471 382C264.299 382 264.971 381.328 264.971 380.5V380.5V380.5C264.971 379.672 264.299 379 263.471 379H256.428C255.599 379 254.928 379.672 254.928 380.5V380.5V380.5C254.928 381.328 255.599 382 256.428 382H263.471ZM243.384 382C244.213 382 244.884 381.328 244.884 380.5V380.5V380.5C244.884 379.672 244.213 379 243.384 379H236.341C235.513 379 234.841 379.672 234.841 380.5V380.5V380.5C234.841 381.328 235.513 382 236.341 382H243.384ZM223.298 382C224.127 382 224.798 381.328 224.798 380.5V380.5V380.5C224.798 379.672 224.127 379 223.298 379H216.255C215.427 379 214.755 379.672 214.755 380.5V380.5V380.5C214.755 381.328 215.427 382 216.255 382H223.298ZM203.212 382C204.041 382 204.712 381.328 204.712 380.5V380.5V380.5C204.712 379.672 204.041 379 203.212 379H196.169C195.341 379 194.669 379.672 194.669 380.5V380.5V380.5C194.669 381.328 195.341 382 196.169 382H203.212ZM183.126 382C183.954 382 184.626 381.328 184.626 380.5V380.5V380.5C184.626 379.672 183.954 379 183.126 379H176.083C175.254 379 174.583 379.672 174.583 380.5V380.5V380.5C174.583 381.328 175.254 382 176.083 382H183.126ZM163.04 382C163.868 382 164.54 381.328 164.54 380.5V380.5V380.5C164.54 379.672 163.868 379 163.04 379H155.997C155.168 379 154.497 379.672 154.497 380.5V380.5V380.5C154.497 381.328 155.168 382 155.997 382H163.04ZM142.953 382C143.782 382 144.453 381.328 144.453 380.5V380.5V380.5C144.453 379.672 143.782 379 142.953 379H135.91C135.082 379 134.41 379.672 134.41 380.5V380.5V380.5C134.41 381.328 135.082 382 135.91 382H142.953ZM122.867 382C123.696 382 124.367 381.328 124.367 380.5V380.5V380.5C124.367 379.672 123.696 379 122.867 379H115.824C114.996 379 114.324 379.672 114.324 380.5V380.5V380.5C114.324 381.328 114.996 382 115.824 382H122.867ZM102.781 382C103.61 382 104.281 381.328 104.281 380.5V380.5V380.5C104.281 379.672 103.61 379 102.781 379H95.738C94.9096 379 94.238 379.672 94.238 380.5V380.5V380.5C94.238 381.328 94.9096 382 95.738 382H102.781ZM82.6949 382C83.5233 382 84.1949 381.328 84.1949 380.5V380.5V380.5C84.1949 379.672 83.5233 379 82.6949 379H75.6518C74.8234 379 74.1518 379.672 74.1518 380.5V380.5V380.5C74.1518 381.328 74.8234 382 75.6518 382H82.6949ZM62.6087 382C63.4372 382 64.1087 381.328 64.1087 380.5V380.5V380.5C64.1087 379.672 63.4372 379 62.6087 379H55.5656C54.7372 379 54.0656 379.672 54.0656 380.5V380.5V380.5C54.0656 381.328 54.7372 382 55.5656 382H62.6087Z" fill="#CB3838" fill-opacity="0.8"/>
</svg>
