<svg width="1241" height="589" viewBox="0 0 1241 589" fill="none" xmlns="http://www.w3.org/2000/svg">
<rect x="31" y="22.052" width="1203" height="530.948" rx="30" fill="#FFF0C4"/>
<path d="M43.5938 45.8691C43.5938 43.291 43.8281 40.5371 44.2969 37.6074C44.8242 34.6191 45.6152 31.6895 46.6699 28.8184C47.7832 25.8887 49.1895 23.1348 50.8887 20.5566C52.6465 17.9199 54.7559 15.6641 57.2168 13.7891L66.7969 20.4688C65.1562 22.3437 63.9258 24.1309 63.1055 25.8301C62.2852 27.5293 61.6406 29.2285 61.1719 30.9277C62.9297 31.2207 64.5703 31.8359 66.0938 32.7734C67.6172 33.6523 68.9355 34.7656 70.0488 36.1133C71.1621 37.4023 72.041 38.8965 72.6855 40.5957C73.3301 42.2363 73.6523 43.9941 73.6523 45.8691C73.6523 47.9199 73.2422 49.8535 72.4219 51.6699C71.6602 53.4277 70.5762 55.0098 69.1699 56.416C67.8223 57.7637 66.2402 58.8477 64.4238 59.668C62.6074 60.4297 60.7031 60.8105 58.7109 60.8105C56.6016 60.8105 54.6094 60.4297 52.7344 59.668C50.918 58.8477 49.3066 57.7637 47.9004 56.416C46.5527 55.0098 45.498 53.4277 44.7363 51.6699C43.9746 49.8535 43.5938 47.9199 43.5938 45.8691ZM7.55859 45.8691C7.55859 43.291 7.79297 40.5371 8.26172 37.6074C8.78906 34.6191 9.58008 31.6895 10.6348 28.8184C11.748 25.8887 13.1836 23.1348 14.9414 20.5566C16.6992 17.9199 18.8086 15.6641 21.2695 13.7891L30.7617 20.4688C29.1211 22.3437 27.8906 24.1309 27.0703 25.8301C26.3086 27.5293 25.6934 29.2285 25.2246 30.9277C26.9824 31.2207 28.623 31.8359 30.1465 32.7734C31.6699 33.6523 32.959 34.7656 34.0137 36.1133C35.127 37.4023 36.0059 38.8965 36.6504 40.5957C37.2949 42.2363 37.6172 43.9941 37.6172 45.8691C37.6172 47.9199 37.207 49.8535 36.3867 51.6699C35.625 53.4277 34.541 55.0098 33.1348 56.416C31.7871 57.7637 30.2051 58.8477 28.3887 59.668C26.5723 60.4297 24.668 60.8105 22.6758 60.8105C20.5664 60.8105 18.5742 60.4297 16.6992 59.668C14.8828 58.8477 13.3008 57.7637 11.9531 56.416C10.6055 55.0098 9.52148 53.4277 8.70117 51.6699C7.93945 49.8535 7.55859 47.9199 7.55859 45.8691Z" fill="#CB3838"/>
<path d="M1193.74 480.73C1193.74 483.309 1193.47 486.092 1192.95 489.08C1192.48 492.01 1191.69 494.939 1190.57 497.869C1189.52 500.74 1188.11 503.494 1186.36 506.131C1184.6 508.768 1182.49 510.994 1180.03 512.811L1170.54 506.131C1172.12 504.256 1173.32 502.469 1174.14 500.77C1174.96 499.07 1175.6 497.371 1176.07 495.672C1174.31 495.379 1172.67 494.793 1171.15 493.914C1169.63 493.035 1168.31 491.951 1167.2 490.662C1166.14 489.314 1165.29 487.791 1164.65 486.092C1164 484.393 1163.68 482.605 1163.68 480.73C1163.68 478.738 1164.06 476.834 1164.82 475.018C1165.64 473.201 1166.73 471.619 1168.07 470.271C1169.48 468.865 1171.06 467.781 1172.82 467.02C1174.64 466.199 1176.57 465.789 1178.62 465.789C1180.73 465.789 1182.69 466.199 1184.51 467.02C1186.38 467.781 1188 468.865 1189.34 470.271C1190.69 471.619 1191.75 473.201 1192.51 475.018C1193.33 476.834 1193.74 478.738 1193.74 480.73ZM1229.69 480.73C1229.69 483.309 1229.42 486.092 1228.89 489.08C1228.43 492.01 1227.63 494.939 1226.52 497.869C1225.47 500.74 1224.06 503.494 1222.3 506.131C1220.6 508.768 1218.52 510.994 1216.06 512.811L1206.48 506.131C1208.12 504.256 1209.35 502.469 1210.17 500.77C1210.99 499.07 1211.64 497.371 1212.11 495.672C1210.35 495.379 1208.71 494.793 1207.19 493.914C1205.66 493.035 1204.34 491.951 1203.23 490.662C1202.12 489.314 1201.24 487.791 1200.59 486.092C1199.95 484.393 1199.63 482.605 1199.63 480.73C1199.63 478.738 1200.01 476.834 1200.77 475.018C1201.59 473.201 1202.67 471.619 1204.02 470.271C1205.43 468.865 1207.01 467.781 1208.77 467.02C1210.58 466.199 1212.52 465.789 1214.57 465.789C1216.68 465.789 1218.64 466.199 1220.46 467.02C1222.33 467.781 1223.94 468.865 1225.29 470.271C1226.7 471.619 1227.78 473.201 1228.54 475.018C1229.3 476.834 1229.69 478.738 1229.69 480.73Z" fill="#CB3838"/>
<path fill-rule="evenodd" clip-rule="evenodd" d="M14.5 125.871C13.6716 125.871 13 125.199 13 124.371V119.953C13 119.125 13.6716 118.453 14.5 118.453V118.453C15.3284 118.453 16 119.125 16 119.953V124.371C16 125.199 15.3284 125.871 14.5 125.871V125.871V125.871ZM30.5778 523.835C29.7553 523.736 29.2271 522.941 29.3879 522.128V522.128V522.128C29.5486 521.315 30.3377 520.794 31.1614 520.882C31.7646 520.947 32.378 520.98 33 520.98H36.5226C37.351 520.98 38.0226 521.652 38.0226 522.48V522.48V522.48C38.0226 523.309 37.351 523.98 36.5226 523.98H33C32.1801 523.98 31.3718 523.931 30.5778 523.835ZM1218 23.5415C1218 24.3699 1217.33 25.0415 1216.5 25.0415V25.0415V25.0415C1215.67 25.0415 1215 24.3699 1215 23.5415V20C1215 19.3779 1214.97 18.7646 1214.9 18.1613C1214.81 17.3377 1215.34 16.5486 1216.15 16.3879V16.3879V16.3879C1216.96 16.2271 1217.76 16.7553 1217.85 17.5777C1217.95 18.3718 1218 19.1801 1218 20V23.5415ZM1213.75 7.67361C1214.26 8.32565 1214.07 9.26131 1213.38 9.72217V9.72217V9.72217C1212.7 10.183 1211.77 9.99376 1211.25 9.34846C1210.48 8.39174 1209.61 7.52 1208.65 6.74977C1208.01 6.23026 1207.82 5.30354 1208.28 4.61514V4.61514V4.61514C1208.74 3.92675 1209.67 3.738 1210.33 4.24899C1211.6 5.24812 1212.75 6.39869 1213.75 7.67361ZM13 500.439C13 499.61 13.6716 498.939 14.5 498.939V498.939V498.939C15.3284 498.939 16 499.61 16 500.439V503.98C16 504.602 16.0333 505.216 16.098 505.819C16.1864 506.643 15.6648 507.432 14.8522 507.592V507.592V507.592C14.0395 507.753 13.2445 507.225 13.1452 506.402C13.0493 505.608 13 504.8 13 503.98V500.439ZM17.249 516.307C16.738 515.655 16.9267 514.719 17.6151 514.258V514.258V514.258C18.3035 513.797 19.2303 513.986 19.7498 514.632C20.52 515.589 21.3918 516.46 22.3485 517.23C22.9938 517.75 23.183 518.677 22.7222 519.365V519.365V519.365C22.2613 520.053 21.3256 520.242 20.6735 519.731C19.3986 518.732 18.2481 517.582 17.249 516.307ZM13 487.356C13 488.184 13.6716 488.856 14.5 488.856V488.856V488.856C15.3284 488.856 16 488.184 16 487.356V480.273C16 479.444 15.3284 478.773 14.5 478.773V478.773V478.773C13.6716 478.773 13 479.444 13 480.273V487.356ZM13 467.19C13 468.018 13.6716 468.69 14.5 468.69V468.69V468.69C15.3284 468.69 16 468.018 16 467.19V460.107C16 459.279 15.3284 458.607 14.5 458.607V458.607V458.607C13.6716 458.607 13 459.279 13 460.107V467.19ZM13 447.024C13 447.853 13.6716 448.524 14.5 448.524V448.524V448.524C15.3284 448.524 16 447.853 16 447.024V439.941C16 439.113 15.3284 438.441 14.5 438.441V438.441V438.441C13.6716 438.441 13 439.113 13 439.941V447.024ZM13 426.858C13 427.687 13.6716 428.358 14.5 428.358V428.358V428.358C15.3284 428.358 16 427.687 16 426.858V419.775C16 418.947 15.3284 418.275 14.5 418.275V418.275V418.275C13.6716 418.275 13 418.947 13 419.775V426.858ZM13 406.692C13 407.521 13.6716 408.192 14.5 408.192V408.192V408.192C15.3284 408.192 16 407.521 16 406.692V399.61C16 398.781 15.3284 398.11 14.5 398.11V398.11V398.11C13.6716 398.11 13 398.781 13 399.61V406.692ZM13 386.527C13 387.355 13.6716 388.027 14.5 388.027V388.027V388.027C15.3284 388.027 16 387.355 16 386.527V379.444C16 378.615 15.3284 377.944 14.5 377.944V377.944V377.944C13.6716 377.944 13 378.615 13 379.444V386.527ZM13 366.361C13 367.189 13.6716 367.861 14.5 367.861V367.861V367.861C15.3284 367.861 16 367.189 16 366.361V359.278C16 358.449 15.3284 357.778 14.5 357.778V357.778V357.778C13.6716 357.778 13 358.449 13 359.278V366.361ZM13 346.195C13 347.023 13.6716 347.695 14.5 347.695V347.695V347.695C15.3284 347.695 16 347.023 16 346.195V339.112C16 338.284 15.3284 337.612 14.5 337.612V337.612V337.612C13.6716 337.612 13 338.284 13 339.112V346.195ZM13 326.029C13 326.858 13.6716 327.529 14.5 327.529V327.529V327.529C15.3284 327.529 16 326.858 16 326.029V318.946C16 318.118 15.3284 317.446 14.5 317.446V317.446V317.446C13.6716 317.446 13 318.118 13 318.946V326.029ZM13 305.863C13 306.692 13.6716 307.363 14.5 307.363V307.363V307.363C15.3284 307.363 16 306.692 16 305.863V298.78C16 297.952 15.3284 297.28 14.5 297.28V297.28V297.28C13.6716 297.28 13 297.952 13 298.78V305.863ZM13 285.697C13 286.526 13.6716 287.197 14.5 287.197V287.197V287.197C15.3284 287.197 16 286.526 16 285.697V278.615C16 277.786 15.3284 277.115 14.5 277.115V277.115V277.115C13.6716 277.115 13 277.786 13 278.615V285.697ZM13 265.532C13 266.36 13.6716 267.032 14.5 267.032V267.032V267.032C15.3284 267.032 16 266.36 16 265.532V258.449C16 257.62 15.3284 256.949 14.5 256.949V256.949V256.949C13.6716 256.949 13 257.62 13 258.449V265.532ZM13 245.366C13 246.194 13.6716 246.866 14.5 246.866V246.866V246.866C15.3284 246.866 16 246.194 16 245.366V238.283C16 237.454 15.3284 236.783 14.5 236.783V236.783V236.783C13.6716 236.783 13 237.454 13 238.283V245.366ZM13 225.2C13 226.028 13.6716 226.7 14.5 226.7V226.7V226.7C15.3284 226.7 16 226.028 16 225.2V218.117C16 217.289 15.3284 216.617 14.5 216.617V216.617V216.617C13.6716 216.617 13 217.289 13 218.117V225.2ZM13 205.034C13 205.863 13.6716 206.534 14.5 206.534V206.534V206.534C15.3284 206.534 16 205.863 16 205.034V197.951C16 197.123 15.3284 196.451 14.5 196.451V196.451V196.451C13.6716 196.451 13 197.123 13 197.951V205.034ZM13 184.868C13 185.697 13.6716 186.368 14.5 186.368V186.368V186.368C15.3284 186.368 16 185.697 16 184.868V177.785C16 176.957 15.3284 176.285 14.5 176.285V176.285V176.285C13.6716 176.285 13 176.957 13 177.785V184.868ZM13 164.702C13 165.531 13.6716 166.202 14.5 166.202V166.202V166.202C15.3284 166.202 16 165.531 16 164.702V157.62C16 156.791 15.3284 156.12 14.5 156.12V156.12V156.12C13.6716 156.12 13 156.791 13 157.62V164.702ZM13 144.537C13 145.365 13.6716 146.037 14.5 146.037V146.037V146.037C15.3284 146.037 16 145.365 16 144.537V137.454C16 136.625 15.3284 135.954 14.5 135.954V135.954V135.954C13.6716 135.954 13 136.625 13 137.454V144.537ZM109.823 0C108.995 0 108.323 0.671573 108.323 1.5V1.5V1.5C108.323 2.32843 108.995 3 109.823 3H116.866C117.695 3 118.366 2.32843 118.366 1.5V1.5V1.5C118.366 0.671573 117.695 0 116.866 0H109.823ZM129.909 0C129.081 0 128.409 0.671573 128.409 1.5V1.5V1.5C128.409 2.32843 129.081 3 129.909 3H136.953C137.781 3 138.453 2.32843 138.453 1.5V1.5V1.5C138.453 0.671573 137.781 0 136.953 0H129.909ZM149.996 0C149.167 0 148.496 0.671573 148.496 1.5V1.5V1.5C148.496 2.32843 149.167 3 149.996 3H157.039C157.867 3 158.539 2.32843 158.539 1.5V1.5V1.5C158.539 0.671573 157.867 0 157.039 0H149.996ZM170.082 0C169.253 0 168.582 0.671573 168.582 1.5V1.5V1.5C168.582 2.32843 169.253 3 170.082 3H177.125C177.953 3 178.625 2.32843 178.625 1.5V1.5V1.5C178.625 0.671573 177.953 0 177.125 0H170.082ZM190.168 0C189.34 0 188.668 0.671573 188.668 1.5V1.5V1.5C188.668 2.32843 189.34 3 190.168 3H197.211C198.04 3 198.711 2.32843 198.711 1.5V1.5V1.5C198.711 0.671573 198.04 0 197.211 0H190.168ZM210.254 0C209.426 0 208.754 0.671573 208.754 1.5V1.5V1.5C208.754 2.32843 209.426 3 210.254 3H217.297C218.126 3 218.797 2.32843 218.797 1.5V1.5V1.5C218.797 0.671573 218.126 0 217.297 0H210.254ZM230.341 0C229.512 0 228.841 0.671573 228.841 1.5V1.5V1.5C228.841 2.32843 229.512 3 230.341 3H237.384C238.212 3 238.884 2.32843 238.884 1.5V1.5V1.5C238.884 0.671573 238.212 0 237.384 0H230.341ZM250.427 0C249.598 0 248.927 0.671573 248.927 1.5V1.5V1.5C248.927 2.32843 249.598 3 250.427 3H257.47C258.298 3 258.97 2.32843 258.97 1.5V1.5V1.5C258.97 0.671573 258.298 0 257.47 0H250.427ZM270.513 0C269.685 0 269.013 0.671573 269.013 1.5V1.5V1.5C269.013 2.32843 269.685 3 270.513 3H277.556C278.384 3 279.056 2.32843 279.056 1.5V1.5V1.5C279.056 0.671573 278.384 0 277.556 0H270.513ZM290.599 0C289.771 0 289.099 0.671573 289.099 1.5V1.5V1.5C289.099 2.32843 289.771 3 290.599 3H297.642C298.471 3 299.142 2.32843 299.142 1.5V1.5V1.5C299.142 0.671573 298.471 0 297.642 0H290.599ZM310.685 0C309.857 0 309.185 0.671573 309.185 1.5V1.5V1.5C309.185 2.32843 309.857 3 310.685 3H317.728C318.557 3 319.228 2.32843 319.228 1.5V1.5V1.5C319.228 0.671573 318.557 0 317.728 0H310.685ZM330.772 0C329.943 0 329.272 0.671573 329.272 1.5V1.5V1.5C329.272 2.32843 329.943 3 330.772 3H337.815C338.643 3 339.315 2.32843 339.315 1.5V1.5V1.5C339.315 0.671573 338.643 0 337.815 0H330.772ZM350.858 0C350.029 0 349.358 0.671573 349.358 1.5V1.5V1.5C349.358 2.32843 350.029 3 350.858 3H357.901C358.729 3 359.401 2.32843 359.401 1.5V1.5V1.5C359.401 0.671573 358.729 0 357.901 0H350.858ZM370.944 0C370.115 0 369.444 0.671573 369.444 1.5V1.5V1.5C369.444 2.32843 370.115 3 370.944 3H377.987C378.815 3 379.487 2.32843 379.487 1.5V1.5V1.5C379.487 0.671573 378.815 0 377.987 0H370.944ZM391.03 0C390.202 0 389.53 0.671573 389.53 1.5V1.5V1.5C389.53 2.32843 390.202 3 391.03 3H398.073C398.902 3 399.573 2.32843 399.573 1.5V1.5V1.5C399.573 0.671573 398.902 0 398.073 0H391.03ZM411.116 0C410.288 0 409.616 0.671573 409.616 1.5V1.5V1.5C409.616 2.32843 410.288 3 411.116 3H418.159C418.988 3 419.659 2.32843 419.659 1.5V1.5V1.5C419.659 0.671573 418.988 0 418.159 0H411.116ZM431.202 0C430.374 0 429.702 0.671573 429.702 1.5V1.5V1.5C429.702 2.32843 430.374 3 431.202 3H438.246C439.074 3 439.746 2.32843 439.746 1.5V1.5V1.5C439.746 0.671573 439.074 0 438.246 0H431.202ZM451.289 0C450.46 0 449.789 0.671573 449.789 1.5V1.5V1.5C449.789 2.32843 450.46 3 451.289 3H458.332C459.16 3 459.832 2.32843 459.832 1.5V1.5V1.5C459.832 0.671573 459.16 0 458.332 0H451.289ZM471.375 0C470.546 0 469.875 0.671573 469.875 1.5V1.5V1.5C469.875 2.32843 470.546 3 471.375 3H478.418C479.246 3 479.918 2.32843 479.918 1.5V1.5V1.5C479.918 0.671573 479.246 0 478.418 0H471.375ZM491.461 0C490.633 0 489.961 0.671573 489.961 1.5V1.5V1.5C489.961 2.32843 490.633 3 491.461 3H498.504C499.333 3 500.004 2.32843 500.004 1.5V1.5V1.5C500.004 0.671573 499.333 0 498.504 0H491.461ZM511.547 0C510.719 0 510.047 0.671573 510.047 1.5V1.5V1.5C510.047 2.32843 510.719 3 511.547 3H518.59C519.419 3 520.09 2.32843 520.09 1.5V1.5V1.5C520.09 0.671573 519.419 0 518.59 0H511.547ZM531.633 0C530.805 0 530.133 0.671573 530.133 1.5V1.5V1.5C530.133 2.32843 530.805 3 531.633 3H538.676C539.505 3 540.176 2.32843 540.176 1.5V1.5V1.5C540.176 0.671573 539.505 0 538.676 0H531.633ZM551.72 0C550.891 0 550.22 0.671573 550.22 1.5V1.5V1.5C550.22 2.32843 550.891 3 551.72 3H558.763C559.591 3 560.263 2.32843 560.263 1.5V1.5V1.5C560.263 0.671573 559.591 0 558.763 0H551.72ZM571.806 0C570.977 0 570.306 0.671573 570.306 1.5V1.5V1.5C570.306 2.32843 570.977 3 571.806 3H578.849C579.677 3 580.349 2.32843 580.349 1.5V1.5V1.5C580.349 0.671573 579.677 0 578.849 0H571.806ZM591.892 0C591.063 0 590.392 0.671573 590.392 1.5V1.5V1.5C590.392 2.32843 591.063 3 591.892 3H598.935C599.763 3 600.435 2.32843 600.435 1.5V1.5V1.5C600.435 0.671573 599.763 0 598.935 0H591.892ZM611.978 0C611.15 0 610.478 0.671573 610.478 1.5V1.5V1.5C610.478 2.32843 611.15 3 611.978 3H619.021C619.85 3 620.521 2.32843 620.521 1.5V1.5V1.5C620.521 0.671573 619.85 0 619.021 0H611.978ZM632.064 0C631.236 0 630.564 0.671573 630.564 1.5V1.5V1.5C630.564 2.32843 631.236 3 632.064 3H639.107C639.936 3 640.607 2.32843 640.607 1.5V1.5V1.5C640.607 0.671573 639.936 0 639.107 0H632.064ZM652.15 0C651.322 0 650.65 0.671573 650.65 1.5V1.5V1.5C650.65 2.32843 651.322 3 652.15 3H659.194C660.022 3 660.694 2.32843 660.694 1.5V1.5V1.5C660.694 0.671573 660.022 0 659.194 0H652.15ZM672.237 0C671.408 0 670.737 0.671573 670.737 1.5V1.5V1.5C670.737 2.32843 671.408 3 672.237 3H679.28C680.108 3 680.78 2.32843 680.78 1.5V1.5V1.5C680.78 0.671573 680.108 0 679.28 0H672.237ZM692.323 0C691.494 0 690.823 0.671573 690.823 1.5V1.5V1.5C690.823 2.32843 691.494 3 692.323 3H699.366C700.194 3 700.866 2.32843 700.866 1.5V1.5V1.5C700.866 0.671573 700.194 0 699.366 0H692.323ZM712.409 0C711.581 0 710.909 0.671573 710.909 1.5V1.5V1.5C710.909 2.32843 711.581 3 712.409 3H719.452C720.281 3 720.952 2.32843 720.952 1.5V1.5V1.5C720.952 0.671573 720.281 0 719.452 0H712.409ZM732.495 0C731.667 0 730.995 0.671573 730.995 1.5V1.5V1.5C730.995 2.32843 731.667 3 732.495 3H739.538C740.367 3 741.038 2.32843 741.038 1.5V1.5V1.5C741.038 0.671573 740.367 0 739.538 0H732.495ZM752.581 0C751.753 0 751.081 0.671573 751.081 1.5V1.5V1.5C751.081 2.32843 751.753 3 752.581 3H759.624C760.453 3 761.124 2.32843 761.124 1.5V1.5V1.5C761.124 0.671573 760.453 0 759.624 0H752.581ZM772.668 0C771.839 0 771.168 0.671573 771.168 1.5V1.5V1.5C771.168 2.32843 771.839 3 772.668 3H779.711C780.539 3 781.211 2.32843 781.211 1.5V1.5V1.5C781.211 0.671573 780.539 0 779.711 0H772.668ZM792.754 0C791.925 0 791.254 0.671573 791.254 1.5V1.5V1.5C791.254 2.32843 791.925 3 792.754 3H799.797C800.625 3 801.297 2.32843 801.297 1.5V1.5V1.5C801.297 0.671573 800.625 0 799.797 0H792.754ZM812.84 0C812.011 0 811.34 0.671573 811.34 1.5V1.5V1.5C811.34 2.32843 812.011 3 812.84 3H819.883C820.711 3 821.383 2.32843 821.383 1.5V1.5V1.5C821.383 0.671573 820.711 0 819.883 0H812.84ZM832.926 0C832.098 0 831.426 0.671573 831.426 1.5V1.5V1.5C831.426 2.32843 832.098 3 832.926 3H839.969C840.798 3 841.469 2.32843 841.469 1.5V1.5V1.5C841.469 0.671573 840.798 0 839.969 0H832.926ZM853.012 0C852.184 0 851.512 0.671573 851.512 1.5V1.5V1.5C851.512 2.32843 852.184 3 853.012 3H860.055C860.884 3 861.555 2.32843 861.555 1.5V1.5V1.5C861.555 0.671573 860.884 0 860.055 0H853.012ZM873.098 0C872.27 0 871.598 0.671573 871.598 1.5V1.5V1.5C871.598 2.32843 872.27 3 873.098 3H880.142C880.97 3 881.642 2.32843 881.642 1.5V1.5V1.5C881.642 0.671573 880.97 0 880.142 0H873.098ZM893.185 0C892.356 0 891.685 0.671573 891.685 1.5V1.5V1.5C891.685 2.32843 892.356 3 893.185 3H900.228C901.056 3 901.728 2.32843 901.728 1.5V1.5V1.5C901.728 0.671573 901.056 0 900.228 0H893.185ZM913.271 0C912.442 0 911.771 0.671573 911.771 1.5V1.5V1.5C911.771 2.32843 912.442 3 913.271 3H920.314C921.142 3 921.814 2.32843 921.814 1.5V1.5V1.5C921.814 0.671573 921.142 0 920.314 0H913.271ZM933.357 0C932.529 0 931.857 0.671573 931.857 1.5V1.5V1.5C931.857 2.32843 932.529 3 933.357 3H940.4C941.229 3 941.9 2.32843 941.9 1.5V1.5V1.5C941.9 0.671573 941.229 0 940.4 0H933.357ZM953.443 0C952.615 0 951.943 0.671573 951.943 1.5V1.5V1.5C951.943 2.32843 952.615 3 953.443 3H960.486C961.315 3 961.986 2.32843 961.986 1.5V1.5V1.5C961.986 0.671573 961.315 0 960.486 0H953.443ZM973.529 0C972.701 0 972.029 0.671573 972.029 1.5V1.5V1.5C972.029 2.32843 972.701 3 973.529 3H980.572C981.401 3 982.072 2.32843 982.072 1.5V1.5V1.5C982.072 0.671573 981.401 0 980.572 0H973.529ZM993.616 0C992.787 0 992.116 0.671573 992.116 1.5V1.5V1.5C992.116 2.32843 992.787 3 993.616 3H1000.66C1001.49 3 1002.16 2.32843 1002.16 1.5V1.5V1.5C1002.16 0.671573 1001.49 0 1000.66 0H993.616ZM1013.7 0C1012.87 0 1012.2 0.671573 1012.2 1.5V1.5V1.5C1012.2 2.32843 1012.87 3 1013.7 3H1020.74C1021.57 3 1022.24 2.32843 1022.24 1.5V1.5V1.5C1022.24 0.671573 1021.57 0 1020.74 0H1013.7ZM1033.79 0C1032.96 0 1032.29 0.671573 1032.29 1.5V1.5V1.5C1032.29 2.32843 1032.96 3 1033.79 3H1040.83C1041.66 3 1042.33 2.32843 1042.33 1.5V1.5V1.5C1042.33 0.671573 1041.66 0 1040.83 0H1033.79ZM1053.87 0C1053.05 0 1052.37 0.671573 1052.37 1.5V1.5V1.5C1052.37 2.32843 1053.05 3 1053.87 3H1060.92C1061.75 3 1062.42 2.32843 1062.42 1.5V1.5V1.5C1062.42 0.671573 1061.75 0 1060.92 0H1053.87ZM1073.96 0C1073.13 0 1072.46 0.671573 1072.46 1.5V1.5V1.5C1072.46 2.32843 1073.13 3 1073.96 3H1081C1081.83 3 1082.5 2.32843 1082.5 1.5V1.5V1.5C1082.5 0.671573 1081.83 0 1081 0H1073.96ZM1094.05 0C1093.22 0 1092.55 0.671573 1092.55 1.5V1.5V1.5C1092.55 2.32843 1093.22 3 1094.05 3H1101.09C1101.92 3 1102.59 2.32843 1102.59 1.5V1.5V1.5C1102.59 0.671573 1101.92 0 1101.09 0H1094.05ZM1114.13 0C1113.3 0 1112.63 0.671573 1112.63 1.5V1.5V1.5C1112.63 2.32843 1113.3 3 1114.13 3H1121.18C1122 3 1122.68 2.32843 1122.68 1.5V1.5V1.5C1122.68 0.671573 1122 0 1121.18 0H1114.13ZM1134.22 0C1133.39 0 1132.72 0.671573 1132.72 1.5V1.5V1.5C1132.72 2.32843 1133.39 3 1134.22 3H1141.26C1142.09 3 1142.76 2.32843 1142.76 1.5V1.5V1.5C1142.76 0.671573 1142.09 0 1141.26 0H1134.22ZM1154.31 0C1153.48 0 1152.81 0.671573 1152.81 1.5V1.5V1.5C1152.81 2.32843 1153.48 3 1154.31 3H1161.35C1162.18 3 1162.85 2.32843 1162.85 1.5V1.5V1.5C1162.85 0.671573 1162.18 0 1161.35 0H1154.31ZM1174.39 0C1173.56 0 1172.89 0.671573 1172.89 1.5V1.5V1.5C1172.89 2.32843 1173.56 3 1174.39 3H1181.43C1182.26 3 1182.93 2.32843 1182.93 1.5V1.5V1.5C1182.93 0.671573 1182.26 0 1181.43 0H1174.39ZM1194.48 0C1193.65 0 1192.98 0.671573 1192.98 1.5V1.5V1.5C1192.98 2.32843 1193.65 3 1194.48 3H1198C1198.62 3 1199.24 3.03328 1199.84 3.09802C1200.66 3.18642 1201.45 2.66484 1201.61 1.85216V1.85216V1.85216C1201.77 1.03948 1201.24 0.24449 1200.42 0.145195C1199.63 0.0493339 1198.82 0 1198 0H1194.48ZM1218 36.6244C1218 35.796 1217.33 35.1244 1216.5 35.1244V35.1244V35.1244C1215.67 35.1244 1215 35.796 1215 36.6244V43.7073C1215 44.5357 1215.67 45.2073 1216.5 45.2073V45.2073V45.2073C1217.33 45.2073 1218 44.5357 1218 43.7073V36.6244ZM1218 56.7902C1218 55.9618 1217.33 55.2902 1216.5 55.2902V55.2902V55.2902C1215.67 55.2902 1215 55.9618 1215 56.7902V63.8731C1215 64.7016 1215.67 65.3731 1216.5 65.3731V65.3731V65.3731C1217.33 65.3731 1218 64.7016 1218 63.8731V56.7902ZM1218 76.9561C1218 76.1276 1217.33 75.4561 1216.5 75.4561V75.4561V75.4561C1215.67 75.4561 1215 76.1276 1215 76.9561V84.039C1215 84.8674 1215.67 85.539 1216.5 85.539V85.539V85.539C1217.33 85.539 1218 84.8674 1218 84.039V76.9561ZM1218 97.1219C1218 96.2935 1217.33 95.6219 1216.5 95.6219V95.6219V95.6219C1215.67 95.6219 1215 96.2935 1215 97.1219V104.205C1215 105.033 1215.67 105.705 1216.5 105.705V105.705V105.705C1217.33 105.705 1218 105.033 1218 104.205V97.1219ZM1218 117.288C1218 116.459 1217.33 115.788 1216.5 115.788V115.788V115.788C1215.67 115.788 1215 116.459 1215 117.288V124.371C1215 125.199 1215.67 125.871 1216.5 125.871V125.871V125.871C1217.33 125.871 1218 125.199 1218 124.371V117.288ZM1218 137.454C1218 136.625 1217.33 135.954 1216.5 135.954V135.954V135.954C1215.67 135.954 1215 136.625 1215 137.454V144.537C1215 145.365 1215.67 146.037 1216.5 146.037V146.037V146.037C1217.33 146.037 1218 145.365 1218 144.537V137.454ZM1218 157.619C1218 156.791 1217.33 156.119 1216.5 156.119V156.119V156.119C1215.67 156.119 1215 156.791 1215 157.619V164.702C1215 165.531 1215.67 166.202 1216.5 166.202V166.202V166.202C1217.33 166.202 1218 165.531 1218 164.702V157.619ZM1218 177.785C1218 176.957 1217.33 176.285 1216.5 176.285V176.285V176.285C1215.67 176.285 1215 176.957 1215 177.785V184.868C1215 185.697 1215.67 186.368 1216.5 186.368V186.368V186.368C1217.33 186.368 1218 185.697 1218 184.868V177.785ZM1218 197.951C1218 197.123 1217.33 196.451 1216.5 196.451V196.451V196.451C1215.67 196.451 1215 197.123 1215 197.951V205.034C1215 205.862 1215.67 206.534 1216.5 206.534V206.534V206.534C1217.33 206.534 1218 205.862 1218 205.034V197.951ZM1218 218.117C1218 217.289 1217.33 216.617 1216.5 216.617V216.617V216.617C1215.67 216.617 1215 217.289 1215 218.117V225.2C1215 226.028 1215.67 226.7 1216.5 226.7V226.7V226.7C1217.33 226.7 1218 226.028 1218 225.2V218.117ZM1218 238.283C1218 237.454 1217.33 236.783 1216.5 236.783V236.783V236.783C1215.67 236.783 1215 237.454 1215 238.283V245.366C1215 246.194 1215.67 246.866 1216.5 246.866V246.866V246.866C1217.33 246.866 1218 246.194 1218 245.366V238.283ZM1218 258.449C1218 257.62 1217.33 256.949 1216.5 256.949V256.949V256.949C1215.67 256.949 1215 257.62 1215 258.449V265.532C1215 266.36 1215.67 267.032 1216.5 267.032V267.032V267.032C1217.33 267.032 1218 266.36 1218 265.532V258.449ZM1218 278.614C1218 277.786 1217.33 277.114 1216.5 277.114V277.114V277.114C1215.67 277.114 1215 277.786 1215 278.614V285.697C1215 286.526 1215.67 287.197 1216.5 287.197V287.197V287.197C1217.33 287.197 1218 286.526 1218 285.697V278.614ZM1218 298.78C1218 297.952 1217.33 297.28 1216.5 297.28V297.28V297.28C1215.67 297.28 1215 297.952 1215 298.78V305.863C1215 306.692 1215.67 307.363 1216.5 307.363V307.363V307.363C1217.33 307.363 1218 306.692 1218 305.863V298.78ZM1218 318.946C1218 318.118 1217.33 317.446 1216.5 317.446V317.446V317.446C1215.67 317.446 1215 318.118 1215 318.946V326.029C1215 326.857 1215.67 327.529 1216.5 327.529V327.529V327.529C1217.33 327.529 1218 326.857 1218 326.029V318.946ZM1218 339.112C1218 338.284 1217.33 337.612 1216.5 337.612V337.612V337.612C1215.67 337.612 1215 338.284 1215 339.112V346.195C1215 347.023 1215.67 347.695 1216.5 347.695V347.695V347.695C1217.33 347.695 1218 347.023 1218 346.195V339.112ZM1218 359.278C1218 358.449 1217.33 357.778 1216.5 357.778V357.778V357.778C1215.67 357.778 1215 358.449 1215 359.278V366.361C1215 367.189 1215.67 367.861 1216.5 367.861V367.861V367.861C1217.33 367.861 1218 367.189 1218 366.361V359.278ZM1218 379.444C1218 378.615 1217.33 377.944 1216.5 377.944V377.944V377.944C1215.67 377.944 1215 378.615 1215 379.444V386.527C1215 387.355 1215.67 388.027 1216.5 388.027V388.027V388.027C1217.33 388.027 1218 387.355 1218 386.527V379.444ZM1118 522.48C1118 523.309 1117.33 523.98 1116.5 523.98H1114.13C1113.31 523.98 1112.63 523.309 1112.63 522.48V522.48V522.48C1112.63 521.652 1113.31 520.98 1114.13 520.98H1116.5C1117.33 520.98 1118 521.652 1118 522.48V522.48ZM1101.09 523.98C1101.92 523.98 1102.59 523.309 1102.59 522.48V522.48V522.48C1102.59 521.652 1101.92 520.98 1101.09 520.98H1094.05C1093.22 520.98 1092.55 521.652 1092.55 522.48V522.48V522.48C1092.55 523.309 1093.22 523.98 1094.05 523.98H1101.09ZM1081 523.98C1081.83 523.98 1082.5 523.309 1082.5 522.48V522.48V522.48C1082.5 521.652 1081.83 520.98 1081 520.98H1073.96C1073.13 520.98 1072.46 521.652 1072.46 522.48V522.48V522.48C1072.46 523.309 1073.13 523.98 1073.96 523.98H1081ZM1060.92 523.98C1061.75 523.98 1062.42 523.309 1062.42 522.48V522.48V522.48C1062.42 521.652 1061.75 520.98 1060.92 520.98H1053.87C1053.05 520.98 1052.38 521.652 1052.38 522.48V522.48V522.48C1052.38 523.309 1053.05 523.98 1053.88 523.98H1060.92ZM1040.83 523.98C1041.66 523.98 1042.33 523.309 1042.33 522.48V522.48V522.48C1042.33 521.652 1041.66 520.98 1040.83 520.98H1033.79C1032.96 520.98 1032.29 521.652 1032.29 522.48V522.48V522.48C1032.29 523.309 1032.96 523.98 1033.79 523.98H1040.83ZM1020.75 523.98C1021.57 523.98 1022.25 523.309 1022.25 522.48V522.48V522.48C1022.25 521.652 1021.57 520.98 1020.75 520.98H1013.7C1012.87 520.98 1012.2 521.652 1012.2 522.48V522.48V522.48C1012.2 523.309 1012.87 523.98 1013.7 523.98H1020.75ZM1000.66 523.98C1001.49 523.98 1002.16 523.309 1002.16 522.48V522.48V522.48C1002.16 521.652 1001.49 520.98 1000.66 520.98H993.616C992.788 520.98 992.116 521.652 992.116 522.48V522.48V522.48C992.116 523.309 992.788 523.98 993.616 523.98H1000.66ZM980.573 523.98C981.402 523.98 982.073 523.309 982.073 522.48V522.48V522.48C982.073 521.652 981.402 520.98 980.573 520.98H973.53C972.702 520.98 972.03 521.652 972.03 522.48V522.48V522.48C972.03 523.309 972.702 523.98 973.53 523.98H980.573ZM960.487 523.98C961.315 523.98 961.987 523.309 961.987 522.48V522.48V522.48C961.987 521.652 961.315 520.98 960.487 520.98H953.444C952.615 520.98 951.944 521.652 951.944 522.48V522.48V522.48C951.944 523.309 952.615 523.98 953.444 523.98H960.487ZM940.401 523.98C941.229 523.98 941.901 523.309 941.901 522.48V522.48V522.48C941.901 521.652 941.229 520.98 940.401 520.98H933.358C932.529 520.98 931.858 521.652 931.858 522.48V522.48V522.48C931.858 523.309 932.529 523.98 933.358 523.98H940.401ZM920.315 523.98C921.143 523.98 921.815 523.309 921.815 522.48V522.48V522.48C921.815 521.652 921.143 520.98 920.315 520.98H913.272C912.443 520.98 911.772 521.652 911.772 522.48V522.48V522.48C911.772 523.309 912.443 523.98 913.272 523.98H920.315ZM900.228 523.98C901.057 523.98 901.728 523.309 901.728 522.48V522.48V522.48C901.728 521.652 901.057 520.98 900.228 520.98H893.185C892.357 520.98 891.685 521.652 891.685 522.48V522.48V522.48C891.685 523.309 892.357 523.98 893.185 523.98H900.228ZM880.142 523.98C880.971 523.98 881.642 523.309 881.642 522.48V522.48V522.48C881.642 521.652 880.971 520.98 880.142 520.98H873.099C872.271 520.98 871.599 521.652 871.599 522.48V522.48V522.48C871.599 523.309 872.271 523.98 873.099 523.98H880.142ZM860.056 523.98C860.885 523.98 861.556 523.309 861.556 522.48V522.48V522.48C861.556 521.652 860.885 520.98 860.056 520.98H853.013C852.185 520.98 851.513 521.652 851.513 522.48V522.48V522.48C851.513 523.309 852.185 523.98 853.013 523.98H860.056ZM839.97 523.98C840.798 523.98 841.47 523.309 841.47 522.48V522.48V522.48C841.47 521.652 840.798 520.98 839.97 520.98H832.927C832.098 520.98 831.427 521.652 831.427 522.48V522.48V522.48C831.427 523.309 832.098 523.98 832.927 523.98H839.97ZM819.884 523.98C820.712 523.98 821.384 523.309 821.384 522.48V522.48V522.48C821.384 521.652 820.712 520.98 819.884 520.98H812.841C812.012 520.98 811.341 521.652 811.341 522.48V522.48V522.48C811.341 523.309 812.012 523.98 812.841 523.98H819.884ZM799.798 523.98C800.626 523.98 801.298 523.309 801.298 522.48V522.48V522.48C801.298 521.652 800.626 520.98 799.798 520.98H792.754C791.926 520.98 791.254 521.652 791.254 522.48V522.48V522.48C791.254 523.309 791.926 523.98 792.754 523.98H799.798ZM779.711 523.98C780.54 523.98 781.211 523.309 781.211 522.48V522.48V522.48C781.211 521.652 780.54 520.98 779.711 520.98H772.668C771.84 520.98 771.168 521.652 771.168 522.48V522.48V522.48C771.168 523.309 771.84 523.98 772.668 523.98H779.711ZM759.625 523.98C760.454 523.98 761.125 523.309 761.125 522.48V522.48V522.48C761.125 521.652 760.454 520.98 759.625 520.98H752.582C751.754 520.98 751.082 521.652 751.082 522.48V522.48V522.48C751.082 523.309 751.754 523.98 752.582 523.98H759.625ZM739.539 523.98C740.367 523.98 741.039 523.309 741.039 522.48V522.48V522.48C741.039 521.652 740.367 520.98 739.539 520.98H732.496C731.667 520.98 730.996 521.652 730.996 522.48V522.48V522.48C730.996 523.309 731.667 523.98 732.496 523.98H739.539ZM719.453 523.98C720.281 523.98 720.953 523.309 720.953 522.48V522.48V522.48C720.953 521.652 720.281 520.98 719.453 520.98H712.41C711.581 520.98 710.91 521.652 710.91 522.48V522.48V522.48C710.91 523.309 711.581 523.98 712.41 523.98H719.453ZM699.367 523.98C700.195 523.98 700.867 523.309 700.867 522.48V522.48V522.48C700.867 521.652 700.195 520.98 699.367 520.98H692.324C691.495 520.98 690.824 521.652 690.824 522.48V522.48V522.48C690.824 523.309 691.495 523.98 692.324 523.98H699.367ZM679.28 523.98C680.109 523.98 680.78 523.309 680.78 522.48V522.48V522.48C680.78 521.652 680.109 520.98 679.28 520.98H672.237C671.409 520.98 670.737 521.652 670.737 522.48V522.48V522.48C670.737 523.309 671.409 523.98 672.237 523.98H679.28ZM659.194 523.98C660.023 523.98 660.694 523.309 660.694 522.48V522.48V522.48C660.694 521.652 660.023 520.98 659.194 520.98H652.151C651.323 520.98 650.651 521.652 650.651 522.48V522.48V522.48C650.651 523.309 651.323 523.98 652.151 523.98H659.194ZM639.108 523.98C639.937 523.98 640.608 523.309 640.608 522.48V522.48V522.48C640.608 521.652 639.937 520.98 639.108 520.98H632.065C631.237 520.98 630.565 521.652 630.565 522.48V522.48V522.48C630.565 523.309 631.237 523.98 632.065 523.98H639.108ZM619.022 523.98C619.85 523.98 620.522 523.309 620.522 522.48V522.48V522.48C620.522 521.652 619.85 520.98 619.022 520.98H611.979C611.15 520.98 610.479 521.652 610.479 522.48V522.48V522.48C610.479 523.309 611.15 523.98 611.979 523.98H619.022ZM598.936 523.98C599.764 523.98 600.436 523.309 600.436 522.48V522.48V522.48C600.436 521.652 599.764 520.98 598.936 520.98H591.893C591.064 520.98 590.393 521.652 590.393 522.48V522.48V522.48C590.393 523.309 591.064 523.98 591.893 523.98H598.936ZM578.85 523.98C579.678 523.98 580.35 523.309 580.35 522.48V522.48V522.48C580.35 521.652 579.678 520.98 578.85 520.98H571.806C570.978 520.98 570.306 521.652 570.306 522.48V522.48V522.48C570.306 523.309 570.978 523.98 571.806 523.98H578.85ZM558.763 523.98C559.592 523.98 560.263 523.309 560.263 522.48V522.48V522.48C560.263 521.652 559.592 520.98 558.763 520.98H551.72C550.892 520.98 550.22 521.652 550.22 522.48V522.48V522.48C550.22 523.309 550.892 523.98 551.72 523.98H558.763ZM538.677 523.98C539.506 523.98 540.177 523.309 540.177 522.48V522.48V522.48C540.177 521.652 539.506 520.98 538.677 520.98H531.634C530.806 520.98 530.134 521.652 530.134 522.48V522.48V522.48C530.134 523.309 530.806 523.98 531.634 523.98H538.677ZM518.591 523.98C519.419 523.98 520.091 523.309 520.091 522.48V522.48V522.48C520.091 521.652 519.419 520.98 518.591 520.98H511.548C510.719 520.98 510.048 521.652 510.048 522.48V522.48V522.48C510.048 523.309 510.719 523.98 511.548 523.98H518.591ZM498.505 523.98C499.333 523.98 500.005 523.309 500.005 522.48V522.48V522.48C500.005 521.652 499.333 520.98 498.505 520.98H491.462C490.633 520.98 489.962 521.652 489.962 522.48V522.48V522.48C489.962 523.309 490.633 523.98 491.462 523.98H498.505ZM478.419 523.98C479.247 523.98 479.919 523.309 479.919 522.48V522.48V522.48C479.919 521.652 479.247 520.98 478.419 520.98H471.376C470.547 520.98 469.876 521.652 469.876 522.48V522.48V522.48C469.876 523.309 470.547 523.98 471.376 523.98H478.419ZM458.332 523.98C459.161 523.98 459.832 523.309 459.832 522.48V522.48V522.48C459.832 521.652 459.161 520.98 458.332 520.98H451.289C450.461 520.98 449.789 521.652 449.789 522.48V522.48V522.48C449.789 523.309 450.461 523.98 451.289 523.98H458.332ZM438.246 523.98C439.075 523.98 439.746 523.309 439.746 522.48V522.48V522.48C439.746 521.652 439.075 520.98 438.246 520.98H431.203C430.375 520.98 429.703 521.652 429.703 522.48V522.48V522.48C429.703 523.309 430.375 523.98 431.203 523.98H438.246ZM418.16 523.98C418.989 523.98 419.66 523.309 419.66 522.48V522.48V522.48C419.66 521.652 418.989 520.98 418.16 520.98H411.117C410.289 520.98 409.617 521.652 409.617 522.48V522.48V522.48C409.617 523.309 410.289 523.98 411.117 523.98H418.16ZM398.074 523.98C398.902 523.98 399.574 523.309 399.574 522.48V522.48V522.48C399.574 521.652 398.902 520.98 398.074 520.98H391.031C390.202 520.98 389.531 521.652 389.531 522.48V522.48V522.48C389.531 523.309 390.202 523.98 391.031 523.98H398.074ZM377.988 523.98C378.816 523.98 379.488 523.309 379.488 522.48V522.48V522.48C379.488 521.652 378.816 520.98 377.988 520.98H370.945C370.116 520.98 369.445 521.652 369.445 522.48V522.48V522.48C369.445 523.309 370.116 523.98 370.945 523.98H377.988ZM357.902 523.98C358.73 523.98 359.402 523.309 359.402 522.48V522.48V522.48C359.402 521.652 358.73 520.98 357.902 520.98H350.858C350.03 520.98 349.358 521.652 349.358 522.48V522.48V522.48C349.358 523.309 350.03 523.98 350.858 523.98H357.902ZM337.815 523.98C338.644 523.98 339.315 523.309 339.315 522.48V522.48V522.48C339.315 521.652 338.644 520.98 337.815 520.98H330.772C329.944 520.98 329.272 521.652 329.272 522.48V522.48V522.48C329.272 523.309 329.944 523.98 330.772 523.98H337.815ZM317.729 523.98C318.558 523.98 319.229 523.309 319.229 522.48V522.48V522.48C319.229 521.652 318.558 520.98 317.729 520.98H310.686C309.858 520.98 309.186 521.652 309.186 522.48V522.48V522.48C309.186 523.309 309.858 523.98 310.686 523.98H317.729ZM297.643 523.98C298.471 523.98 299.143 523.309 299.143 522.48V522.48V522.48C299.143 521.652 298.471 520.98 297.643 520.98H290.6C289.771 520.98 289.1 521.652 289.1 522.48V522.48V522.48C289.1 523.309 289.771 523.98 290.6 523.98H297.643ZM277.557 523.98C278.385 523.98 279.057 523.309 279.057 522.48V522.48V522.48C279.057 521.652 278.385 520.98 277.557 520.98H270.514C269.685 520.98 269.014 521.652 269.014 522.48V522.48V522.48C269.014 523.309 269.685 523.98 270.514 523.98H277.557ZM257.471 523.98C258.299 523.98 258.971 523.309 258.971 522.48V522.48V522.48C258.971 521.652 258.299 520.98 257.471 520.98H250.428C249.599 520.98 248.928 521.652 248.928 522.48V522.48V522.48C248.928 523.309 249.599 523.98 250.428 523.98H257.471ZM237.384 523.98C238.213 523.98 238.884 523.309 238.884 522.48V522.48V522.48C238.884 521.652 238.213 520.98 237.384 520.98H230.341C229.513 520.98 228.841 521.652 228.841 522.48V522.48V522.48C228.841 523.309 229.513 523.98 230.341 523.98H237.384ZM217.298 523.98C218.127 523.98 218.798 523.309 218.798 522.48V522.48V522.48C218.798 521.652 218.127 520.98 217.298 520.98H210.255C209.427 520.98 208.755 521.652 208.755 522.48V522.48V522.48C208.755 523.309 209.427 523.98 210.255 523.98H217.298ZM197.212 523.98C198.041 523.98 198.712 523.309 198.712 522.48V522.48V522.48C198.712 521.652 198.041 520.98 197.212 520.98H190.169C189.341 520.98 188.669 521.652 188.669 522.48V522.48V522.48C188.669 523.309 189.341 523.98 190.169 523.98H197.212ZM177.126 523.98C177.954 523.98 178.626 523.309 178.626 522.48V522.48V522.48C178.626 521.652 177.954 520.98 177.126 520.98H170.083C169.254 520.98 168.583 521.652 168.583 522.48V522.48V522.48C168.583 523.309 169.254 523.98 170.083 523.98H177.126ZM157.04 523.98C157.868 523.98 158.54 523.309 158.54 522.48V522.48V522.48C158.54 521.652 157.868 520.98 157.04 520.98H149.997C149.168 520.98 148.497 521.652 148.497 522.48V522.48V522.48C148.497 523.309 149.168 523.98 149.997 523.98H157.04ZM136.953 523.98C137.782 523.98 138.453 523.309 138.453 522.48V522.48V522.48C138.453 521.652 137.782 520.98 136.953 520.98H129.91C129.082 520.98 128.41 521.652 128.41 522.48V522.48V522.48C128.41 523.309 129.082 523.98 129.91 523.98H136.953ZM116.867 523.98C117.696 523.98 118.367 523.309 118.367 522.48V522.48V522.48C118.367 521.652 117.696 520.98 116.867 520.98H109.824C108.996 520.98 108.324 521.652 108.324 522.48V522.48V522.48C108.324 523.309 108.996 523.98 109.824 523.98H116.867ZM96.7811 523.98C97.6095 523.98 98.2811 523.309 98.2811 522.48V522.48V522.48C98.2811 521.652 97.6095 520.98 96.7811 520.98H89.738C88.9096 520.98 88.238 521.652 88.238 522.48V522.48V522.48C88.238 523.309 88.9096 523.98 89.738 523.98H96.7811ZM76.6949 523.98C77.5233 523.98 78.1949 523.309 78.1949 522.48V522.48V522.48C78.1949 521.652 77.5233 520.98 76.6949 520.98H69.6518C68.8234 520.98 68.1518 521.652 68.1518 522.48V522.48V522.48C68.1518 523.309 68.8234 523.98 69.6518 523.98H76.6949ZM56.6087 523.98C57.4372 523.98 58.1087 523.309 58.1087 522.48V522.48V522.48C58.1087 521.652 57.4372 520.98 56.6087 520.98H49.5656C48.7372 520.98 48.0656 521.652 48.0656 522.48V522.48V522.48C48.0656 523.309 48.7372 523.98 49.5656 523.98H56.6087Z" fill="#CB3838" fill-opacity="0.8"/>
</svg>
